  0
SECTION
  2
HEADER
  9
$ACADVER
  1
AC1014
  9
$ACADMAINTVER
 70
     9
  9
$DWGCODEPAGE
  3
ANSI_1252
  9
$INSBASE
 10
0.0
 20
0.0
 30
0.0
  9
$EXTMIN
 10
95.91005093378635
 20
273.1850594227502
 30
-0.0000000000000001
  9
$EXTMAX
 10
543.4981663837015
 20
792.9350594227503
 30
0.0000000000000001
  9
$LIMMIN
 10
0.0
 20
0.0
  9
$LIMMAX
 10
12.0
 20
9.0
  9
$ORTHOMODE
 70
     0
  9
$REGENMODE
 70
     1
  9
$FILLMODE
 70
     1
  9
$QTEXTMODE
 70
     0
  9
$MIRRTEXT
 70
     1
  9
$DRAGMODE
 70
     2
  9
$LTSCALE
 40
12.7
  9
$OSMODE
 70
    23
  9
$ATTMODE
 70
     1
  9
$TEXTSIZE
 40
3.5
  9
$TRACEWID
 40
0.05
  9
$TEXTSTYLE
  7
ONSHAPE-STANDARD
  9
$CLAYER
  8
0
  9
$CELTYPE
  6
BYLAYER
  9
$CECOLOR
 62
   256
  9
$CELTSCALE
 40
1.0
  9
$DELOBJ
 70
     1
  9
$DISPSILH
 70
     0
  9
$DIMSCALE
 40
1.0
  9
$DIMASZ
 40
2.5
  9
$DIMEXO
 40
0.625
  9
$DIMDLI
 40
3.75
  9
$DIMRND
 40
0.0
  9
$DIMDLE
 40
0.0
  9
$DIMEXE
 40
1.25
  9
$DIMTP
 40
0.0
  9
$DIMTM
 40
0.0
  9
$DIMTXT
 40
3.5
  9
$DIMCEN
 40
2.5
  9
$DIMTSZ
 40
0.0
  9
$DIMTOL
 70
     0
  9
$DIMLIM
 70
     0
  9
$DIMTIH
 70
     0
  9
$DIMTOH
 70
     0
  9
$DIMSE1
 70
     0
  9
$DIMSE2
 70
     0
  9
$DIMTAD
 70
     1
  9
$DIMZIN
 70
     8
  9
$DIMBLK
  1

  9
$DIMASO
 70
     1
  9
$DIMSHO
 70
     1
  9
$DIMPOST
  1

  9
$DIMAPOST
  1

  9
$DIMALT
 70
     0
  9
$DIMALTD
 70
     3
  9
$DIMALTF
 40
0.03937
  9
$DIMLFAC
 40
1.0
  9
$DIMTOFL
 70
     1
  9
$DIMTVP
 40
0.0
  9
$DIMTIX
 70
     0
  9
$DIMSOXD
 70
     0
  9
$DIMSAH
 70
     0
  9
$DIMBLK1
  1

  9
$DIMBLK2
  1

  9
$DIMSTYLE
  2
ONSHAPE-ISO-25
  9
$DIMCLRD
 70
     7
  9
$DIMCLRE
 70
     7
  9
$DIMCLRT
 70
     7
  9
$DIMTFAC
 40
1.0
  9
$DIMGAP
 40
0.625
  9
$DIMJUST
 70
     0
  9
$DIMSD1
 70
     0
  9
$DIMSD2
 70
     0
  9
$DIMTOLJ
 70
     0
  9
$DIMTZIN
 70
     8
  9
$DIMALTZ
 70
     8
  9
$DIMALTTZ
 70
     0
  9
$DIMFIT
 70
     3
  9
$DIMUPT
 70
     1
  9
$DIMUNIT
 70
     2
  9
$DIMDEC
 70
     2
  9
$DIMTDEC
 70
     2
  9
$DIMALTU
 70
     2
  9
$DIMALTTD
 70
     3
  9
$DIMTXSTY
  7
ONSHAPE-STANDARD-DIMENSION
  9
$DIMAUNIT
 70
     0
  9
$LUNITS
 70
     2
  9
$LUPREC
 70
     4
  9
$SKETCHINC
 40
0.1
  9
$FILLETRAD
 40
0.5
  9
$AUNITS
 70
     0
  9
$AUPREC
 70
     0
  9
$MENU
  1
.
  9
$ELEVATION
 40
0.0
  9
$PELEVATION
 40
0.0
  9
$THICKNESS
 40
0.0
  9
$LIMCHECK
 70
     0
  9
$CHAMFERA
 40
0.0
  9
$CHAMFERB
 40
0.0
  9
$CHAMFERC
 40
0.0
  9
$CHAMFERD
 40
0.0
  9
$SKPOLY
 70
     0
  9
$TDCREATE
 40
2461067.67619294
  9
$TDUPDATE
 40
2461067.676193472
  9
$TDINDWG
 40
0.0
  9
$TDUSRTIMER
 40
0.0
  9
$USRTIMER
 70
     1
  9
$ANGBASE
 50
0.0
  9
$ANGDIR
 70
     0
  9
$PDMODE
 70
    33
  9
$PDSIZE
 40
1.0
  9
$PLINEWID
 40
0.0
  9
$COORDS
 70
     1
  9
$SPLFRAME
 70
     0
  9
$SPLINETYPE
 70
     6
  9
$SPLINESEGS
 70
     8
  9
$ATTDIA
 70
     0
  9
$ATTREQ
 70
     1
  9
$HANDLING
 70
     1
  9
$HANDSEED
  5
3EC
  9
$SURFTAB1
 70
     6
  9
$SURFTAB2
 70
     6
  9
$SURFTYPE
 70
     6
  9
$SURFU
 70
     6
  9
$SURFV
 70
     6
  9
$UCSNAME
  2

  9
$UCSORG
 10
0.0
 20
0.0
 30
0.0
  9
$UCSXDIR
 10
1.0
 20
0.0
 30
0.0
  9
$UCSYDIR
 10
0.0
 20
1.0
 30
0.0
  9
$PUCSNAME
  2

  9
$PUCSORG
 10
0.0
 20
0.0
 30
0.0
  9
$PUCSXDIR
 10
1.0
 20
0.0
 30
0.0
  9
$PUCSYDIR
 10
0.0
 20
1.0
 30
0.0
  9
$USERI1
 70
     0
  9
$USERI2
 70
     0
  9
$USERI3
 70
     0
  9
$USERI4
 70
     0
  9
$USERI5
 70
     0
  9
$USERR1
 40
0.0
  9
$USERR2
 40
0.0
  9
$USERR3
 40
0.0
  9
$USERR4
 40
0.0
  9
$USERR5
 40
0.0
  9
$WORLDVIEW
 70
     1
  9
$SHADEDGE
 70
     3
  9
$SHADEDIF
 70
    70
  9
$TILEMODE
 70
     1
  9
$MAXACTVP
 70
    64
  9
$PINSBASE
 10
0.0
 20
0.0
 30
0.0
  9
$PLIMCHECK
 70
     0
  9
$PEXTMIN
 10
1.000000000000000E+20
 20
1.000000000000000E+20
 30
1.000000000000000E+20
  9
$PEXTMAX
 10
-1.000000000000000E+20
 20
-1.000000000000000E+20
 30
-1.000000000000000E+20
  9
$PLIMMIN
 10
0.0
 20
0.0
  9
$PLIMMAX
 10
12.0
 20
9.0
  9
$UNITMODE
 70
     0
  9
$VISRETAIN
 70
     1
  9
$PLINEGEN
 70
     0
  9
$PSLTSCALE
 70
     1
  9
$TREEDEPTH
 70
  3020
  9
$PICKSTYLE
 70
     1
  9
$CMLSTYLE
  2
STANDARD
  9
$CMLJUST
 70
     0
  9
$CMLSCALE
 40
1.0
  9
$PROXYGRAPHICS
 70
     1
  9
$MEASUREMENT
 70
     0
  0
ENDSEC
  0
SECTION
  2
CLASSES
  0
CLASS
  1
ACDBDICTIONARYWDFLT
  2
AcDbDictionaryWithDefault
  3
ObjectDBX Classes
 90
        0
280
     0
281
     0
  0
CLASS
  1
VISUALSTYLE
  2
AcDbVisualStyle
  3
ObjectDBX Classes
 90
     4095
280
     0
281
     0
  0
CLASS
  1
MATERIAL
  2
AcDbMaterial
  3
ObjectDBX Classes
 90
     1153
280
     0
281
     0
  0
CLASS
  1
SCALE
  2
AcDbScale
  3
ObjectDBX Classes
 90
     1153
280
     0
281
     0
  0
CLASS
  1
TABLESTYLE
  2
AcDbTableStyle
  3
ObjectDBX Classes
 90
     4095
280
     0
281
     0
  0
CLASS
  1
MLEADERSTYLE
  2
AcDbMLeaderStyle
  3
ACDB_MLEADERSTYLE_CLASS
 90
     4095
280
     0
281
     0
  0
CLASS
  1
SUN
  2
AcDbSun
  3
SCENEOE
 90
     1153
280
     0
281
     0
  0
CLASS
  1
DICTIONARYVAR
  2
AcDbDictionaryVar
  3
ObjectDBX Classes
 90
        0
280
     0
281
     0
  0
CLASS
  1
XRECORD
  2
AcDbXrecord
  3
ObjectDBX Classes
 90
        0
280
     0
281
     0
  0
CLASS
  1
LWPOLYLINE
  2
AcDbPolyline
  3
ObjectDBX Classes
 90
        0
280
     0
281
     1
  0
CLASS
  1
HATCH
  2
AcDbHatch
  3
ObjectDBX Classes
 90
        0
280
     0
281
     1
  0
CLASS
  1
ACDBPLACEHOLDER
  2
AcDbPlaceHolder
  3
ObjectDBX Classes
 90
        0
280
     0
281
     0
  0
CLASS
  1
LAYOUT
  2
AcDbLayout
  3
ObjectDBX Classes
 90
        0
280
     0
281
     0
  0
ENDSEC
  0
SECTION
  2
TABLES
  0
TABLE
  2
VPORT
  5
8
102
{ACAD_XDICTIONARY
360
3E1
102
}
330
0
100
AcDbSymbolTable
 70
     1
  0
VPORT
  5
29
330
8
100
AcDbSymbolTableRecord
100
AcDbViewportTableRecord
  2
*ACTIVE
 70
     0
 10
0.0
 20
0.0
 11
1.0
 21
1.0
 12
319.7041086587439
 22
547.9350594227503
 13
0.0
 23
0.0
 14
0.5
 24
0.5
 15
0.5
 25
0.5
 16
0.0
 26
0.0
 36
1.0
 17
0.0
 27
0.0
 37
0.0
 40
499.8000000000001
 41
0.9134451335712552
 42
50.0
 43
0.0
 44
0.0
 50
0.0
 51
0.0
 71
     0
 72
   100
 73
     1
 74
     3
 75
     0
 76
     0
 77
     0
 78
     0
  0
ENDTAB
  0
TABLE
  2
LTYPE
  5
5
330
0
100
AcDbSymbolTable
 70
     1
  0
LTYPE
  5
14
330
5
100
AcDbSymbolTableRecord
100
AcDbLinetypeTableRecord
  2
BYBLOCK
 70
     0
  3

 72
    65
 73
     0
 40
0.0
  0
LTYPE
  5
15
330
5
100
AcDbSymbolTableRecord
100
AcDbLinetypeTableRecord
  2
BYLAYER
 70
     0
  3

 72
    65
 73
     0
 40
0.0
  0
LTYPE
  5
16
330
5
100
AcDbSymbolTableRecord
100
AcDbLinetypeTableRecord
  2
CONTINUOUS
 70
     0
  3
Solid line
 72
    65
 73
     0
 40
0.0
  0
ENDTAB
  0
TABLE
  2
LAYER
  5
2
330
0
100
AcDbSymbolTable
 70
     3
  0
LAYER
  5
10
330
2
100
AcDbSymbolTableRecord
100
AcDbLayerTableRecord
  2
0
 70
     0
 62
     7
  6
CONTINUOUS
  0
LAYER
  5
73
330
2
100
AcDbSymbolTableRecord
100
AcDbLayerTableRecord
  2
VISIBLE
 70
     0
 62
     7
  6
CONTINUOUS
  0
LAYER
  5
344
330
2
100
AcDbSymbolTableRecord
100
AcDbLayerTableRecord
  2
ANNOTATION_TEXT
 70
     0
 62
     7
  6
CONTINUOUS
  0
ENDTAB
  0
TABLE
  2
STYLE
  5
3
330
0
100
AcDbSymbolTable
 70
    36
  0
STYLE
  5
11
330
3
100
AcDbSymbolTableRecord
100
AcDbTextStyleTableRecord
  2
STANDARD
 70
     0
 40
0.0
 41
1.0
 50
0.0
 71
     0
 42
3.5
  3
txt
  4

  0
STYLE
  5
70
330
3
100
AcDbSymbolTableRecord
100
AcDbTextStyleTableRecord
  2
ONSHAPE-STANDARD
 70
     0
 40
0.0
 41
1.0
 50
0.0
 71
     0
 42
3.5
  3
NotoSans-Regular.ttf
  4

1001
ACAD
1000
Noto Sans
1071
        0
  0
STYLE
  5
72
330
3
100
AcDbSymbolTableRecord
100
AcDbTextStyleTableRecord
  2
ONSHAPE-STANDARD-DIMENSION
 70
     0
 40
0.0
 41
1.0
 50
0.0
 71
     0
 42
3.5
  3

  4

1001
ACAD
1000
Noto Sans
1071
        0
  0
STYLE
  5
347
330
3
100
AcDbSymbolTableRecord
100
AcDbTextStyleTableRecord
  2
ONSHAPE-STANDARD-VIEW-LABE
 70
     0
 40
3.5
 41
1.0
 50
0.0
 71
     0
 42
3.5
  3
NotoSans-Regular.ttf
  4

1001
ACAD
1000
Noto Sans
1071
        0
  0
STYLE
  5
363
330
3
100
AcDbSymbolTableRecord
100
AcDbTextStyleTableRecord
  2
ONSHAPE-STANDARD-TCFIELDS
 70
     0
 40
0.0
 41
1.0
 50
0.0
 71
     0
 42
3.5
  3
NotoSansTC-Regular.otf
  4

1001
ACAD
1000
Noto Sans TC
1071
        0
  0
STYLE
  5
364
330
3
100
AcDbSymbolTableRecord
100
AcDbTextStyleTableRecord
  2
ONSHAPE-STANDARD-SCFIELDS
 70
     0
 40
0.0
 41
1.0
 50
0.0
 71
     0
 42
3.5
  3
NotoSansSC-Regular.otf
  4

1001
ACAD
1000
Noto Sans SC
1071
        0
  0
STYLE
  5
365
330
3
100
AcDbSymbolTableRecord
100
AcDbTextStyleTableRecord
  2
ONSHAPE-STANDARD-KOREANFIE
 70
     0
 40
0.0
 41
1.0
 50
0.0
 71
     0
 42
3.5
  3
NotoSansKR-Regular.otf
  4

1001
ACAD
1000
Noto Sans KR
1071
        0
  0
STYLE
  5
366
330
3
100
AcDbSymbolTableRecord
100
AcDbTextStyleTableRecord
  2
ONSHAPE-STANDARD-JAPANESEF
 70
     0
 40
0.0
 41
1.0
 50
0.0
 71
     0
 42
3.5
  3
NotoSansJP-Regular.otf
  4

1001
ACAD
1000
Noto Sans JP
1071
        0
  0
STYLE
  5
368
330
3
100
AcDbSymbolTableRecord
100
AcDbTextStyleTableRecord
  2
ONSHAPE-STANDARD-BOLD
 70
     0
 40
0.0
 41
1.0
 50
0.0
 71
     0
 42
3.5
  3
NotoSans-Bold.ttf
  4

1001
ACAD
1000
Noto Sans
1071
 33554432
  0
STYLE
  5
369
330
3
100
AcDbSymbolTableRecord
100
AcDbTextStyleTableRecord
  2
ONSHAPE-STANDARD-FIELDS
 70
     0
 40
0.0
 41
1.0
 50
0.0
 71
     0
 42
3.5
  3

  4

1001
ACAD
1000
Noto Sans
1071
        0
  0
STYLE
  5
36B
330
3
100
AcDbSymbolTableRecord
100
AcDbTextStyleTableRecord
  2
TTFSTYLE
 70
     0
 40
0.0
 41
1.0
 50
0.0
 71
     0
 42
3.5
  3

  4

1001
ACAD
1000
Verdana
1071
       34
  0
STYLE
  5
36C
330
3
100
AcDbSymbolTableRecord
100
AcDbTextStyleTableRecord
  2
ONSHAPE-STANDARD-GTOLERANC
 70
     0
 40
0.0
 41
1.0
 50
0.0
 71
     0
 42
3.5
  3

  4

1001
ACAD
1000
Noto Sans
1071
        0
  0
STYLE
  5
36D
330
3
100
AcDbSymbolTableRecord
100
AcDbTextStyleTableRecord
  2
ONSHAPE-STANDARD-TABLE-DAT
 70
     0
 40
0.0
 41
1.0
 50
0.0
 71
     0
 42
3.5
  3
NotoSans-Regular.ttf
  4

1001
ACAD
1000
Noto Sans
1071
        0
  0
STYLE
  5
36E
330
3
100
AcDbSymbolTableRecord
100
AcDbTextStyleTableRecord
  2
ONSHAPE-STANDARD-TABLE-TIT
 70
     0
 40
0.0
 41
1.0
 50
0.0
 71
     0
 42
3.5
  3
NotoSans-Bold.ttf
  4

1001
ACAD
1000
Noto Sans
1071
 33554432
  0
STYLE
  5
36F
330
3
100
AcDbSymbolTableRecord
100
AcDbTextStyleTableRecord
  2
ONSHAPE-STANDARD-TABLE-HEA
 70
     0
 40
0.0
 41
1.0
 50
0.0
 71
     0
 42
3.5
  3
NotoSans-Bold.ttf
  4

1001
ACAD
1000
Noto Sans
1071
 33554432
  0
STYLE
  5
370
330
3
100
AcDbSymbolTableRecord
100
AcDbTextStyleTableRecord
  2
ONSHAPE-STANDARD-BOMTABLE-
 70
     0
 40
0.0
 41
1.0
 50
0.0
 71
     0
 42
3.5
  3
NotoSans-Regular.ttf
  4

1001
ACAD
1000
Noto Sans
1071
        0
  0
STYLE
  5
371
330
3
100
AcDbSymbolTableRecord
100
AcDbTextStyleTableRecord
  2
ONSHAPE-STANDARD-BOMTABLE0
 70
     0
 40
0.0
 41
1.0
 50
0.0
 71
     0
 42
3.5
  3
NotoSans-Bold.ttf
  4

1001
ACAD
1000
Noto Sans
1071
 33554432
  0
STYLE
  5
372
330
3
100
AcDbSymbolTableRecord
100
AcDbTextStyleTableRecord
  2
ONSHAPE-STANDARD-BOMTABLE1
 70
     0
 40
0.0
 41
1.0
 50
0.0
 71
     0
 42
3.5
  3
NotoSans-Bold.ttf
  4

1001
ACAD
1000
Noto Sans
1071
 33554432
  0
STYLE
  5
373
330
3
100
AcDbSymbolTableRecord
100
AcDbTextStyleTableRecord
  2
ONSHAPE-STANDARD-NOTESTYLE
 70
     0
 40
3.5
 41
1.0
 50
0.0
 71
     0
 42
3.5
  3
NotoSans-Regular.ttf
  4

1001
ACAD
1000
Noto Sans
1071
        0
  0
STYLE
  5
374
330
3
100
AcDbSymbolTableRecord
100
AcDbTextStyleTableRecord
  2
ONSHAPE-STANDARD-DATUM-DIM
 70
     0
 40
3.5
 41
1.0
 50
0.0
 71
     0
 42
3.5
  3
NotoSans-Regular.ttf
  4

1001
ACAD
1000
Noto Sans
1071
        0
  0
STYLE
  5
376
330
3
100
AcDbSymbolTableRecord
100
AcDbTextStyleTableRecord
  2
ONSHAPE-DETAIL-VIEW-LEADER
 70
     0
 40
3.5
 41
1.0
 50
0.0
 71
     0
 42
3.5
  3
NotoSans-Regular.ttf
  4

1001
ACAD
1000
Noto Sans
1071
        0
  0
STYLE
  5
377
330
3
100
AcDbSymbolTableRecord
100
AcDbTextStyleTableRecord
  2
ONSHAPE-STANDARD-HOLE-CALL
 70
     0
 40
3.5
 41
1.0
 50
0.0
 71
     0
 42
3.5
  3
NotoSans-Regular.ttf
  4

1001
ACAD
1000
Noto Sans
1071
        0
  0
STYLE
  5
378
330
3
100
AcDbSymbolTableRecord
100
AcDbTextStyleTableRecord
  2
ONSHAPE-STANDARD-HOLETABLE
 70
     0
 40
0.0
 41
1.0
 50
0.0
 71
     0
 42
3.5
  3
NotoSans-Regular.ttf
  4

1001
ACAD
1000
Noto Sans
1071
        0
  0
STYLE
  5
379
330
3
100
AcDbSymbolTableRecord
100
AcDbTextStyleTableRecord
  2
ONSHAPE-STANDARD-HOLETABL0
 70
     0
 40
0.0
 41
1.0
 50
0.0
 71
     0
 42
3.5
  3
NotoSans-Bold.ttf
  4

1001
ACAD
1000
Noto Sans
1071
 33554432
  0
STYLE
  5
37A
330
3
100
AcDbSymbolTableRecord
100
AcDbTextStyleTableRecord
  2
ONSHAPE-STANDARD-HOLETABL1
 70
     0
 40
0.0
 41
1.0
 50
0.0
 71
     0
 42
3.5
  3
NotoSans-Bold.ttf
  4

1001
ACAD
1000
Noto Sans
1071
 33554432
  0
STYLE
  5
37B
330
3
100
AcDbSymbolTableRecord
100
AcDbTextStyleTableRecord
  2
ONSHAPE-STANDARD-HOLE-TAG
 70
     0
 40
3.5
 41
1.0
 50
0.0
 71
     0
 42
3.5
  3
NotoSans-Regular.ttf
  4

1001
ACAD
1000
Noto Sans
1071
        0
  0
STYLE
  5
37C
330
3
100
AcDbSymbolTableRecord
100
AcDbTextStyleTableRecord
  2
ONSHAPE-STANDARD-REVISIONT
 70
     0
 40
0.0
 41
1.0
 50
0.0
 71
     0
 42
3.5
  3
NotoSans-Regular.ttf
  4

1001
ACAD
1000
Noto Sans
1071
        0
  0
STYLE
  5
37D
330
3
100
AcDbSymbolTableRecord
100
AcDbTextStyleTableRecord
  2
ONSHAPE-STANDARD-REVISION0
 70
     0
 40
0.0
 41
1.0
 50
0.0
 71
     0
 42
3.5
  3
NotoSans-Bold.ttf
  4

1001
ACAD
1000
Noto Sans
1071
 33554432
  0
STYLE
  5
37E
330
3
100
AcDbSymbolTableRecord
100
AcDbTextStyleTableRecord
  2
ONSHAPE-STANDARD-REVISION1
 70
     0
 40
0.0
 41
1.0
 50
0.0
 71
     0
 42
3.5
  3
NotoSans-Bold.ttf
  4

1001
ACAD
1000
Noto Sans
1071
 33554432
  0
STYLE
  5
37F
330
3
100
AcDbSymbolTableRecord
100
AcDbTextStyleTableRecord
  2
ONSHAPE-STANDARD-REVISION-
 70
     0
 40
3.5
 41
1.0
 50
0.0
 71
     0
 42
3.5
  3
NotoSans-Regular.ttf
  4

1001
ACAD
1000
Noto Sans
1071
        0
  0
STYLE
  5
380
330
3
100
AcDbSymbolTableRecord
100
AcDbTextStyleTableRecord
  2
ONSHAPE-STANDARD-CUTLISTTA
 70
     0
 40
0.0
 41
1.0
 50
0.0
 71
     0
 42
3.5
  3
NotoSans-Regular.ttf
  4

1001
ACAD
1000
Noto Sans
1071
        0
  0
STYLE
  5
381
330
3
100
AcDbSymbolTableRecord
100
AcDbTextStyleTableRecord
  2
ONSHAPE-STANDARD-CUTLISTT0
 70
     0
 40
0.0
 41
1.0
 50
0.0
 71
     0
 42
3.5
  3
NotoSans-Bold.ttf
  4

1001
ACAD
1000
Noto Sans
1071
 33554432
  0
STYLE
  5
382
330
3
100
AcDbSymbolTableRecord
100
AcDbTextStyleTableRecord
  2
ONSHAPE-STANDARD-CUTLISTT1
 70
     0
 40
0.0
 41
1.0
 50
0.0
 71
     0
 42
3.5
  3
NotoSans-Bold.ttf
  4

1001
ACAD
1000
Noto Sans
1071
 33554432
  0
STYLE
  5
383
330
3
100
AcDbSymbolTableRecord
100
AcDbTextStyleTableRecord
  2
ONSHAPE-STANDARD-CUSTOMTAB
 70
     0
 40
0.0
 41
1.0
 50
0.0
 71
     0
 42
3.5
  3
NotoSans-Regular.ttf
  4

1001
ACAD
1000
Noto Sans
1071
        0
  0
STYLE
  5
384
330
3
100
AcDbSymbolTableRecord
100
AcDbTextStyleTableRecord
  2
ONSHAPE-STANDARD-CUSTOMTA0
 70
     0
 40
0.0
 41
1.0
 50
0.0
 71
     0
 42
3.5
  3
NotoSans-Bold.ttf
  4

1001
ACAD
1000
Noto Sans
1071
 33554432
  0
STYLE
  5
385
330
3
100
AcDbSymbolTableRecord
100
AcDbTextStyleTableRecord
  2
ONSHAPE-STANDARD-CUSTOMTA1
 70
     0
 40
0.0
 41
1.0
 50
0.0
 71
     0
 42
3.5
  3
NotoSans-Bold.ttf
  4

1001
ACAD
1000
Noto Sans
1071
 33554432
  0
ENDTAB
  0
TABLE
  2
VIEW
  5
6
330
0
100
AcDbSymbolTable
 70
     0
  0
ENDTAB
  0
TABLE
  2
UCS
  5
7
330
0
100
AcDbSymbolTable
 70
     0
  0
ENDTAB
  0
TABLE
  2
APPID
  5
9
330
0
100
AcDbSymbolTable
 70
     3
  0
APPID
  5
12
330
9
100
AcDbSymbolTableRecord
100
AcDbRegAppTableRecord
  2
ACAD
 70
     0
  0
APPID
  5
348
330
9
100
AcDbSymbolTableRecord
100
AcDbRegAppTableRecord
  2
ONSHAPE_NOTES_ANNOTATION_D
 70
     0
  0
APPID
  5
3EB
330
9
100
AcDbSymbolTableRecord
100
AcDbRegAppTableRecord
  2
ACAD_MLEADERVER
 70
     0
  0
ENDTAB
  0
TABLE
  2
DIMSTYLE
  5
A
330
0
100
AcDbSymbolTable
 70
    23
  0
DIMSTYLE
105
27
330
A
100
AcDbSymbolTableRecord
100
AcDbDimStyleTableRecord
  2
STANDARD
 70
     0
  3

  4

  5

  6

  7

 40
1.0
 41
0.18
 42
0.0625
 43
0.38
 44
0.18
 45
0.0
 46
0.0
 47
0.0
 48
0.0
140
0.18
141
0.09
142
0.0
143
25.4
144
1.0
145
0.0
146
1.0
147
0.09
 71
     0
 72
     0
 73
     1
 74
     1
 75
     0
 76
     0
 77
     0
 78
     0
170
     0
171
     2
172
     0
173
     0
174
     0
175
     0
176
     0
177
     0
178
     0
270
     2
271
     4
272
     4
273
     2
274
     2
340
11
275
     0
280
     0
281
     0
282
     0
283
     1
284
     0
285
     0
286
     0
287
     3
288
     0
  0
DIMSTYLE
105
71
330
A
100
AcDbSymbolTableRecord
100
AcDbDimStyleTableRecord
  2
ONSHAPE-ISO-25
 70
     0
  3

  4

  5

  6

  7

 40
1.0
 41
2.5
 42
0.625
 43
3.75
 44
1.25
 45
0.0
 46
0.0
 47
0.0
 48
0.0
140
3.5
141
2.5
142
0.0
143
0.03937
144
1.0
145
0.0
146
1.0
147
0.625
 71
     0
 72
     0
 73
     0
 74
     0
 75
     0
 76
     0
 77
     1
 78
     8
170
     0
171
     3
172
     1
173
     0
174
     0
175
     0
176
     7
177
     7
178
     7
179
     1
270
     2
271
     2
272
     2
273
     2
274
     3
340
72
275
     0
280
     0
281
     0
282
     0
283
     0
284
     8
285
     8
286
     0
287
     3
288
     1
  0
DIMSTYLE
105
386
330
A
100
AcDbSymbolTableRecord
100
AcDbDimStyleTableRecord
  2
ISO-25
 70
     0
  3

  4

  5

  6

  7

 40
1.0
 41
2.5
 42
0.625
 43
3.75
 44
1.25
 45
0.0
 46
0.0
 47
0.0
 48
0.0
140
2.5
141
2.5
142
0.0
143
0.03937007874016
144
1.0
145
0.0
146
1.0
147
0.625
 71
     0
 72
     0
 73
     0
 74
     0
 75
     0
 76
     0
 77
     1
 78
     8
170
     0
171
     3
172
     1
173
     0
174
     0
175
     0
176
     7
177
     7
178
     7
270
     2
271
     2
272
     2
273
     2
274
     3
340
11
275
     0
280
     0
281
     0
282
     0
283
     0
284
     8
285
     0
286
     0
287
     3
288
     1
  0
DIMSTYLE
105
388
330
A
100
AcDbSymbolTableRecord
100
AcDbDimStyleTableRecord
  2
ISO
 70
     0
  3

  4
"
  5

  6

  7

 40
1.0
 41
3.5
 42
1.0
 43
10.0
 44
1.0
 45
0.0
 46
0.0
 47
0.1
 48
0.1
140
3.5
141
0.0
142
0.0
143
0.03937
144
1.0
145
0.0
146
0.71
147
1.5
 71
     0
 72
     0
 73
     0
 74
     0
 75
     0
 76
     0
 77
     1
 78
     8
170
     0
171
     3
172
     1
173
     0
174
     0
175
     0
176
     7
177
     7
178
     7
270
     2
271
     2
272
     3
273
     2
274
     3
340
11
275
     0
280
     0
281
     0
282
     0
283
     0
284
     8
285
     8
286
     0
287
     3
288
     1
  0
DIMSTYLE
105
389
330
A
100
AcDbSymbolTableRecord
100
AcDbDimStyleTableRecord
  2
ISO$3
 70
     0
  3

  4
"
  5

  6

  7

 40
1.0
 41
3.5
 42
1.0
 43
10.0
 44
1.0
 45
0.0
 46
0.0
 47
0.1
 48
0.1
140
3.5
141
0.0
142
0.0
143
0.03937
144
1.0
145
0.0
146
0.71
147
1.5
 71
     0
 72
     0
 73
     0
 74
     1
 75
     0
 76
     0
 77
     1
 78
     8
170
     0
171
     3
172
     0
173
     0
174
     0
175
     0
176
     7
177
     7
178
     7
270
     2
271
     2
272
     3
273
     2
274
     3
340
11
275
     0
280
     0
281
     0
282
     0
283
     0
284
     8
285
     8
286
     0
288
     1
  0
DIMSTYLE
105
38A
330
A
100
AcDbSymbolTableRecord
100
AcDbDimStyleTableRecord
  2
ISO$4
 70
     0
  3

  4
"
  5

  6

  7

 40
1.0
 41
3.5
 42
1.0
 43
10.0
 44
1.0
 45
0.0
 46
0.0
 47
0.1
 48
0.1
140
3.5
141
0.0
142
0.0
143
0.03937
144
1.0
145
0.0
146
0.71
147
1.5
 71
     0
 72
     0
 73
     0
 74
     0
 75
     0
 76
     0
 77
     1
 78
     8
170
     0
171
     3
172
     1
173
     0
174
     0
175
     0
176
     7
177
     7
178
     7
270
     2
271
     2
272
     3
273
     2
274
     3
340
11
275
     0
280
     0
281
     0
282
     0
283
     0
284
     8
285
     8
286
     0
287
     3
288
     1
  0
DIMSTYLE
105
38B
330
A
100
AcDbSymbolTableRecord
100
AcDbDimStyleTableRecord
  2
ISO$6
 70
     0
  3

  4
"
  5

  6

  7

 40
1.0
 41
0.5
 42
1.0
 43
10.0
 44
1.0
 45
0.0
 46
0.0
 47
0.1
 48
0.1
140
3.5
141
0.0
142
0.0
143
0.03937
144
1.0
145
0.0
146
0.71
147
1.5
 71
     0
 72
     0
 73
     0
 74
     0
 75
     0
 76
     0
 77
     0
 78
     8
170
     0
171
     3
172
     1
173
     0
174
     0
175
     0
176
     7
177
     7
178
     7
270
     2
271
     2
272
     3
273
     2
274
     3
340
11
275
     0
280
     0
281
     0
282
     0
283
     0
284
     8
285
     8
286
     0
287
     3
288
     1
  0
DIMSTYLE
105
38C
330
A
100
AcDbSymbolTableRecord
100
AcDbDimStyleTableRecord
  2
ISO$7
 70
     0
  3

  4
"
  5

  6

  7

 40
1.0
 41
3.5
 42
1.0
 43
10.0
 44
1.0
 45
0.0
 46
0.0
 47
0.1
 48
0.1
140
3.5
141
0.0
142
0.0
143
0.03937
144
1.0
145
0.0
146
0.71
147
1.5
 71
     0
 72
     0
 73
     0
 74
     0
 75
     0
 76
     0
 77
     1
 78
     8
170
     0
171
     3
172
     1
173
     0
174
     0
175
     0
176
     7
177
     7
178
     7
270
     2
271
     2
272
     3
273
     2
274
     3
340
11
275
     0
280
     0
281
     0
282
     0
283
     0
284
     8
285
     8
286
     0
287
     3
288
     1
  0
DIMSTYLE
105
38D
330
A
100
AcDbSymbolTableRecord
100
AcDbDimStyleTableRecord
  2
ISO$SF
 70
     0
  3

  4
"
  5

  6

  7

 40
1.0
 41
3.5
 42
1.0
 43
10.0
 44
1.0
 45
0.0
 46
0.0
 47
0.1
 48
0.1
140
3.5
141
0.0
142
0.0
143
0.03937
144
1.0
145
0.0
146
0.71
147
1.5
 71
     0
 72
     0
 73
     0
 74
     0
 75
     1
 76
     1
 77
     1
 78
     8
170
     0
171
     3
172
     1
173
     0
174
     0
175
     0
176
     7
177
     7
178
     7
270
     2
271
     2
272
     3
273
     2
274
     3
340
11
275
     0
280
     0
281
     0
282
     0
283
     0
284
     8
285
     8
286
     0
287
     3
288
     1
  0
DIMSTYLE
105
38E
330
A
100
AcDbSymbolTableRecord
100
AcDbDimStyleTableRecord
  2
ISO$SH
 70
     0
  3

  4
"
  5

  6

  7

 40
1.0
 41
3.5
 42
1.0
 43
10.0
 44
1.0
 45
0.0
 46
0.0
 47
0.1
 48
0.1
140
3.5
141
0.0
142
0.0
143
0.03937
144
2.0
145
0.0
146
0.71
147
1.5
 71
     0
 72
     0
 73
     0
 74
     0
 75
     1
 76
     1
 77
     1
 78
     8
170
     0
171
     3
172
     1
173
     1
174
     0
175
     0
176
     7
177
     7
178
     7
270
     2
271
     2
272
     3
273
     2
274
     3
340
11
275
     0
280
     0
281
     0
282
     0
283
     0
284
     8
285
     8
286
     0
287
     3
288
     1
  0
DIMSTYLE
105
391
330
A
100
AcDbSymbolTableRecord
100
AcDbDimStyleTableRecord
  2
ONSHAPE-ISO-25$0
 70
     0
  3

  4

  5

  6

  7

 40
1.0
 41
2.5
 42
0.625
 43
3.75
 44
1.25
 45
0.0
 46
0.0
 47
0.0
 48
0.0
140
3.5
141
2.5
142
0.0
143
0.03937
144
1.0
145
0.0
146
1.0
147
0.625
 71
     0
 72
     0
 73
     0
 74
     0
 75
     0
 76
     0
 77
     1
 78
     8
170
     0
171
     3
172
     1
173
     0
174
     0
175
     0
176
     7
177
     7
178
     7
179
     1
270
     2
271
     2
272
     2
273
     2
274
     3
340
72
275
     0
280
     0
281
     0
282
     0
283
     0
284
     8
285
     8
286
     0
287
     3
288
     1
  0
DIMSTYLE
105
392
330
A
100
AcDbSymbolTableRecord
100
AcDbDimStyleTableRecord
  2
ONSHAPE-ISO-25$2
 70
     0
  3

  4

  5

  6

  7

 40
1.0
 41
2.5
 42
0.625
 43
3.75
 44
1.25
 45
0.0
 46
0.0
 47
0.0
 48
0.0
140
3.5
141
2.5
142
0.0
143
0.03937
144
1.0
145
0.0
146
1.0
147
0.625
 71
     0
 72
     0
 73
     0
 74
     0
 75
     0
 76
     0
 77
     1
 78
     8
170
     0
171
     3
172
     1
173
     0
174
     0
175
     0
176
     7
177
     7
178
     7
179
     1
270
     2
271
     2
272
     2
273
     2
274
     3
340
72
275
     0
280
     0
281
     0
282
     0
283
     0
284
     8
285
     8
286
     0
287
     3
288
     1
  0
DIMSTYLE
105
393
330
A
100
AcDbSymbolTableRecord
100
AcDbDimStyleTableRecord
  2
ONSHAPE-ISO-25$3
 70
     0
  3

  4

  5

  6

  7

 40
1.0
 41
2.5
 42
0.625
 43
3.75
 44
1.25
 45
0.0
 46
0.0
 47
0.0
 48
0.0
140
3.5
141
0.0
142
0.0
143
0.03937
144
1.0
145
0.0
146
1.0
147
0.625
 71
     0
 72
     0
 73
     0
 74
     0
 75
     0
 76
     0
 77
     1
 78
     8
170
     0
171
     3
172
     1
173
     0
174
     0
175
     0
176
     7
177
     7
178
     7
179
     1
270
     2
271
     2
272
     2
273
     2
274
     3
340
72
275
     0
280
     0
281
     0
282
     0
283
     0
284
     8
285
     8
286
     0
287
     3
288
     1
  0
DIMSTYLE
105
394
330
A
100
AcDbSymbolTableRecord
100
AcDbDimStyleTableRecord
  2
ONSHAPE-ISO-25$4
 70
     0
  3

  4

  5

  6

  7

 40
1.0
 41
2.5
 42
0.625
 43
3.75
 44
1.25
 45
0.0
 46
0.0
 47
0.0
 48
0.0
140
3.5
141
0.0
142
0.0
143
0.03937
144
1.0
145
0.0
146
1.0
147
0.625
 71
     0
 72
     0
 73
     0
 74
     0
 75
     0
 76
     0
 77
     1
 78
     8
170
     0
171
     3
172
     1
173
     0
174
     0
175
     0
176
     7
177
     7
178
     7
179
     1
270
     2
271
     2
272
     2
273
     2
274
     3
340
72
275
     0
280
     0
281
     0
282
     0
283
     0
284
     8
285
     8
286
     0
287
     3
288
     1
  0
DIMSTYLE
105
395
330
A
100
AcDbSymbolTableRecord
100
AcDbDimStyleTableRecord
  2
ONSHAPE-ISO-25$6
 70
     0
  3

  4

  5

  6

  7

 40
1.0
 41
0.5
 42
0.625
 43
3.75
 44
1.25
 45
0.0
 46
0.0
 47
0.0
 48
0.0
140
3.5
141
2.5
142
0.0
143
0.03937
144
1.0
145
0.0
146
1.0
147
0.625
 71
     0
 72
     0
 73
     0
 74
     0
 75
     0
 76
     0
 77
     1
 78
     8
170
     0
171
     3
172
     1
173
     0
174
     0
175
     0
176
     7
177
     7
178
     7
179
     1
270
     2
271
     2
272
     2
273
     2
274
     3
340
72
275
     0
280
     0
281
     0
282
     0
283
     0
284
     8
285
     8
286
     0
287
     3
288
     1
  0
DIMSTYLE
105
396
330
A
100
AcDbSymbolTableRecord
100
AcDbDimStyleTableRecord
  2
ONSHAPE-ISO-25$7
 70
     0
  3

  4

  5

  6

  7

 40
1.0
 41
2.5
 42
0.625
 43
3.75
 44
1.25
 45
0.0
 46
0.0
 47
0.0
 48
0.0
140
3.5
141
2.5
142
0.0
143
0.03937
144
1.0
145
0.0
146
1.0
147
0.625
 71
     0
 72
     0
 73
     0
 74
     0
 75
     0
 76
     0
 77
     1
 78
     8
170
     0
171
     3
172
     1
173
     0
174
     0
175
     0
176
     7
177
     7
178
     7
179
     1
270
     2
271
     2
272
     2
273
     2
274
     3
340
72
275
     0
280
     0
281
     0
282
     0
283
     0
284
     8
285
     8
286
     0
287
     3
288
     1
  0
DIMSTYLE
105
397
330
A
100
AcDbSymbolTableRecord
100
AcDbDimStyleTableRecord
  2
ONSHAPE-STANDARD-GTOLERANC
 70
     0
  3

  4

  5

  6

  7

 40
1.0
 41
2.5
 42
0.625
 43
3.75
 44
1.25
 45
0.0
 46
0.0
 47
0.0
 48
0.0
140
3.5
141
2.5
142
0.0
143
0.03937
144
1.0
145
0.0
146
1.0
147
0.625
 71
     0
 72
     0
 73
     0
 74
     0
 75
     0
 76
     0
 77
     1
 78
     8
170
     0
171
     3
172
     1
173
     0
174
     0
175
     0
176
     7
177
     7
178
     7
179
     1
270
     2
271
     2
272
     2
273
     2
274
     3
340
36C
275
     0
280
     0
281
     0
282
     0
283
     0
284
     8
285
     8
286
     0
287
     3
288
     1
  0
DIMSTYLE
105
399
330
A
100
AcDbSymbolTableRecord
100
AcDbDimStyleTableRecord
  2
ONSHAPE-ORDINATESTYLE
 70
     0
  3

  4

  5

  6

  7

 40
1.0
 41
2.5
 42
0.625
 43
3.75
 44
1.25
 45
0.0
 46
0.0
 47
0.0
 48
0.0
140
3.5
141
2.5
142
0.0
143
0.03937
144
1.0
145
0.0
146
1.0
147
0.625
 71
     0
 72
     0
 73
     0
 74
     0
 75
     0
 76
     0
 77
     1
 78
     8
170
     0
171
     3
172
     1
173
     0
174
     0
175
     0
176
     7
177
     7
178
     7
179
     1
270
     2
271
     2
272
     2
273
     2
274
     3
340
72
275
     0
280
     0
281
     0
282
     0
283
     0
284
     8
285
     8
286
     0
287
     3
288
     1
  0
DIMSTYLE
105
39A
330
A
100
AcDbSymbolTableRecord
100
AcDbDimStyleTableRecord
  2
ONSHAPE-CHAMFERDIMSTYLE
 70
     0
  3

  4

  5

  6

  7

 40
1.0
 41
2.5
 42
0.625
 43
3.75
 44
1.25
 45
0.0
 46
0.0
 47
0.0
 48
0.0
140
3.5
141
2.5
142
0.0
143
0.03937
144
1.0
145
0.0
146
1.0
147
0.625
 71
     0
 72
     0
 73
     0
 74
     0
 75
     0
 76
     0
 77
     1
 78
     8
170
     0
171
     3
172
     1
173
     0
174
     0
175
     0
176
     7
177
     7
178
     7
179
     1
270
     2
271
     2
272
     2
273
     2
274
     3
340
72
275
     0
280
     0
281
     0
282
     0
283
     0
284
     8
285
     8
286
     0
287
     3
288
     1
  0
DIMSTYLE
105
39B
330
A
100
AcDbSymbolTableRecord
100
AcDbDimStyleTableRecord
  2
ONSHAPE-SKETCHDRIVENDIMSTY
 70
     0
  3

  4

  5

  6

  7

 40
1.0
 41
2.5
 42
0.625
 43
3.75
 44
1.25
 45
0.0
 46
0.0
 47
0.0
 48
0.0
140
3.5
141
2.5
142
0.0
143
0.03937
144
1.0
145
0.0
146
1.0
147
0.625
 71
     0
 72
     0
 73
     0
 74
     0
 75
     0
 76
     0
 77
     1
 78
     8
170
     0
171
     3
172
     1
173
     0
174
     0
175
     0
176
   251
177
   251
178
   251
179
     1
270
     2
271
     2
272
     2
273
     2
274
     3
340
72
275
     0
280
     0
281
     0
282
     0
283
     0
284
     8
285
     8
286
     0
287
     3
288
     1
  0
DIMSTYLE
105
39C
330
A
100
AcDbSymbolTableRecord
100
AcDbDimStyleTableRecord
  2
ONSHAPE-SKETCHDRIVENDIMST0
 70
     0
  3

  4

  5

  6

  7

 40
1.0
 41
2.5
 42
0.625
 43
3.75
 44
1.25
 45
0.0
 46
0.0
 47
0.0
 48
0.0
140
3.5
141
2.5
142
0.0
143
0.03937
144
1.0
145
0.0
146
1.0
147
0.625
 71
     0
 72
     0
 73
     0
 74
     0
 75
     0
 76
     0
 77
     1
 78
     8
170
     0
171
     3
172
     1
173
     0
174
     0
175
     0
176
   251
177
   251
178
   251
179
     1
270
     2
271
     2
272
     2
273
     2
274
     3
340
72
275
     0
280
     0
281
     0
282
     0
283
     0
284
     8
285
     8
286
     0
287
     3
288
     1
  0
DIMSTYLE
105
39D
330
A
100
AcDbSymbolTableRecord
100
AcDbDimStyleTableRecord
  2
ONSHAPE-SKETCHDRIVENDIMST1
 70
     0
  3

  4

  5

  6

  7

 40
1.0
 41
2.5
 42
0.625
 43
3.75
 44
1.25
 45
0.0
 46
0.0
 47
0.0
 48
0.0
140
3.5
141
0.0
142
0.0
143
0.03937
144
1.0
145
0.0
146
1.0
147
0.625
 71
     0
 72
     0
 73
     0
 74
     0
 75
     0
 76
     0
 77
     1
 78
     8
170
     0
171
     3
172
     1
173
     0
174
     0
175
     0
176
   251
177
   251
178
   251
179
     1
270
     2
271
     2
272
     2
273
     2
274
     3
340
72
275
     0
280
     0
281
     0
282
     0
283
     0
284
     8
285
     8
286
     0
287
     3
288
     1
  0
DIMSTYLE
105
39E
330
A
100
AcDbSymbolTableRecord
100
AcDbDimStyleTableRecord
  2
ONSHAPE-SKETCHDRIVENDIMST2
 70
     0
  3

  4

  5

  6

  7

 40
1.0
 41
2.5
 42
0.625
 43
3.75
 44
1.25
 45
0.0
 46
0.0
 47
0.0
 48
0.0
140
3.5
141
0.0
142
0.0
143
0.03937
144
1.0
145
0.0
146
1.0
147
0.625
 71
     0
 72
     0
 73
     0
 74
     0
 75
     0
 76
     0
 77
     1
 78
     8
170
     0
171
     3
172
     1
173
     0
174
     0
175
     0
176
   251
177
   251
178
   251
179
     1
270
     2
271
     2
272
     2
273
     2
274
     3
340
72
275
     0
280
     0
281
     0
282
     0
283
     0
284
     8
285
     8
286
     0
287
     3
288
     1
  0
ENDTAB
  0
TABLE
  2
BLOCK_RECORD
  5
1
330
0
100
AcDbSymbolTable
 70
     0
  0
BLOCK_RECORD
  5
1F
330
1
100
AcDbSymbolTableRecord
100
AcDbBlockTableRecord
  2
*MODEL_SPACE
  0
BLOCK_RECORD
  5
1B
330
1
100
AcDbSymbolTableRecord
100
AcDbBlockTableRecord
  2
*PAPER_SPACE
  0
ENDTAB
  0
ENDSEC
  0
SECTION
  2
BLOCKS
  0
BLOCK
  5
20
330
1F
100
AcDbEntity
  8
0
100
AcDbBlockBegin
  2
*MODEL_SPACE
 70
     0
 10
0.0
 20
0.0
 30
0.0
  3
*MODEL_SPACE
  1

  0
ENDBLK
  5
21
330
1F
100
AcDbEntity
  8
0
100
AcDbBlockEnd
  0
BLOCK
  5
1C
330
1B
100
AcDbEntity
 67
     1
  8
0
100
AcDbBlockBegin
  2
*PAPER_SPACE
 70
     0
 10
0.0
 20
0.0
 30
0.0
  3
*PAPER_SPACE
  1

  0
ENDBLK
  5
1D
330
1B
100
AcDbEntity
 67
     1
  8
0
100
AcDbBlockEnd
  0
ENDSEC
  0
SECTION
  2
ENTITIES
  0
LINE
  5
75
330
1F
100
AcDbEntity
  8
VISIBLE
100
AcDbLine
 10
315.9100509337864
 20
386.9350594227502
 30
0.0
 11
321.9100509337864
 21
386.9350594227502
 31
0.0
  0
LINE
  5
76
330
1F
100
AcDbEntity
  8
VISIBLE
100
AcDbLine
 10
334.7100509337864
 20
407.9350594227502
 30
0.0
 11
315.9100509337864
 21
407.9350594227502
 31
0.0
  0
LINE
  5
77
330
1F
100
AcDbEntity
  8
VISIBLE
100
AcDbLine
 10
409.9100509337864
 20
386.9350594227502
 30
0.0
 11
409.9100509337864
 21
407.9350594227502
 31
0.0
  0
LINE
  5
78
330
1F
100
AcDbEntity
  8
VISIBLE
100
AcDbLine
 10
409.9100509337864
 20
386.9350594227502
 30
0.0
 11
415.9100509337864
 21
386.9350594227502
 31
0.0
  0
LINE
  5
79
330
1F
100
AcDbEntity
  8
VISIBLE
100
AcDbLine
 10
415.9100509337864
 20
386.9350594227502
 30
0.0
 11
415.9100509337864
 21
365.9350594227502
 31
0.0
  0
LINE
  5
7A
330
1F
100
AcDbEntity
  8
VISIBLE
100
AcDbLine
 10
409.9100509337864
 20
365.9350594227502
 30
0.0
 11
415.9100509337864
 21
365.9350594227502
 31
0.0
  0
LINE
  5
7B
330
1F
100
AcDbEntity
  8
VISIBLE
100
AcDbLine
 10
409.9100509337864
 20
344.9350594227502
 30
0.0
 11
409.9100509337864
 21
365.9350594227502
 31
0.0
  0
LINE
  5
7C
330
1F
100
AcDbEntity
  8
VISIBLE
100
AcDbLine
 10
409.9100509337864
 20
344.9350594227502
 30
0.0
 11
415.9100509337864
 21
344.9350594227502
 31
0.0
  0
LINE
  5
7D
330
1F
100
AcDbEntity
  8
VISIBLE
100
AcDbLine
 10
415.9100509337864
 20
344.9350594227502
 30
0.0
 11
415.9100509337864
 21
323.9350594227502
 31
0.0
  0
LINE
  5
7E
330
1F
100
AcDbEntity
  8
VISIBLE
100
AcDbLine
 10
409.9100509337864
 20
323.9350594227502
 30
0.0
 11
415.9100509337864
 21
323.9350594227502
 31
0.0
  0
LINE
  5
7F
330
1F
100
AcDbEntity
  8
VISIBLE
100
AcDbLine
 10
409.9100509337864
 20
302.9350594227502
 30
0.0
 11
409.9100509337864
 21
323.9350594227502
 31
0.0
  0
LINE
  5
80
330
1F
100
AcDbEntity
  8
VISIBLE
100
AcDbLine
 10
353.5100509337864
 20
308.9350594227502
 30
0.0
 11
334.7100509337864
 21
308.9350594227502
 31
0.0
  0
LINE
  5
81
330
1F
100
AcDbEntity
  8
VISIBLE
100
AcDbLine
 10
315.9100509337864
 20
323.9350594227502
 30
0.0
 11
315.9100509337864
 21
302.9350594227502
 31
0.0
  0
LINE
  5
82
330
1F
100
AcDbEntity
  8
VISIBLE
100
AcDbLine
 10
315.9100509337864
 20
323.9350594227502
 30
0.0
 11
321.9100509337864
 21
323.9350594227502
 31
0.0
  0
LINE
  5
83
330
1F
100
AcDbEntity
  8
VISIBLE
100
AcDbLine
 10
321.9100509337864
 20
323.9350594227502
 30
0.0
 11
321.9100509337864
 21
344.9350594227502
 31
0.0
  0
LINE
  5
84
330
1F
100
AcDbEntity
  8
VISIBLE
100
AcDbLine
 10
315.9100509337864
 20
344.9350594227502
 30
0.0
 11
321.9100509337864
 21
344.9350594227502
 31
0.0
  0
LINE
  5
85
330
1F
100
AcDbEntity
  8
VISIBLE
100
AcDbLine
 10
315.9100509337864
 20
365.9350594227502
 30
0.0
 11
321.9100509337864
 21
365.9350594227502
 31
0.0
  0
CIRCLE
  5
86
330
1F
100
AcDbEntity
  8
VISIBLE
100
AcDbCircle
 10
412.9100509337864
 20
334.4350594227502
 30
0.0
 40
1.575
  0
LINE
  5
87
330
1F
100
AcDbEntity
  8
VISIBLE
100
AcDbLine
 10
364.7212228813681
 20
330.9350594227502
 30
0.0
 11
364.7212228813681
 21
323.6017260894169
 31
0.0
  0
LINE
  5
88
330
1F
100
AcDbEntity
  8
VISIBLE
100
AcDbLine
 10
370.7212228813682
 20
323.6017260894169
 30
0.0
 11
364.7212228813681
 21
323.6017260894169
 31
0.0
  0
LINE
  5
89
330
1F
100
AcDbEntity
  8
VISIBLE
100
AcDbLine
 10
370.7212228813682
 20
330.9350594227502
 30
0.0
 11
370.7212228813682
 21
323.6017260894169
 31
0.0
  0
LINE
  5
8A
330
1F
100
AcDbEntity
  8
VISIBLE
100
AcDbLine
 10
370.7212228813682
 20
330.9350594227502
 30
0.0
 11
364.7212228813681
 21
330.9350594227502
 31
0.0
  0
LINE
  5
8B
330
1F
100
AcDbEntity
  8
VISIBLE
100
AcDbLine
 10
364.7212228813681
 20
316.2683927560835
 30
0.0
 11
364.7212228813681
 21
308.9350594227502
 31
0.0
  0
LINE
  5
8C
330
1F
100
AcDbEntity
  8
VISIBLE
100
AcDbLine
 10
370.7212228813682
 20
308.9350594227502
 30
0.0
 11
364.7212228813681
 21
308.9350594227502
 31
0.0
  0
LINE
  5
8D
330
1F
100
AcDbEntity
  8
VISIBLE
100
AcDbLine
 10
370.7212228813682
 20
316.2683927560835
 30
0.0
 11
370.7212228813682
 21
308.9350594227502
 31
0.0
  0
LINE
  5
8E
330
1F
100
AcDbEntity
  8
VISIBLE
100
AcDbLine
 10
370.7212228813682
 20
316.2683927560835
 30
0.0
 11
364.7212228813681
 21
316.2683927560835
 31
0.0
  0
LINE
  5
8F
330
1F
100
AcDbEntity
  8
VISIBLE
100
AcDbLine
 10
353.2433842671197
 20
383.9350594227502
 30
0.0
 11
334.576717600453
 21
383.9350594227502
 31
0.0
  0
LINE
  5
90
330
1F
100
AcDbEntity
  8
VISIBLE
100
AcDbLine
 10
353.2433842671197
 20
383.9350594227502
 30
0.0
 11
353.2433842671197
 21
389.9350594227502
 31
0.0
  0
CIRCLE
  5
91
330
1F
100
AcDbEntity
  8
VISIBLE
100
AcDbCircle
 10
412.9100509337864
 20
376.4350594227502
 30
0.0
 40
1.575
  0
LINE
  5
92
330
1F
100
AcDbEntity
  8
VISIBLE
100
AcDbLine
 10
409.9100509337864
 20
302.9350594227502
 30
0.0
 11
391.1100509337865
 21
302.9350594227502
 31
0.0
  0
CIRCLE
  5
93
330
1F
100
AcDbEntity
  8
VISIBLE
100
AcDbCircle
 10
318.9100509337864
 20
355.4350594227502
 30
0.0
 40
1.575
  0
LINE
  5
94
330
1F
100
AcDbEntity
  8
VISIBLE
100
AcDbLine
 10
321.9100509337864
 20
365.9350594227502
 30
0.0
 11
321.9100509337864
 21
386.9350594227502
 31
0.0
  0
LINE
  5
95
330
1F
100
AcDbEntity
  8
VISIBLE
100
AcDbLine
 10
372.3100509337864
 20
407.9350594227502
 30
0.0
 11
353.5100509337864
 21
407.9350594227502
 31
0.0
  0
LINE
  5
96
330
1F
100
AcDbEntity
  8
VISIBLE
100
AcDbLine
 10
409.9100509337864
 20
407.9350594227502
 30
0.0
 11
391.1100509337865
 21
407.9350594227502
 31
0.0
  0
LINE
  5
97
330
1F
100
AcDbEntity
  8
VISIBLE
100
AcDbLine
 10
372.3100509337864
 20
302.9350594227502
 30
0.0
 11
353.5100509337864
 21
302.9350594227502
 31
0.0
  0
LINE
  5
98
330
1F
100
AcDbEntity
  8
VISIBLE
100
AcDbLine
 10
334.7100509337864
 20
302.9350594227502
 30
0.0
 11
315.9100509337864
 21
302.9350594227502
 31
0.0
  0
LINE
  5
99
330
1F
100
AcDbEntity
  8
VISIBLE
100
AcDbLine
 10
315.9100509337864
 20
365.9350594227502
 30
0.0
 11
315.9100509337864
 21
344.9350594227502
 31
0.0
  0
LINE
  5
9A
330
1F
100
AcDbEntity
  8
VISIBLE
100
AcDbLine
 10
315.9100509337864
 20
407.9350594227502
 30
0.0
 11
315.9100509337864
 21
386.9350594227502
 31
0.0
  0
LINE
  5
9B
330
1F
100
AcDbEntity
  8
VISIBLE
100
AcDbLine
 10
334.7100509337864
 20
302.9350594227502
 30
0.0
 11
334.7100509337864
 21
308.9350594227502
 31
0.0
  0
LINE
  5
9C
330
1F
100
AcDbEntity
  8
VISIBLE
100
AcDbLine
 10
353.5100509337864
 20
302.9350594227502
 30
0.0
 11
353.5100509337864
 21
308.9350594227502
 31
0.0
  0
LINE
  5
9D
330
1F
100
AcDbEntity
  8
VISIBLE
100
AcDbLine
 10
391.1100509337865
 20
308.9350594227502
 30
0.0
 11
372.3100509337864
 21
308.9350594227502
 31
0.0
  0
LINE
  5
9E
330
1F
100
AcDbEntity
  8
VISIBLE
100
AcDbLine
 10
372.3100509337864
 20
302.9350594227502
 30
0.0
 11
372.3100509337864
 21
308.9350594227502
 31
0.0
  0
LINE
  5
9F
330
1F
100
AcDbEntity
  8
VISIBLE
100
AcDbLine
 10
391.1100509337865
 20
302.9350594227502
 30
0.0
 11
391.1100509337865
 21
308.9350594227502
 31
0.0
  0
LINE
  5
A0
330
1F
100
AcDbEntity
  8
VISIBLE
100
AcDbLine
 10
372.3100509337864
 20
401.9350594227502
 30
0.0
 11
391.1100509337865
 21
401.9350594227502
 31
0.0
  0
LINE
  5
A1
330
1F
100
AcDbEntity
  8
VISIBLE
100
AcDbLine
 10
391.1100509337865
 20
407.9350594227502
 30
0.0
 11
391.1100509337865
 21
401.9350594227502
 31
0.0
  0
LINE
  5
A2
330
1F
100
AcDbEntity
  8
VISIBLE
100
AcDbLine
 10
372.3100509337864
 20
407.9350594227502
 30
0.0
 11
372.3100509337864
 21
401.9350594227502
 31
0.0
  0
LINE
  5
A3
330
1F
100
AcDbEntity
  8
VISIBLE
100
AcDbLine
 10
334.7100509337864
 20
401.9350594227502
 30
0.0
 11
353.5100509337864
 21
401.9350594227502
 31
0.0
  0
LINE
  5
A4
330
1F
100
AcDbEntity
  8
VISIBLE
100
AcDbLine
 10
353.5100509337864
 20
407.9350594227502
 30
0.0
 11
353.5100509337864
 21
401.9350594227502
 31
0.0
  0
LINE
  5
A5
330
1F
100
AcDbEntity
  8
VISIBLE
100
AcDbLine
 10
334.7100509337864
 20
407.9350594227502
 30
0.0
 11
334.7100509337864
 21
401.9350594227502
 31
0.0
  0
LINE
  5
A6
330
1F
100
AcDbEntity
  8
VISIBLE
100
AcDbLine
 10
334.576717600453
 20
383.9350594227502
 30
0.0
 11
334.576717600453
 21
389.9350594227502
 31
0.0
  0
LINE
  5
A7
330
1F
100
AcDbEntity
  8
VISIBLE
100
AcDbLine
 10
353.2433842671197
 20
389.9350594227502
 30
0.0
 11
334.576717600453
 21
389.9350594227502
 31
0.0
  0
LINE
  5
A8
330
1F
100
AcDbEntity
  8
VISIBLE
100
AcDbLine
 10
205.9100509337864
 20
373.9350594227502
 30
0.0
 11
205.9100509337864
 21
459.9350594227502
 31
0.0
  0
LINE
  5
A9
330
1F
100
AcDbEntity
  8
VISIBLE
100
AcDbLine
 10
205.9100509337864
 20
459.9350594227502
 30
0.0
 11
233.9100509337864
 21
459.9350594227502
 31
0.0
  0
LINE
  5
AA
330
1F
100
AcDbEntity
  8
VISIBLE
100
AcDbLine
 10
233.9100509337864
 20
453.9350594227502
 30
0.0
 11
233.9100509337864
 21
459.9350594227502
 31
0.0
  0
LINE
  5
AB
330
1F
100
AcDbEntity
  8
VISIBLE
100
AcDbLine
 10
233.9100509337864
 20
453.9350594227502
 30
0.0
 11
227.9100509337864
 21
453.9350594227502
 31
0.0
  0
LINE
  5
AC
330
1F
100
AcDbEntity
  8
VISIBLE
100
AcDbLine
 10
227.9100509337864
 20
453.9350594227502
 30
0.0
 11
227.9100509337864
 21
429.2683927560836
 31
0.0
  0
LINE
  5
AD
330
1F
100
AcDbEntity
  8
VISIBLE
100
AcDbLine
 10
233.9100509337864
 20
429.2683927560836
 30
0.0
 11
227.9100509337864
 21
429.2683927560836
 31
0.0
  0
LINE
  5
AE
330
1F
100
AcDbEntity
  8
VISIBLE
100
AcDbLine
 10
233.9100509337864
 20
404.6017260894169
 30
0.0
 11
233.9100509337864
 21
429.2683927560836
 31
0.0
  0
LINE
  5
AF
330
1F
100
AcDbEntity
  8
VISIBLE
100
AcDbLine
 10
233.9100509337864
 20
404.6017260894169
 30
0.0
 11
227.9100509337864
 21
404.6017260894169
 31
0.0
  0
LINE
  5
B0
330
1F
100
AcDbEntity
  8
VISIBLE
100
AcDbLine
 10
227.9100509337864
 20
404.6017260894169
 30
0.0
 11
227.9100509337864
 21
373.9350594227502
 31
0.0
  0
LINE
  5
B1
330
1F
100
AcDbEntity
  8
VISIBLE
100
AcDbLine
 10
220.576717600453
 20
373.9350594227502
 30
0.0
 11
227.9100509337864
 21
373.9350594227502
 31
0.0
  0
LINE
  5
B2
330
1F
100
AcDbEntity
  8
VISIBLE
100
AcDbLine
 10
220.576717600453
 20
373.9350594227502
 30
0.0
 11
220.576717600453
 21
379.9350594227502
 31
0.0
  0
LINE
  5
B3
330
1F
100
AcDbEntity
  8
VISIBLE
100
AcDbLine
 10
220.576717600453
 20
379.9350594227502
 30
0.0
 11
213.2433842671197
 21
379.9350594227502
 31
0.0
  0
LINE
  5
B4
330
1F
100
AcDbEntity
  8
VISIBLE
100
AcDbLine
 10
213.2433842671197
 20
373.9350594227502
 30
0.0
 11
213.2433842671197
 21
379.9350594227502
 31
0.0
  0
LINE
  5
B5
330
1F
100
AcDbEntity
  8
VISIBLE
100
AcDbLine
 10
205.9100509337864
 20
373.9350594227502
 30
0.0
 11
213.2433842671197
 21
373.9350594227502
 31
0.0
  0
CIRCLE
  5
B6
330
1F
100
AcDbEntity
  8
VISIBLE
100
AcDbCircle
 10
216.9100509337864
 20
419.9350594227502
 30
0.0
 40
1.599999999999997
  0
LINE
  5
B7
330
1F
100
AcDbEntity
  8
VISIBLE
100
AcDbLine
 10
242.9100509337864
 20
606.4350594227503
 30
0.0
 11
260.9100509337864
 21
606.4350594227503
 31
0.0
  0
LINE
  5
B8
330
1F
100
AcDbEntity
  8
VISIBLE
100
AcDbLine
 10
260.9100509337864
 20
577.9350594227502
 30
0.0
 11
260.9100509337864
 21
606.4350594227503
 31
0.0
  0
LINE
  5
B9
330
1F
100
AcDbEntity
  8
VISIBLE
100
AcDbLine
 10
260.9100509337864
 20
577.9350594227502
 30
0.0
 11
206.9100509337864
 21
577.9350594227502
 31
0.0
  0
LINE
  5
BA
330
1F
100
AcDbEntity
  8
VISIBLE
100
AcDbLine
 10
200.9100509337864
 20
589.4350594227503
 30
0.0
 11
200.9100509337864
 21
600.9350594227503
 31
0.0
  0
LINE
  5
BB
330
1F
100
AcDbEntity
  8
VISIBLE
100
AcDbLine
 10
200.9100509337864
 20
600.9350594227503
 30
0.0
 11
206.9100509337864
 21
600.9350594227503
 31
0.0
  0
LINE
  5
BC
330
1F
100
AcDbEntity
  8
VISIBLE
100
AcDbLine
 10
206.9100509337864
 20
600.9350594227503
 30
0.0
 11
206.9100509337864
 21
606.4350594227503
 31
0.0
  0
LINE
  5
BD
330
1F
100
AcDbEntity
  8
VISIBLE
100
AcDbLine
 10
206.9100509337864
 20
606.4350594227503
 30
0.0
 11
224.9100509337864
 21
606.4350594227503
 31
0.0
  0
LINE
  5
BE
330
1F
100
AcDbEntity
  8
VISIBLE
100
AcDbLine
 10
224.9100509337864
 20
612.4350594227503
 30
0.0
 11
224.9100509337864
 21
606.4350594227503
 31
0.0
  0
LINE
  5
BF
330
1F
100
AcDbEntity
  8
VISIBLE
100
AcDbLine
 10
242.9100509337864
 20
612.4350594227503
 30
0.0
 11
224.9100509337864
 21
612.4350594227503
 31
0.0
  0
LINE
  5
C0
330
1F
100
AcDbEntity
  8
VISIBLE
100
AcDbLine
 10
242.9100509337864
 20
612.4350594227503
 30
0.0
 11
242.9100509337864
 21
606.4350594227503
 31
0.0
  0
CIRCLE
  5
C1
330
1F
100
AcDbEntity
  8
VISIBLE
100
AcDbCircle
 10
251.2600509337863
 20
581.9350594227503
 30
0.0
 40
1.000000000000001
  0
CIRCLE
  5
C2
330
1F
100
AcDbEntity
  8
VISIBLE
100
AcDbCircle
 10
257.7600509337864
 20
581.9350594227503
 30
0.0
 40
1.000000000000001
  0
LINE
  5
C3
330
1F
100
AcDbEntity
  8
VISIBLE
100
AcDbLine
 10
200.9100509337864
 20
589.4350594227503
 30
0.0
 11
206.9100509337864
 21
589.4350594227503
 31
0.0
  0
LINE
  5
C4
330
1F
100
AcDbEntity
  8
VISIBLE
100
AcDbLine
 10
206.9100509337864
 20
577.9350594227502
 30
0.0
 11
206.9100509337864
 21
589.4350594227503
 31
0.0
  0
LINE
  5
C5
330
1F
100
AcDbEntity
  8
VISIBLE
100
AcDbLine
 10
137.9100509337864
 20
308.9350594227502
 30
0.0
 11
146.8350509337864
 21
308.9350594227502
 31
0.0
  0
LINE
  5
C6
330
1F
100
AcDbEntity
  8
VISIBLE
100
AcDbLine
 10
137.9100509337864
 20
308.9350594227502
 30
0.0
 11
137.9100509337864
 21
302.9350594227502
 31
0.0
  0
LINE
  5
C7
330
1F
100
AcDbEntity
  8
VISIBLE
100
AcDbLine
 10
137.9100509337864
 20
302.9350594227502
 30
0.0
 11
116.9100509337864
 21
302.9350594227502
 31
0.0
  0
LINE
  5
C8
330
1F
100
AcDbEntity
  8
VISIBLE
100
AcDbLine
 10
116.9100509337864
 20
308.9350594227502
 30
0.0
 11
116.9100509337864
 21
302.9350594227502
 31
0.0
  0
LINE
  5
C9
330
1F
100
AcDbEntity
  8
VISIBLE
100
AcDbLine
 10
101.9100509337864
 20
308.9350594227502
 30
0.0
 11
116.9100509337864
 21
308.9350594227502
 31
0.0
  0
LINE
  5
CA
330
1F
100
AcDbEntity
  8
VISIBLE
100
AcDbLine
 10
101.9100509337864
 20
325.3795038671947
 30
0.0
 11
101.9100509337864
 21
308.9350594227502
 31
0.0
  0
LINE
  5
CB
330
1F
100
AcDbEntity
  8
VISIBLE
100
AcDbLine
 10
101.9100509337864
 20
325.3795038671947
 30
0.0
 11
95.91005093378635
 21
325.3795038671947
 31
0.0
  0
LINE
  5
CC
330
1F
100
AcDbEntity
  8
VISIBLE
100
AcDbLine
 10
95.91005093378637
 20
341.8239483116391
 30
0.0
 11
95.91005093378635
 21
325.3795038671947
 31
0.0
  0
LINE
  5
CD
330
1F
100
AcDbEntity
  8
VISIBLE
100
AcDbLine
 10
101.9100509337864
 20
341.8239483116391
 30
0.0
 11
95.91005093378637
 21
341.8239483116391
 31
0.0
  0
LINE
  5
CE
330
1F
100
AcDbEntity
  8
VISIBLE
100
AcDbLine
 10
101.9100509337864
 20
348.4711705338613
 30
0.0
 11
101.9100509337864
 21
341.8239483116391
 31
0.0
  0
LINE
  5
CF
330
1F
100
AcDbEntity
  8
VISIBLE
100
AcDbLine
 10
107.5725509337864
 20
348.4711705338613
 30
0.0
 11
101.9100509337864
 21
348.4711705338613
 31
0.0
  0
LINE
  5
D0
330
1F
100
AcDbEntity
  8
VISIBLE
100
AcDbLine
 10
107.5725509337864
 20
347.2211705338613
 30
0.0
 11
107.5725509337864
 21
348.4711705338613
 31
0.0
  0
LINE
  5
D1
330
1F
100
AcDbEntity
  8
VISIBLE
100
AcDbLine
 10
110.1225509337864
 20
347.2211705338613
 30
0.0
 11
107.5725509337864
 21
347.2211705338613
 31
0.0
  0
LINE
  5
D2
330
1F
100
AcDbEntity
  8
VISIBLE
100
AcDbLine
 10
110.1225509337864
 20
347.2211705338613
 30
0.0
 11
110.1225509337864
 21
348.4711705338613
 31
0.0
  0
LINE
  5
D3
330
1F
100
AcDbEntity
  8
VISIBLE
100
AcDbLine
 10
111.0600509337864
 20
348.4711705338613
 30
0.0
 11
110.1225509337864
 21
348.4711705338613
 31
0.0
  0
LINE
  5
D4
330
1F
100
AcDbEntity
  8
VISIBLE
100
AcDbLine
 10
111.0600509337864
 20
348.4711705338613
 30
0.0
 11
111.0600509337864
 21
351.6211705338613
 31
0.0
  0
LINE
  5
D5
330
1F
100
AcDbEntity
  8
VISIBLE
100
AcDbLine
 10
111.0600509337864
 20
351.6211705338613
 30
0.0
 11
110.1225509337864
 21
351.6211705338613
 31
0.0
  0
LINE
  5
D6
330
1F
100
AcDbEntity
  8
VISIBLE
100
AcDbLine
 10
110.1225509337864
 20
351.6211705338613
 30
0.0
 11
110.1225509337864
 21
352.8711705338613
 31
0.0
  0
LINE
  5
D7
330
1F
100
AcDbEntity
  8
VISIBLE
100
AcDbLine
 10
110.1225509337864
 20
352.8711705338613
 30
0.0
 11
107.5725509337864
 21
352.8711705338613
 31
0.0
  0
LINE
  5
D8
330
1F
100
AcDbEntity
  8
VISIBLE
100
AcDbLine
 10
107.5725509337864
 20
351.6211705338613
 30
0.0
 11
107.5725509337864
 21
352.8711705338613
 31
0.0
  0
LINE
  5
D9
330
1F
100
AcDbEntity
  8
VISIBLE
100
AcDbLine
 10
107.5725509337864
 20
351.6211705338613
 30
0.0
 11
101.9100509337864
 21
351.6211705338613
 31
0.0
  0
LINE
  5
DA
330
1F
100
AcDbEntity
  8
VISIBLE
100
AcDbLine
 10
101.9100509337864
 20
358.2683927560836
 30
0.0
 11
101.9100509337864
 21
351.6211705338613
 31
0.0
  0
LINE
  5
DB
330
1F
100
AcDbEntity
  8
VISIBLE
100
AcDbLine
 10
101.9100509337864
 20
358.2683927560836
 30
0.0
 11
95.91005093378635
 21
358.2683927560836
 31
0.0
  0
LINE
  5
DC
330
1F
100
AcDbEntity
  8
VISIBLE
100
AcDbLine
 10
95.91005093378638
 20
374.712837200528
 30
0.0
 11
95.91005093378635
 21
358.2683927560836
 31
0.0
  0
LINE
  5
DD
330
1F
100
AcDbEntity
  8
VISIBLE
100
AcDbLine
 10
101.9100509337864
 20
374.712837200528
 30
0.0
 11
95.91005093378638
 21
374.712837200528
 31
0.0
  0
LINE
  5
DE
330
1F
100
AcDbEntity
  8
VISIBLE
100
AcDbLine
 10
101.9100509337864
 20
381.3600594227502
 30
0.0
 11
101.9100509337864
 21
374.712837200528
 31
0.0
  0
LINE
  5
DF
330
1F
100
AcDbEntity
  8
VISIBLE
100
AcDbLine
 10
107.5725509337864
 20
381.3600594227502
 30
0.0
 11
101.9100509337864
 21
381.3600594227502
 31
0.0
  0
LINE
  5
E0
330
1F
100
AcDbEntity
  8
VISIBLE
100
AcDbLine
 10
107.5725509337864
 20
380.1100594227502
 30
0.0
 11
107.5725509337864
 21
381.3600594227502
 31
0.0
  0
LINE
  5
E1
330
1F
100
AcDbEntity
  8
VISIBLE
100
AcDbLine
 10
110.1225509337864
 20
380.1100594227502
 30
0.0
 11
107.5725509337864
 21
380.1100594227502
 31
0.0
  0
LINE
  5
E2
330
1F
100
AcDbEntity
  8
VISIBLE
100
AcDbLine
 10
110.1225509337864
 20
380.1100594227502
 30
0.0
 11
110.1225509337864
 21
381.3600594227502
 31
0.0
  0
LINE
  5
E3
330
1F
100
AcDbEntity
  8
VISIBLE
100
AcDbLine
 10
111.0600509337864
 20
381.3600594227502
 30
0.0
 11
110.1225509337864
 21
381.3600594227502
 31
0.0
  0
LINE
  5
E4
330
1F
100
AcDbEntity
  8
VISIBLE
100
AcDbLine
 10
111.0600509337864
 20
381.3600594227502
 30
0.0
 11
111.0600509337864
 21
384.5100594227503
 31
0.0
  0
LINE
  5
E5
330
1F
100
AcDbEntity
  8
VISIBLE
100
AcDbLine
 10
111.0600509337864
 20
384.5100594227503
 30
0.0
 11
110.1225509337864
 21
384.5100594227503
 31
0.0
  0
LINE
  5
E6
330
1F
100
AcDbEntity
  8
VISIBLE
100
AcDbLine
 10
110.1225509337864
 20
384.5100594227503
 30
0.0
 11
110.1225509337864
 21
385.7600594227502
 31
0.0
  0
LINE
  5
E7
330
1F
100
AcDbEntity
  8
VISIBLE
100
AcDbLine
 10
110.1225509337864
 20
385.7600594227502
 30
0.0
 11
107.5725509337864
 21
385.7600594227502
 31
0.0
  0
LINE
  5
E8
330
1F
100
AcDbEntity
  8
VISIBLE
100
AcDbLine
 10
107.5725509337864
 20
384.5100594227503
 30
0.0
 11
107.5725509337864
 21
385.7600594227502
 31
0.0
  0
LINE
  5
E9
330
1F
100
AcDbEntity
  8
VISIBLE
100
AcDbLine
 10
107.5725509337864
 20
384.5100594227503
 30
0.0
 11
101.9100509337864
 21
384.5100594227503
 31
0.0
  0
LINE
  5
EA
330
1F
100
AcDbEntity
  8
VISIBLE
100
AcDbLine
 10
101.9100509337864
 20
391.1572816449724
 30
0.0
 11
101.9100509337864
 21
384.5100594227503
 31
0.0
  0
LINE
  5
EB
330
1F
100
AcDbEntity
  8
VISIBLE
100
AcDbLine
 10
101.9100509337864
 20
391.1572816449724
 30
0.0
 11
95.91005093378637
 21
391.1572816449724
 31
0.0
  0
LINE
  5
EC
330
1F
100
AcDbEntity
  8
VISIBLE
100
AcDbLine
 10
95.91005093378638
 20
407.6017260894168
 30
0.0
 11
95.91005093378637
 21
391.1572816449724
 31
0.0
  0
LINE
  5
ED
330
1F
100
AcDbEntity
  8
VISIBLE
100
AcDbLine
 10
101.9100509337864
 20
407.6017260894168
 30
0.0
 11
95.91005093378638
 21
407.6017260894168
 31
0.0
  0
LINE
  5
EE
330
1F
100
AcDbEntity
  8
VISIBLE
100
AcDbLine
 10
101.9100509337864
 20
414.2489483116391
 30
0.0
 11
101.9100509337864
 21
407.6017260894168
 31
0.0
  0
LINE
  5
EF
330
1F
100
AcDbEntity
  8
VISIBLE
100
AcDbLine
 10
107.5725509337864
 20
414.2489483116391
 30
0.0
 11
101.9100509337864
 21
414.2489483116391
 31
0.0
  0
LINE
  5
F0
330
1F
100
AcDbEntity
  8
VISIBLE
100
AcDbLine
 10
107.5725509337864
 20
412.9989483116391
 30
0.0
 11
107.5725509337864
 21
414.2489483116391
 31
0.0
  0
LINE
  5
F1
330
1F
100
AcDbEntity
  8
VISIBLE
100
AcDbLine
 10
110.1225509337864
 20
412.9989483116391
 30
0.0
 11
107.5725509337864
 21
412.9989483116391
 31
0.0
  0
LINE
  5
F2
330
1F
100
AcDbEntity
  8
VISIBLE
100
AcDbLine
 10
110.1225509337864
 20
412.9989483116391
 30
0.0
 11
110.1225509337864
 21
414.2489483116391
 31
0.0
  0
LINE
  5
F3
330
1F
100
AcDbEntity
  8
VISIBLE
100
AcDbLine
 10
111.0600509337864
 20
414.2489483116391
 30
0.0
 11
110.1225509337864
 21
414.2489483116391
 31
0.0
  0
LINE
  5
F4
330
1F
100
AcDbEntity
  8
VISIBLE
100
AcDbLine
 10
111.0600509337864
 20
414.2489483116391
 30
0.0
 11
111.0600509337864
 21
417.3989483116391
 31
0.0
  0
LINE
  5
F5
330
1F
100
AcDbEntity
  8
VISIBLE
100
AcDbLine
 10
111.0600509337864
 20
417.3989483116391
 30
0.0
 11
110.1225509337864
 21
417.3989483116391
 31
0.0
  0
LINE
  5
F6
330
1F
100
AcDbEntity
  8
VISIBLE
100
AcDbLine
 10
110.1225509337864
 20
417.3989483116391
 30
0.0
 11
110.1225509337864
 21
418.6489483116391
 31
0.0
  0
LINE
  5
F7
330
1F
100
AcDbEntity
  8
VISIBLE
100
AcDbLine
 10
110.1225509337864
 20
418.6489483116391
 30
0.0
 11
107.5725509337864
 21
418.6489483116391
 31
0.0
  0
LINE
  5
F8
330
1F
100
AcDbEntity
  8
VISIBLE
100
AcDbLine
 10
107.5725509337864
 20
417.3989483116391
 30
0.0
 11
107.5725509337864
 21
418.6489483116391
 31
0.0
  0
LINE
  5
F9
330
1F
100
AcDbEntity
  8
VISIBLE
100
AcDbLine
 10
107.5725509337864
 20
417.3989483116391
 30
0.0
 11
101.9100509337864
 21
417.3989483116391
 31
0.0
  0
LINE
  5
FA
330
1F
100
AcDbEntity
  8
VISIBLE
100
AcDbLine
 10
101.9100509337864
 20
424.0461705338613
 30
0.0
 11
101.9100509337864
 21
417.3989483116391
 31
0.0
  0
LINE
  5
FB
330
1F
100
AcDbEntity
  8
VISIBLE
100
AcDbLine
 10
101.9100509337864
 20
424.0461705338613
 30
0.0
 11
95.91005093378637
 21
424.0461705338613
 31
0.0
  0
LINE
  5
FC
330
1F
100
AcDbEntity
  8
VISIBLE
100
AcDbLine
 10
95.91005093378638
 20
440.4906149783058
 30
0.0
 11
95.91005093378637
 21
424.0461705338613
 31
0.0
  0
LINE
  5
FD
330
1F
100
AcDbEntity
  8
VISIBLE
100
AcDbLine
 10
101.9100509337864
 20
440.4906149783058
 30
0.0
 11
95.91005093378638
 21
440.4906149783058
 31
0.0
  0
LINE
  5
FE
330
1F
100
AcDbEntity
  8
VISIBLE
100
AcDbLine
 10
101.9100509337864
 20
456.9350594227502
 30
0.0
 11
101.9100509337864
 21
440.4906149783058
 31
0.0
  0
LINE
  5
FF
330
1F
100
AcDbEntity
  8
VISIBLE
100
AcDbLine
 10
116.9100509337864
 20
456.9350594227502
 30
0.0
 11
116.9100509337864
 21
462.9350594227502
 31
0.0
  0
LINE
  5
100
330
1F
100
AcDbEntity
  8
VISIBLE
100
AcDbLine
 10
137.9100509337864
 20
462.9350594227502
 30
0.0
 11
116.9100509337864
 21
462.9350594227502
 31
0.0
  0
LINE
  5
101
330
1F
100
AcDbEntity
  8
VISIBLE
100
AcDbLine
 10
137.9100509337864
 20
456.9350594227502
 30
0.0
 11
137.9100509337864
 21
462.9350594227502
 31
0.0
  0
LINE
  5
102
330
1F
100
AcDbEntity
  8
VISIBLE
100
AcDbLine
 10
146.8350509337864
 20
456.9350594227502
 30
0.0
 11
137.9100509337864
 21
456.9350594227502
 31
0.0
  0
LINE
  5
103
330
1F
100
AcDbEntity
  8
VISIBLE
100
AcDbLine
 10
146.8350509337864
 20
451.2725594227502
 30
0.0
 11
146.8350509337864
 21
456.9350594227502
 31
0.0
  0
LINE
  5
104
330
1F
100
AcDbEntity
  8
VISIBLE
100
AcDbLine
 10
145.5850509337864
 20
451.2725594227502
 30
0.0
 11
146.8350509337864
 21
451.2725594227502
 31
0.0
  0
LINE
  5
105
330
1F
100
AcDbEntity
  8
VISIBLE
100
AcDbLine
 10
145.5850509337864
 20
448.7225594227502
 30
0.0
 11
145.5850509337864
 21
451.2725594227502
 31
0.0
  0
LINE
  5
106
330
1F
100
AcDbEntity
  8
VISIBLE
100
AcDbLine
 10
145.5850509337864
 20
448.7225594227502
 30
0.0
 11
146.8350509337864
 21
448.7225594227502
 31
0.0
  0
LINE
  5
107
330
1F
100
AcDbEntity
  8
VISIBLE
100
AcDbLine
 10
146.8350509337864
 20
447.7850594227502
 30
0.0
 11
146.8350509337864
 21
448.7225594227502
 31
0.0
  0
LINE
  5
108
330
1F
100
AcDbEntity
  8
VISIBLE
100
AcDbLine
 10
146.8350509337864
 20
447.7850594227502
 30
0.0
 11
149.9850509337864
 21
447.7850594227502
 31
0.0
  0
LINE
  5
109
330
1F
100
AcDbEntity
  8
VISIBLE
100
AcDbLine
 10
149.9850509337864
 20
447.7850594227502
 30
0.0
 11
149.9850509337864
 21
448.7225594227502
 31
0.0
  0
LINE
  5
10A
330
1F
100
AcDbEntity
  8
VISIBLE
100
AcDbLine
 10
149.9850509337864
 20
448.7225594227502
 30
0.0
 11
151.2350509337864
 21
448.7225594227502
 31
0.0
  0
LINE
  5
10B
330
1F
100
AcDbEntity
  8
VISIBLE
100
AcDbLine
 10
151.2350509337864
 20
448.7225594227502
 30
0.0
 11
151.2350509337864
 21
451.2725594227502
 31
0.0
  0
LINE
  5
10C
330
1F
100
AcDbEntity
  8
VISIBLE
100
AcDbLine
 10
149.9850509337864
 20
451.2725594227502
 30
0.0
 11
151.2350509337864
 21
451.2725594227502
 31
0.0
  0
LINE
  5
10D
330
1F
100
AcDbEntity
  8
VISIBLE
100
AcDbLine
 10
149.9850509337864
 20
451.2725594227502
 30
0.0
 11
149.9850509337864
 21
456.9350594227502
 31
0.0
  0
LINE
  5
10E
330
1F
100
AcDbEntity
  8
VISIBLE
100
AcDbLine
 10
158.9100509337864
 20
456.9350594227502
 30
0.0
 11
149.9850509337864
 21
456.9350594227502
 31
0.0
  0
LINE
  5
10F
330
1F
100
AcDbEntity
  8
VISIBLE
100
AcDbLine
 10
158.9100509337864
 20
456.9350594227502
 30
0.0
 11
158.9100509337864
 21
462.9350594227502
 31
0.0
  0
LINE
  5
110
330
1F
100
AcDbEntity
  8
VISIBLE
100
AcDbLine
 10
179.9100509337864
 20
462.9350594227502
 30
0.0
 11
158.9100509337864
 21
462.9350594227502
 31
0.0
  0
LINE
  5
111
330
1F
100
AcDbEntity
  8
VISIBLE
100
AcDbLine
 10
179.9100509337864
 20
456.9350594227502
 30
0.0
 11
179.9100509337864
 21
462.9350594227502
 31
0.0
  0
LINE
  5
112
330
1F
100
AcDbEntity
  8
VISIBLE
100
AcDbLine
 10
194.9100509337864
 20
456.9350594227502
 30
0.0
 11
179.9100509337864
 21
456.9350594227502
 31
0.0
  0
LINE
  5
113
330
1F
100
AcDbEntity
  8
VISIBLE
100
AcDbLine
 10
194.9100509337864
 20
440.4906149783058
 30
0.0
 11
194.9100509337864
 21
456.9350594227502
 31
0.0
  0
LINE
  5
114
330
1F
100
AcDbEntity
  8
VISIBLE
100
AcDbLine
 10
194.9100509337864
 20
440.4906149783058
 30
0.0
 11
200.9100509337864
 21
440.4906149783058
 31
0.0
  0
LINE
  5
115
330
1F
100
AcDbEntity
  8
VISIBLE
100
AcDbLine
 10
194.9100509337864
 20
424.0461705338613
 30
0.0
 11
200.9100509337864
 21
424.0461705338613
 31
0.0
  0
LINE
  5
116
330
1F
100
AcDbEntity
  8
VISIBLE
100
AcDbLine
 10
194.9100509337864
 20
417.3989483116391
 30
0.0
 11
194.9100509337864
 21
424.0461705338613
 31
0.0
  0
LINE
  5
117
330
1F
100
AcDbEntity
  8
VISIBLE
100
AcDbLine
 10
189.2475509337864
 20
417.3989483116391
 30
0.0
 11
194.9100509337864
 21
417.3989483116391
 31
0.0
  0
LINE
  5
118
330
1F
100
AcDbEntity
  8
VISIBLE
100
AcDbLine
 10
189.2475509337864
 20
418.6489483116391
 30
0.0
 11
189.2475509337864
 21
417.3989483116391
 31
0.0
  0
LINE
  5
119
330
1F
100
AcDbEntity
  8
VISIBLE
100
AcDbLine
 10
186.6975509337864
 20
418.6489483116391
 30
0.0
 11
189.2475509337864
 21
418.6489483116391
 31
0.0
  0
LINE
  5
11A
330
1F
100
AcDbEntity
  8
VISIBLE
100
AcDbLine
 10
186.6975509337864
 20
418.6489483116391
 30
0.0
 11
186.6975509337864
 21
417.3989483116391
 31
0.0
  0
LINE
  5
11B
330
1F
100
AcDbEntity
  8
VISIBLE
100
AcDbLine
 10
185.7600509337864
 20
417.3989483116391
 30
0.0
 11
186.6975509337864
 21
417.3989483116391
 31
0.0
  0
LINE
  5
11C
330
1F
100
AcDbEntity
  8
VISIBLE
100
AcDbLine
 10
185.7600509337864
 20
417.3989483116391
 30
0.0
 11
185.7600509337864
 21
414.2489483116391
 31
0.0
  0
LINE
  5
11D
330
1F
100
AcDbEntity
  8
VISIBLE
100
AcDbLine
 10
185.7600509337864
 20
414.2489483116391
 30
0.0
 11
186.6975509337864
 21
414.2489483116391
 31
0.0
  0
LINE
  5
11E
330
1F
100
AcDbEntity
  8
VISIBLE
100
AcDbLine
 10
186.6975509337864
 20
414.2489483116391
 30
0.0
 11
186.6975509337864
 21
412.9989483116391
 31
0.0
  0
LINE
  5
11F
330
1F
100
AcDbEntity
  8
VISIBLE
100
AcDbLine
 10
186.6975509337864
 20
412.9989483116391
 30
0.0
 11
189.2475509337864
 21
412.9989483116391
 31
0.0
  0
LINE
  5
120
330
1F
100
AcDbEntity
  8
VISIBLE
100
AcDbLine
 10
189.2475509337864
 20
414.2489483116391
 30
0.0
 11
189.2475509337864
 21
412.9989483116391
 31
0.0
  0
LINE
  5
121
330
1F
100
AcDbEntity
  8
VISIBLE
100
AcDbLine
 10
189.2475509337864
 20
414.2489483116391
 30
0.0
 11
194.9100509337864
 21
414.2489483116391
 31
0.0
  0
LINE
  5
122
330
1F
100
AcDbEntity
  8
VISIBLE
100
AcDbLine
 10
194.9100509337864
 20
407.6017260894168
 30
0.0
 11
194.9100509337864
 21
414.2489483116391
 31
0.0
  0
LINE
  5
123
330
1F
100
AcDbEntity
  8
VISIBLE
100
AcDbLine
 10
194.9100509337864
 20
407.6017260894168
 30
0.0
 11
200.9100509337864
 21
407.6017260894168
 31
0.0
  0
LINE
  5
124
330
1F
100
AcDbEntity
  8
VISIBLE
100
AcDbLine
 10
200.9100509337864
 20
407.6017260894168
 30
0.0
 11
200.9100509337864
 21
391.1572816449724
 31
0.0
  0
LINE
  5
125
330
1F
100
AcDbEntity
  8
VISIBLE
100
AcDbLine
 10
194.9100509337864
 20
391.1572816449724
 30
0.0
 11
200.9100509337864
 21
391.1572816449724
 31
0.0
  0
LINE
  5
126
330
1F
100
AcDbEntity
  8
VISIBLE
100
AcDbLine
 10
194.9100509337864
 20
384.5100594227502
 30
0.0
 11
194.9100509337864
 21
391.1572816449724
 31
0.0
  0
LINE
  5
127
330
1F
100
AcDbEntity
  8
VISIBLE
100
AcDbLine
 10
189.2475509337864
 20
384.5100594227502
 30
0.0
 11
194.9100509337864
 21
384.5100594227502
 31
0.0
  0
LINE
  5
128
330
1F
100
AcDbEntity
  8
VISIBLE
100
AcDbLine
 10
189.2475509337864
 20
385.7600594227502
 30
0.0
 11
189.2475509337864
 21
384.5100594227502
 31
0.0
  0
LINE
  5
129
330
1F
100
AcDbEntity
  8
VISIBLE
100
AcDbLine
 10
186.6975509337863
 20
385.7600594227502
 30
0.0
 11
189.2475509337864
 21
385.7600594227502
 31
0.0
  0
LINE
  5
12A
330
1F
100
AcDbEntity
  8
VISIBLE
100
AcDbLine
 10
186.6975509337863
 20
385.7600594227502
 30
0.0
 11
186.6975509337863
 21
384.5100594227502
 31
0.0
  0
LINE
  5
12B
330
1F
100
AcDbEntity
  8
VISIBLE
100
AcDbLine
 10
185.7600509337864
 20
384.5100594227502
 30
0.0
 11
186.6975509337863
 21
384.5100594227502
 31
0.0
  0
LINE
  5
12C
330
1F
100
AcDbEntity
  8
VISIBLE
100
AcDbLine
 10
185.7600509337864
 20
384.5100594227502
 30
0.0
 11
185.7600509337864
 21
381.3600594227502
 31
0.0
  0
LINE
  5
12D
330
1F
100
AcDbEntity
  8
VISIBLE
100
AcDbLine
 10
185.7600509337864
 20
381.3600594227502
 30
0.0
 11
186.6975509337863
 21
381.3600594227502
 31
0.0
  0
LINE
  5
12E
330
1F
100
AcDbEntity
  8
VISIBLE
100
AcDbLine
 10
186.6975509337863
 20
381.3600594227502
 30
0.0
 11
186.6975509337863
 21
380.1100594227502
 31
0.0
  0
LINE
  5
12F
330
1F
100
AcDbEntity
  8
VISIBLE
100
AcDbLine
 10
186.6975509337863
 20
380.1100594227502
 30
0.0
 11
189.2475509337864
 21
380.1100594227502
 31
0.0
  0
LINE
  5
130
330
1F
100
AcDbEntity
  8
VISIBLE
100
AcDbLine
 10
189.2475509337864
 20
381.3600594227502
 30
0.0
 11
189.2475509337864
 21
380.1100594227502
 31
0.0
  0
LINE
  5
131
330
1F
100
AcDbEntity
  8
VISIBLE
100
AcDbLine
 10
189.2475509337864
 20
381.3600594227502
 30
0.0
 11
194.9100509337864
 21
381.3600594227502
 31
0.0
  0
LINE
  5
132
330
1F
100
AcDbEntity
  8
VISIBLE
100
AcDbLine
 10
194.9100509337864
 20
374.712837200528
 30
0.0
 11
194.9100509337864
 21
381.3600594227502
 31
0.0
  0
LINE
  5
133
330
1F
100
AcDbEntity
  8
VISIBLE
100
AcDbLine
 10
194.9100509337864
 20
374.712837200528
 30
0.0
 11
200.9100509337864
 21
374.712837200528
 31
0.0
  0
LINE
  5
134
330
1F
100
AcDbEntity
  8
VISIBLE
100
AcDbLine
 10
200.9100509337864
 20
374.712837200528
 30
0.0
 11
200.9100509337864
 21
358.2683927560835
 31
0.0
  0
LINE
  5
135
330
1F
100
AcDbEntity
  8
VISIBLE
100
AcDbLine
 10
194.9100509337864
 20
358.2683927560835
 30
0.0
 11
200.9100509337864
 21
358.2683927560835
 31
0.0
  0
LINE
  5
136
330
1F
100
AcDbEntity
  8
VISIBLE
100
AcDbLine
 10
194.9100509337864
 20
351.6211705338613
 30
0.0
 11
194.9100509337864
 21
358.2683927560835
 31
0.0
  0
LINE
  5
137
330
1F
100
AcDbEntity
  8
VISIBLE
100
AcDbLine
 10
189.2475509337863
 20
351.6211705338613
 30
0.0
 11
194.9100509337864
 21
351.6211705338613
 31
0.0
  0
LINE
  5
138
330
1F
100
AcDbEntity
  8
VISIBLE
100
AcDbLine
 10
189.2475509337863
 20
352.8711705338613
 30
0.0
 11
189.2475509337863
 21
351.6211705338613
 31
0.0
  0
LINE
  5
139
330
1F
100
AcDbEntity
  8
VISIBLE
100
AcDbLine
 10
186.6975509337863
 20
352.8711705338613
 30
0.0
 11
189.2475509337863
 21
352.8711705338613
 31
0.0
  0
LINE
  5
13A
330
1F
100
AcDbEntity
  8
VISIBLE
100
AcDbLine
 10
186.6975509337863
 20
352.8711705338613
 30
0.0
 11
186.6975509337863
 21
351.6211705338613
 31
0.0
  0
LINE
  5
13B
330
1F
100
AcDbEntity
  8
VISIBLE
100
AcDbLine
 10
185.7600509337864
 20
351.6211705338613
 30
0.0
 11
186.6975509337863
 21
351.6211705338613
 31
0.0
  0
LINE
  5
13C
330
1F
100
AcDbEntity
  8
VISIBLE
100
AcDbLine
 10
185.7600509337864
 20
351.6211705338613
 30
0.0
 11
185.7600509337864
 21
348.4711705338613
 31
0.0
  0
LINE
  5
13D
330
1F
100
AcDbEntity
  8
VISIBLE
100
AcDbLine
 10
185.7600509337864
 20
348.4711705338613
 30
0.0
 11
186.6975509337863
 21
348.4711705338613
 31
0.0
  0
LINE
  5
13E
330
1F
100
AcDbEntity
  8
VISIBLE
100
AcDbLine
 10
186.6975509337863
 20
348.4711705338613
 30
0.0
 11
186.6975509337863
 21
347.2211705338613
 31
0.0
  0
LINE
  5
13F
330
1F
100
AcDbEntity
  8
VISIBLE
100
AcDbLine
 10
186.6975509337863
 20
347.2211705338613
 30
0.0
 11
189.2475509337863
 21
347.2211705338613
 31
0.0
  0
LINE
  5
140
330
1F
100
AcDbEntity
  8
VISIBLE
100
AcDbLine
 10
189.2475509337863
 20
348.4711705338613
 30
0.0
 11
189.2475509337863
 21
347.2211705338613
 31
0.0
  0
LINE
  5
141
330
1F
100
AcDbEntity
  8
VISIBLE
100
AcDbLine
 10
189.2475509337863
 20
348.4711705338613
 30
0.0
 11
194.9100509337864
 21
348.4711705338613
 31
0.0
  0
LINE
  5
142
330
1F
100
AcDbEntity
  8
VISIBLE
100
AcDbLine
 10
194.9100509337864
 20
341.8239483116391
 30
0.0
 11
194.9100509337864
 21
348.4711705338613
 31
0.0
  0
LINE
  5
143
330
1F
100
AcDbEntity
  8
VISIBLE
100
AcDbLine
 10
194.9100509337864
 20
341.8239483116391
 30
0.0
 11
200.9100509337864
 21
341.8239483116391
 31
0.0
  0
LINE
  5
144
330
1F
100
AcDbEntity
  8
VISIBLE
100
AcDbLine
 10
200.9100509337864
 20
341.8239483116391
 30
0.0
 11
200.9100509337864
 21
325.3795038671947
 31
0.0
  0
LINE
  5
145
330
1F
100
AcDbEntity
  8
VISIBLE
100
AcDbLine
 10
194.9100509337864
 20
325.3795038671947
 30
0.0
 11
200.9100509337864
 21
325.3795038671947
 31
0.0
  0
LINE
  5
146
330
1F
100
AcDbEntity
  8
VISIBLE
100
AcDbLine
 10
194.9100509337864
 20
308.9350594227502
 30
0.0
 11
194.9100509337864
 21
325.3795038671947
 31
0.0
  0
LINE
  5
147
330
1F
100
AcDbEntity
  8
VISIBLE
100
AcDbLine
 10
179.9100509337864
 20
308.9350594227502
 30
0.0
 11
194.9100509337864
 21
308.9350594227502
 31
0.0
  0
LINE
  5
148
330
1F
100
AcDbEntity
  8
VISIBLE
100
AcDbLine
 10
179.9100509337864
 20
308.9350594227502
 30
0.0
 11
179.9100509337864
 21
302.9350594227502
 31
0.0
  0
LINE
  5
149
330
1F
100
AcDbEntity
  8
VISIBLE
100
AcDbLine
 10
179.9100509337864
 20
302.9350594227502
 30
0.0
 11
158.9100509337864
 21
302.9350594227502
 31
0.0
  0
LINE
  5
14A
330
1F
100
AcDbEntity
  8
VISIBLE
100
AcDbLine
 10
158.9100509337864
 20
308.9350594227502
 30
0.0
 11
158.9100509337864
 21
302.9350594227502
 31
0.0
  0
LINE
  5
14B
330
1F
100
AcDbEntity
  8
VISIBLE
100
AcDbLine
 10
149.9850509337863
 20
308.9350594227502
 30
0.0
 11
158.9100509337864
 21
308.9350594227502
 31
0.0
  0
LINE
  5
14C
330
1F
100
AcDbEntity
  8
VISIBLE
100
AcDbLine
 10
149.9850509337863
 20
314.5975594227502
 30
0.0
 11
149.9850509337863
 21
308.9350594227502
 31
0.0
  0
LINE
  5
14D
330
1F
100
AcDbEntity
  8
VISIBLE
100
AcDbLine
 10
151.2350509337863
 20
314.5975594227502
 30
0.0
 11
149.9850509337863
 21
314.5975594227502
 31
0.0
  0
LINE
  5
14E
330
1F
100
AcDbEntity
  8
VISIBLE
100
AcDbLine
 10
151.2350509337863
 20
317.1475594227502
 30
0.0
 11
151.2350509337863
 21
314.5975594227502
 31
0.0
  0
LINE
  5
14F
330
1F
100
AcDbEntity
  8
VISIBLE
100
AcDbLine
 10
151.2350509337863
 20
317.1475594227502
 30
0.0
 11
149.9850509337863
 21
317.1475594227502
 31
0.0
  0
LINE
  5
150
330
1F
100
AcDbEntity
  8
VISIBLE
100
AcDbLine
 10
149.9850509337863
 20
318.0850594227502
 30
0.0
 11
149.9850509337863
 21
317.1475594227502
 31
0.0
  0
LINE
  5
151
330
1F
100
AcDbEntity
  8
VISIBLE
100
AcDbLine
 10
149.9850509337863
 20
318.0850594227502
 30
0.0
 11
146.8350509337864
 21
318.0850594227502
 31
0.0
  0
LINE
  5
152
330
1F
100
AcDbEntity
  8
VISIBLE
100
AcDbLine
 10
146.8350509337864
 20
318.0850594227502
 30
0.0
 11
146.8350509337864
 21
317.1475594227502
 31
0.0
  0
LINE
  5
153
330
1F
100
AcDbEntity
  8
VISIBLE
100
AcDbLine
 10
146.8350509337864
 20
317.1475594227502
 30
0.0
 11
145.5850509337864
 21
317.1475594227502
 31
0.0
  0
LINE
  5
154
330
1F
100
AcDbEntity
  8
VISIBLE
100
AcDbLine
 10
145.5850509337864
 20
317.1475594227502
 30
0.0
 11
145.5850509337864
 21
314.5975594227502
 31
0.0
  0
LINE
  5
155
330
1F
100
AcDbEntity
  8
VISIBLE
100
AcDbLine
 10
146.8350509337864
 20
314.5975594227502
 30
0.0
 11
145.5850509337864
 21
314.5975594227502
 31
0.0
  0
LINE
  5
156
330
1F
100
AcDbEntity
  8
VISIBLE
100
AcDbLine
 10
146.8350509337864
 20
314.5975594227502
 30
0.0
 11
146.8350509337864
 21
308.9350594227502
 31
0.0
  0
LINE
  5
157
330
1F
100
AcDbEntity
  8
VISIBLE
100
AcDbLine
 10
182.9100509337864
 20
328.9350594227502
 30
0.0
 11
182.9100509337864
 21
348.9350594227502
 31
0.0
  0
LINE
  5
158
330
1F
100
AcDbEntity
  8
VISIBLE
100
AcDbLine
 10
176.9100509337864
 20
348.9350594227502
 30
0.0
 11
182.9100509337864
 21
348.9350594227502
 31
0.0
  0
LINE
  5
159
330
1F
100
AcDbEntity
  8
VISIBLE
100
AcDbLine
 10
176.9100509337864
 20
328.9350594227502
 30
0.0
 11
176.9100509337864
 21
348.9350594227502
 31
0.0
  0
LINE
  5
15A
330
1F
100
AcDbEntity
  8
VISIBLE
100
AcDbLine
 10
176.9100509337864
 20
328.9350594227502
 30
0.0
 11
182.9100509337864
 21
328.9350594227502
 31
0.0
  0
LINE
  5
15B
330
1F
100
AcDbEntity
  8
VISIBLE
100
AcDbLine
 10
140.9100509337864
 20
438.9350594227502
 30
0.0
 11
140.9100509337864
 21
420.9350594227502
 31
0.0
  0
LINE
  5
15C
330
1F
100
AcDbEntity
  8
VISIBLE
100
AcDbLine
 10
146.9100509337864
 20
420.9350594227502
 30
0.0
 11
140.9100509337864
 21
420.9350594227502
 31
0.0
  0
LINE
  5
15D
330
1F
100
AcDbEntity
  8
VISIBLE
100
AcDbLine
 10
146.9100509337864
 20
438.9350594227502
 30
0.0
 11
146.9100509337864
 21
420.9350594227502
 31
0.0
  0
LINE
  5
15E
330
1F
100
AcDbEntity
  8
VISIBLE
100
AcDbLine
 10
146.9100509337864
 20
438.9350594227502
 30
0.0
 11
140.9100509337864
 21
438.9350594227502
 31
0.0
  0
LINE
  5
15F
330
1F
100
AcDbEntity
  8
VISIBLE
100
AcDbLine
 10
116.9100509337864
 20
456.9350594227502
 30
0.0
 11
101.9100509337864
 21
456.9350594227502
 31
0.0
  0
LINE
  5
160
330
1F
100
AcDbEntity
  8
VISIBLE
100
AcDbLine
 10
200.9100509337864
 20
440.4906149783058
 30
0.0
 11
200.9100509337864
 21
424.0461705338613
 31
0.0
  0
LINE
  5
161
330
1F
100
AcDbEntity
  8
VISIBLE
100
AcDbLine
 10
211.9100509337864
 20
348.9350594227502
 30
0.0
 11
211.9100509337864
 21
368.9350594227502
 31
0.0
  0
LINE
  5
162
330
1F
100
AcDbEntity
  8
VISIBLE
100
AcDbLine
 10
261.9100509337864
 20
368.9350594227502
 30
0.0
 11
261.9100509337864
 21
308.9350594227502
 31
0.0
  0
LINE
  5
163
330
1F
100
AcDbEntity
  8
VISIBLE
100
AcDbLine
 10
261.9100509337864
 20
308.9350594227502
 30
0.0
 11
243.2433842671197
 21
308.9350594227502
 31
0.0
  0
LINE
  5
164
330
1F
100
AcDbEntity
  8
VISIBLE
100
AcDbLine
 10
243.2433842671197
 20
302.9350594227502
 30
0.0
 11
243.2433842671197
 21
308.9350594227502
 31
0.0
  0
LINE
  5
165
330
1F
100
AcDbEntity
  8
VISIBLE
100
AcDbLine
 10
224.576717600453
 20
302.9350594227502
 30
0.0
 11
243.2433842671197
 21
302.9350594227502
 31
0.0
  0
LINE
  5
166
330
1F
100
AcDbEntity
  8
VISIBLE
100
AcDbLine
 10
224.576717600453
 20
302.9350594227502
 30
0.0
 11
224.576717600453
 21
308.9350594227502
 31
0.0
  0
LINE
  5
167
330
1F
100
AcDbEntity
  8
VISIBLE
100
AcDbLine
 10
211.9100509337864
 20
308.9350594227502
 30
0.0
 11
211.9100509337864
 21
328.9350594227502
 31
0.0
  0
LINE
  5
168
330
1F
100
AcDbEntity
  8
VISIBLE
100
AcDbLine
 10
205.9100509337864
 20
328.9350594227502
 30
0.0
 11
211.9100509337864
 21
328.9350594227502
 31
0.0
  0
LINE
  5
169
330
1F
100
AcDbEntity
  8
VISIBLE
100
AcDbLine
 10
205.9100509337864
 20
348.9350594227502
 30
0.0
 11
205.9100509337864
 21
328.9350594227502
 31
0.0
  0
CIRCLE
  5
16A
330
1F
100
AcDbEntity
  8
VISIBLE
100
AcDbCircle
 10
238.3846727431217
 20
364.1354796544895
 30
0.0
 40
1.620186062031251
  0
CIRCLE
  5
16B
330
1F
100
AcDbEntity
  8
VISIBLE
100
AcDbCircle
 10
255.8846727431217
 20
364.1354796544895
 30
0.0
 40
1.600000000000001
  0
LINE
  5
16C
330
1F
100
AcDbEntity
  8
VISIBLE
100
AcDbLine
 10
211.9100509337864
 20
368.9350594227502
 30
0.0
 11
261.9100509337864
 21
368.9350594227502
 31
0.0
  0
LINE
  5
16D
330
1F
100
AcDbEntity
  8
VISIBLE
100
AcDbLine
 10
224.576717600453
 20
308.9350594227502
 30
0.0
 11
211.9100509337864
 21
308.9350594227502
 31
0.0
  0
LINE
  5
16E
330
1F
100
AcDbEntity
  8
VISIBLE
100
AcDbLine
 10
205.9100509337864
 20
348.9350594227502
 30
0.0
 11
211.9100509337864
 21
348.9350594227502
 31
0.0
  0
LINE
  5
16F
330
1F
100
AcDbEntity
  8
VISIBLE
100
AcDbLine
 10
189.9100509337864
 20
572.6017260894168
 30
0.0
 11
189.9100509337864
 21
556.1572816449724
 31
0.0
  0
LINE
  5
170
330
1F
100
AcDbEntity
  8
VISIBLE
100
AcDbLine
 10
195.9100509337864
 20
556.1572816449724
 30
0.0
 11
189.9100509337864
 21
556.1572816449724
 31
0.0
  0
LINE
  5
171
330
1F
100
AcDbEntity
  8
VISIBLE
100
AcDbLine
 10
195.9100509337864
 20
539.7128372005279
 30
0.0
 11
195.9100509337864
 21
556.1572816449724
 31
0.0
  0
LINE
  5
172
330
1F
100
AcDbEntity
  8
VISIBLE
100
AcDbLine
 10
195.9100509337864
 20
539.7128372005279
 30
0.0
 11
189.9100509337864
 21
539.7128372005279
 31
0.0
  0
LINE
  5
173
330
1F
100
AcDbEntity
  8
VISIBLE
100
AcDbLine
 10
189.9100509337864
 20
539.7128372005279
 30
0.0
 11
189.9100509337864
 21
523.2683927560836
 31
0.0
  0
LINE
  5
174
330
1F
100
AcDbEntity
  8
VISIBLE
100
AcDbLine
 10
195.9100509337864
 20
523.2683927560836
 30
0.0
 11
189.9100509337864
 21
523.2683927560836
 31
0.0
  0
LINE
  5
175
330
1F
100
AcDbEntity
  8
VISIBLE
100
AcDbLine
 10
195.9100509337864
 20
506.8239483116391
 30
0.0
 11
195.9100509337864
 21
523.2683927560836
 31
0.0
  0
LINE
  5
176
330
1F
100
AcDbEntity
  8
VISIBLE
100
AcDbLine
 10
195.9100509337864
 20
506.8239483116391
 30
0.0
 11
189.9100509337864
 21
506.8239483116391
 31
0.0
  0
LINE
  5
177
330
1F
100
AcDbEntity
  8
VISIBLE
100
AcDbLine
 10
189.9100509337864
 20
506.8239483116391
 30
0.0
 11
189.9100509337864
 21
490.3795038671947
 31
0.0
  0
LINE
  5
178
330
1F
100
AcDbEntity
  8
VISIBLE
100
AcDbLine
 10
195.9100509337864
 20
490.3795038671947
 30
0.0
 11
189.9100509337864
 21
490.3795038671947
 31
0.0
  0
LINE
  5
179
330
1F
100
AcDbEntity
  8
VISIBLE
100
AcDbLine
 10
195.9100509337864
 20
473.9350594227502
 30
0.0
 11
195.9100509337864
 21
490.3795038671947
 31
0.0
  0
LINE
  5
17A
330
1F
100
AcDbEntity
  8
VISIBLE
100
AcDbLine
 10
186.4100509337864
 20
473.9350594227502
 30
0.0
 11
195.9100509337864
 21
473.9350594227502
 31
0.0
  0
LINE
  5
17B
330
1F
100
AcDbEntity
  8
VISIBLE
100
AcDbLine
 10
186.4100509337864
 20
473.9350594227502
 30
0.0
 11
186.4100509337864
 21
467.9350594227502
 31
0.0
  0
LINE
  5
17C
330
1F
100
AcDbEntity
  8
VISIBLE
100
AcDbLine
 10
176.9100509337864
 20
467.9350594227502
 30
0.0
 11
186.4100509337864
 21
467.9350594227502
 31
0.0
  0
LINE
  5
17D
330
1F
100
AcDbEntity
  8
VISIBLE
100
AcDbLine
 10
176.9100509337864
 20
473.9350594227502
 30
0.0
 11
176.9100509337864
 21
467.9350594227502
 31
0.0
  0
LINE
  5
17E
330
1F
100
AcDbEntity
  8
VISIBLE
100
AcDbLine
 10
167.4100509337864
 20
473.9350594227502
 30
0.0
 11
176.9100509337864
 21
473.9350594227502
 31
0.0
  0
LINE
  5
17F
330
1F
100
AcDbEntity
  8
VISIBLE
100
AcDbLine
 10
167.4100509337864
 20
473.9350594227502
 30
0.0
 11
167.4100509337864
 21
467.9350594227502
 31
0.0
  0
LINE
  5
180
330
1F
100
AcDbEntity
  8
VISIBLE
100
AcDbLine
 10
157.9100509337864
 20
467.9350594227502
 30
0.0
 11
167.4100509337864
 21
467.9350594227502
 31
0.0
  0
LINE
  5
181
330
1F
100
AcDbEntity
  8
VISIBLE
100
AcDbLine
 10
157.9100509337864
 20
473.9350594227502
 30
0.0
 11
157.9100509337864
 21
467.9350594227502
 31
0.0
  0
LINE
  5
182
330
1F
100
AcDbEntity
  8
VISIBLE
100
AcDbLine
 10
148.4100509337864
 20
473.9350594227502
 30
0.0
 11
157.9100509337864
 21
473.9350594227502
 31
0.0
  0
LINE
  5
183
330
1F
100
AcDbEntity
  8
VISIBLE
100
AcDbLine
 10
148.4100509337864
 20
473.9350594227502
 30
0.0
 11
148.4100509337864
 21
547.9350594227502
 31
0.0
  0
LINE
  5
184
330
1F
100
AcDbEntity
  8
VISIBLE
100
AcDbLine
 10
148.4100509337864
 20
547.9350594227502
 30
0.0
 11
101.9100509337864
 21
547.9350594227502
 31
0.0
  0
LINE
  5
185
330
1F
100
AcDbEntity
  8
VISIBLE
100
AcDbLine
 10
101.9100509337864
 20
563.9350594227502
 30
0.0
 11
101.9100509337864
 21
547.9350594227502
 31
0.0
  0
LINE
  5
186
330
1F
100
AcDbEntity
  8
VISIBLE
100
AcDbLine
 10
101.9100509337864
 20
563.9350594227502
 30
0.0
 11
95.91005093378638
 21
563.9350594227502
 31
0.0
  0
LINE
  5
187
330
1F
100
AcDbEntity
  8
VISIBLE
100
AcDbLine
 10
95.91005093378638
 20
563.9350594227502
 30
0.0
 11
95.91005093378638
 21
579.9350594227502
 31
0.0
  0
LINE
  5
188
330
1F
100
AcDbEntity
  8
VISIBLE
100
AcDbLine
 10
101.9100509337864
 20
579.9350594227502
 30
0.0
 11
95.91005093378638
 21
579.9350594227502
 31
0.0
  0
LINE
  5
189
330
1F
100
AcDbEntity
  8
VISIBLE
100
AcDbLine
 10
101.9100509337864
 20
595.9350594227502
 30
0.0
 11
101.9100509337864
 21
579.9350594227502
 31
0.0
  0
LINE
  5
18A
330
1F
100
AcDbEntity
  8
VISIBLE
100
AcDbLine
 10
101.9100509337864
 20
595.9350594227502
 30
0.0
 11
95.91005093378638
 21
595.9350594227502
 31
0.0
  0
LINE
  5
18B
330
1F
100
AcDbEntity
  8
VISIBLE
100
AcDbLine
 10
95.91005093378638
 20
595.9350594227502
 30
0.0
 11
95.91005093378638
 21
611.9350594227502
 31
0.0
  0
LINE
  5
18C
330
1F
100
AcDbEntity
  8
VISIBLE
100
AcDbLine
 10
101.9100509337864
 20
611.9350594227501
 30
0.0
 11
95.91005093378638
 21
611.9350594227502
 31
0.0
  0
LINE
  5
18D
330
1F
100
AcDbEntity
  8
VISIBLE
100
AcDbLine
 10
101.9100509337864
 20
621.9350594227501
 30
0.0
 11
101.9100509337864
 21
611.9350594227501
 31
0.0
  0
LINE
  5
18E
330
1F
100
AcDbEntity
  8
VISIBLE
100
AcDbLine
 10
120.7100509337864
 20
621.9350594227501
 30
0.0
 11
101.9100509337864
 21
621.9350594227501
 31
0.0
  0
LINE
  5
18F
330
1F
100
AcDbEntity
  8
VISIBLE
100
AcDbLine
 10
120.7100509337864
 20
621.9350594227501
 30
0.0
 11
120.7100509337864
 21
627.9350594227502
 31
0.0
  0
LINE
  5
190
330
1F
100
AcDbEntity
  8
VISIBLE
100
AcDbLine
 10
120.7100509337864
 20
627.9350594227502
 30
0.0
 11
139.5100509337864
 21
627.9350594227501
 31
0.0
  0
LINE
  5
191
330
1F
100
AcDbEntity
  8
VISIBLE
100
AcDbLine
 10
139.5100509337864
 20
621.9350594227501
 30
0.0
 11
139.5100509337864
 21
627.9350594227501
 31
0.0
  0
LINE
  5
192
330
1F
100
AcDbEntity
  8
VISIBLE
100
AcDbLine
 10
158.3100509337864
 20
621.9350594227501
 30
0.0
 11
139.5100509337864
 21
621.9350594227501
 31
0.0
  0
LINE
  5
193
330
1F
100
AcDbEntity
  8
VISIBLE
100
AcDbLine
 10
158.3100509337864
 20
621.9350594227501
 30
0.0
 11
158.3100509337864
 21
627.9350594227502
 31
0.0
  0
LINE
  5
194
330
1F
100
AcDbEntity
  8
VISIBLE
100
AcDbLine
 10
158.3100509337864
 20
627.9350594227502
 30
0.0
 11
177.1100509337864
 21
627.9350594227501
 31
0.0
  0
LINE
  5
195
330
1F
100
AcDbEntity
  8
VISIBLE
100
AcDbLine
 10
177.1100509337864
 20
621.9350594227501
 30
0.0
 11
177.1100509337864
 21
627.9350594227501
 31
0.0
  0
LINE
  5
196
330
1F
100
AcDbEntity
  8
VISIBLE
100
AcDbLine
 10
195.9100509337864
 20
621.9350594227501
 30
0.0
 11
177.1100509337864
 21
621.9350594227501
 31
0.0
  0
LINE
  5
197
330
1F
100
AcDbEntity
  8
VISIBLE
100
AcDbLine
 10
195.9100509337864
 20
605.4906149783058
 30
0.0
 11
195.9100509337864
 21
621.9350594227501
 31
0.0
  0
LINE
  5
198
330
1F
100
AcDbEntity
  8
VISIBLE
100
AcDbLine
 10
195.9100509337864
 20
605.4906149783058
 30
0.0
 11
189.9100509337864
 21
605.4906149783058
 31
0.0
  0
LINE
  5
199
330
1F
100
AcDbEntity
  8
VISIBLE
100
AcDbLine
 10
189.9100509337864
 20
605.4906149783058
 30
0.0
 11
189.9100509337864
 21
589.0461705338613
 31
0.0
  0
LINE
  5
19A
330
1F
100
AcDbEntity
  8
VISIBLE
100
AcDbLine
 10
195.9100509337864
 20
589.0461705338613
 30
0.0
 11
189.9100509337864
 21
589.0461705338613
 31
0.0
  0
LINE
  5
19B
330
1F
100
AcDbEntity
  8
VISIBLE
100
AcDbLine
 10
195.9100509337864
 20
572.6017260894168
 30
0.0
 11
195.9100509337864
 21
589.0461705338613
 31
0.0
  0
LINE
  5
19C
330
1F
100
AcDbEntity
  8
VISIBLE
100
AcDbLine
 10
195.9100509337864
 20
572.6017260894168
 30
0.0
 11
189.9100509337864
 21
572.6017260894168
 31
0.0
  0
CIRCLE
  5
19D
330
1F
100
AcDbEntity
  8
VISIBLE
100
AcDbCircle
 10
192.9100509337864
 20
580.823948311639
 30
0.0
 40
1.575
  0
CIRCLE
  5
19E
330
1F
100
AcDbEntity
  8
VISIBLE
100
AcDbCircle
 10
192.9100509337864
 20
547.9350594227502
 30
0.0
 40
1.574999999999993
  0
CIRCLE
  5
19F
330
1F
100
AcDbEntity
  8
VISIBLE
100
AcDbCircle
 10
192.9100509337864
 20
515.0461705338613
 30
0.0
 40
1.574999999999993
  0
CIRCLE
  5
1A0
330
1F
100
AcDbEntity
  8
VISIBLE
100
AcDbCircle
 10
98.91005093378638
 20
603.9350594227502
 30
0.0
 40
1.575
  0
CIRCLE
  5
1A1
330
1F
100
AcDbEntity
  8
VISIBLE
100
AcDbCircle
 10
98.91005093378638
 20
571.9350594227502
 30
0.0
 40
1.575
  0
CIRCLE
  5
1A2
330
1F
100
AcDbEntity
  8
VISIBLE
100
AcDbCircle
 10
238.4100509337864
 20
660.4350594227503
 30
0.0
 40
1.850000000000001
  0
LINE
  5
1A3
330
1F
100
AcDbEntity
  8
VISIBLE
100
AcDbLine
 10
206.9100509337864
 20
695.9350594227503
 30
0.0
 11
206.9100509337864
 21
716.9350594227503
 31
0.0
  0
LINE
  5
1A4
330
1F
100
AcDbEntity
  8
VISIBLE
100
AcDbLine
 10
200.9100509337864
 20
716.9350594227503
 30
0.0
 11
206.9100509337864
 21
716.9350594227503
 31
0.0
  0
LINE
  5
1A5
330
1F
100
AcDbEntity
  8
VISIBLE
100
AcDbLine
 10
200.9100509337864
 20
716.9350594227503
 30
0.0
 11
200.9100509337864
 21
737.9350594227503
 31
0.0
  0
LINE
  5
1A6
330
1F
100
AcDbEntity
  8
VISIBLE
100
AcDbLine
 10
210.4100509337864
 20
737.9350594227503
 30
0.0
 11
210.4100509337864
 21
731.9350594227503
 31
0.0
  0
LINE
  5
1A7
330
1F
100
AcDbEntity
  8
VISIBLE
100
AcDbLine
 10
210.4100509337864
 20
731.9350594227503
 30
0.0
 11
219.9100509337864
 21
731.9350594227503
 31
0.0
  0
LINE
  5
1A8
330
1F
100
AcDbEntity
  8
VISIBLE
100
AcDbLine
 10
219.9100509337864
 20
737.9350594227503
 30
0.0
 11
219.9100509337864
 21
731.9350594227503
 31
0.0
  0
LINE
  5
1A9
330
1F
100
AcDbEntity
  8
VISIBLE
100
AcDbLine
 10
229.4100509337864
 20
737.9350594227503
 30
0.0
 11
229.4100509337864
 21
731.9350594227503
 31
0.0
  0
LINE
  5
1AA
330
1F
100
AcDbEntity
  8
VISIBLE
100
AcDbLine
 10
229.4100509337864
 20
731.9350594227503
 30
0.0
 11
238.9100509337864
 21
731.9350594227503
 31
0.0
  0
LINE
  5
1AB
330
1F
100
AcDbEntity
  8
VISIBLE
100
AcDbLine
 10
238.9100509337864
 20
737.9350594227503
 30
0.0
 11
238.9100509337864
 21
731.9350594227503
 31
0.0
  0
LINE
  5
1AC
330
1F
100
AcDbEntity
  8
VISIBLE
100
AcDbLine
 10
248.4100509337864
 20
632.9350594227503
 30
0.0
 11
238.9100509337864
 21
632.9350594227503
 31
0.0
  0
LINE
  5
1AD
330
1F
100
AcDbEntity
  8
VISIBLE
100
AcDbLine
 10
238.9100509337864
 20
632.9350594227503
 30
0.0
 11
238.9100509337864
 21
638.9350594227503
 31
0.0
  0
LINE
  5
1AE
330
1F
100
AcDbEntity
  8
VISIBLE
100
AcDbLine
 10
238.9100509337864
 20
638.9350594227503
 30
0.0
 11
229.4100509337864
 21
638.9350594227503
 31
0.0
  0
LINE
  5
1AF
330
1F
100
AcDbEntity
  8
VISIBLE
100
AcDbLine
 10
229.4100509337864
 20
632.9350594227503
 30
0.0
 11
229.4100509337864
 21
638.9350594227503
 31
0.0
  0
LINE
  5
1B0
330
1F
100
AcDbEntity
  8
VISIBLE
100
AcDbLine
 10
229.4100509337864
 20
632.9350594227503
 30
0.0
 11
219.9100509337864
 21
632.9350594227503
 31
0.0
  0
LINE
  5
1B1
330
1F
100
AcDbEntity
  8
VISIBLE
100
AcDbLine
 10
219.9100509337864
 20
632.9350594227503
 30
0.0
 11
219.9100509337864
 21
638.9350594227503
 31
0.0
  0
LINE
  5
1B2
330
1F
100
AcDbEntity
  8
VISIBLE
100
AcDbLine
 10
219.9100509337864
 20
638.9350594227503
 30
0.0
 11
210.4100509337864
 21
638.9350594227503
 31
0.0
  0
LINE
  5
1B3
330
1F
100
AcDbEntity
  8
VISIBLE
100
AcDbLine
 10
210.4100509337864
 20
632.9350594227503
 30
0.0
 11
210.4100509337864
 21
638.9350594227503
 31
0.0
  0
LINE
  5
1B4
330
1F
100
AcDbEntity
  8
VISIBLE
100
AcDbLine
 10
200.9100509337864
 20
632.9350594227503
 30
0.0
 11
200.9100509337864
 21
653.9350594227503
 31
0.0
  0
LINE
  5
1B5
330
1F
100
AcDbEntity
  8
VISIBLE
100
AcDbLine
 10
200.9100509337864
 20
653.9350594227503
 30
0.0
 11
206.9100509337864
 21
653.9350594227503
 31
0.0
  0
LINE
  5
1B6
330
1F
100
AcDbEntity
  8
VISIBLE
100
AcDbLine
 10
206.9100509337864
 20
653.9350594227503
 30
0.0
 11
206.9100509337864
 21
674.9350594227503
 31
0.0
  0
LINE
  5
1B7
330
1F
100
AcDbEntity
  8
VISIBLE
100
AcDbLine
 10
200.9100509337864
 20
674.9350594227503
 30
0.0
 11
206.9100509337864
 21
674.9350594227503
 31
0.0
  0
LINE
  5
1B8
330
1F
100
AcDbEntity
  8
VISIBLE
100
AcDbLine
 10
200.9100509337864
 20
674.9350594227503
 30
0.0
 11
200.9100509337864
 21
695.9350594227503
 31
0.0
  0
LINE
  5
1B9
330
1F
100
AcDbEntity
  8
VISIBLE
100
AcDbLine
 10
200.9100509337864
 20
695.9350594227503
 30
0.0
 11
206.9100509337864
 21
695.9350594227503
 31
0.0
  0
CIRCLE
  5
1BA
330
1F
100
AcDbEntity
  8
VISIBLE
100
AcDbCircle
 10
203.9100509337864
 20
685.4350594227503
 30
0.0
 40
1.575
  0
CIRCLE
  5
1BB
330
1F
100
AcDbEntity
  8
VISIBLE
100
AcDbCircle
 10
238.4100509337864
 20
710.4350594227503
 30
0.0
 40
1.849999999999999
  0
CIRCLE
  5
1BC
330
1F
100
AcDbEntity
  8
VISIBLE
100
AcDbCircle
 10
238.4100509337864
 20
685.4350594227503
 30
0.0
 40
1.85
  0
LINE
  5
1BD
330
1F
100
AcDbEntity
  8
VISIBLE
100
AcDbLine
 10
212.4100509337864
 20
692.9350594227503
 30
0.0
 11
212.4100509337864
 21
686.9350594227503
 31
0.0
  0
LINE
  5
1BE
330
1F
100
AcDbEntity
  8
VISIBLE
100
AcDbLine
 10
212.4100509337864
 20
686.9350594227503
 30
0.0
 11
223.9100509337864
 21
686.9350594227503
 31
0.0
  0
LINE
  5
1BF
330
1F
100
AcDbEntity
  8
VISIBLE
100
AcDbLine
 10
223.9100509337864
 20
692.9350594227503
 30
0.0
 11
223.9100509337864
 21
686.9350594227503
 31
0.0
  0
LINE
  5
1C0
330
1F
100
AcDbEntity
  8
VISIBLE
100
AcDbLine
 10
212.4100509337864
 20
692.9350594227503
 30
0.0
 11
223.9100509337864
 21
692.9350594227503
 31
0.0
  0
LINE
  5
1C1
330
1F
100
AcDbEntity
  8
VISIBLE
100
AcDbLine
 10
248.4100509337864
 20
632.9350594227503
 30
0.0
 11
248.4100509337864
 21
737.9350594227503
 31
0.0
  0
LINE
  5
1C2
330
1F
100
AcDbEntity
  8
VISIBLE
100
AcDbLine
 10
210.4100509337864
 20
632.9350594227503
 30
0.0
 11
200.9100509337864
 21
632.9350594227503
 31
0.0
  0
LINE
  5
1C3
330
1F
100
AcDbEntity
  8
VISIBLE
100
AcDbLine
 10
229.4100509337864
 20
737.9350594227503
 30
0.0
 11
219.9100509337864
 21
737.9350594227503
 31
0.0
  0
LINE
  5
1C4
330
1F
100
AcDbEntity
  8
VISIBLE
100
AcDbLine
 10
248.4100509337864
 20
737.9350594227503
 30
0.0
 11
238.9100509337864
 21
737.9350594227503
 31
0.0
  0
LINE
  5
1C5
330
1F
100
AcDbEntity
  8
VISIBLE
100
AcDbLine
 10
210.4100509337864
 20
737.9350594227503
 30
0.0
 11
200.9100509337864
 21
737.9350594227503
 31
0.0
  0
LINE
  5
1C6
330
1F
100
AcDbEntity
  8
VISIBLE
100
AcDbLine
 10
227.7350509337864
 20
482.1475594227502
 30
0.0
 11
227.7350509337864
 21
479.5975594227502
 31
0.0
  0
LINE
  5
1C7
330
1F
100
AcDbEntity
  8
VISIBLE
100
AcDbLine
 10
226.4850509337863
 20
482.1475594227502
 30
0.0
 11
227.7350509337864
 21
482.1475594227502
 31
0.0
  0
LINE
  5
1C8
330
1F
100
AcDbEntity
  8
VISIBLE
100
AcDbLine
 10
226.4850509337863
 20
483.0850594227502
 30
0.0
 11
226.4850509337863
 21
482.1475594227502
 31
0.0
  0
LINE
  5
1C9
330
1F
100
AcDbEntity
  8
VISIBLE
100
AcDbLine
 10
223.3350509337864
 20
483.0850594227502
 30
0.0
 11
226.4850509337863
 21
483.0850594227502
 31
0.0
  0
LINE
  5
1CA
330
1F
100
AcDbEntity
  8
VISIBLE
100
AcDbLine
 10
223.3350509337864
 20
483.0850594227502
 30
0.0
 11
223.3350509337864
 21
482.1475594227502
 31
0.0
  0
LINE
  5
1CB
330
1F
100
AcDbEntity
  8
VISIBLE
100
AcDbLine
 10
222.0850509337864
 20
482.1475594227502
 30
0.0
 11
223.3350509337864
 21
482.1475594227502
 31
0.0
  0
LINE
  5
1CC
330
1F
100
AcDbEntity
  8
VISIBLE
100
AcDbLine
 10
222.0850509337864
 20
482.1475594227502
 30
0.0
 11
222.0850509337864
 21
479.5975594227502
 31
0.0
  0
LINE
  5
1CD
330
1F
100
AcDbEntity
  8
VISIBLE
100
AcDbLine
 10
222.0850509337864
 20
479.5975594227502
 30
0.0
 11
223.3350509337864
 21
479.5975594227502
 31
0.0
  0
LINE
  5
1CE
330
1F
100
AcDbEntity
  8
VISIBLE
100
AcDbLine
 10
223.3350509337864
 20
479.5975594227502
 30
0.0
 11
223.3350509337864
 21
473.9350594227503
 31
0.0
  0
LINE
  5
1CF
330
1F
100
AcDbEntity
  8
VISIBLE
100
AcDbLine
 10
223.3350509337864
 20
473.9350594227503
 30
0.0
 11
216.9100509337864
 21
473.9350594227503
 31
0.0
  0
LINE
  5
1D0
330
1F
100
AcDbEntity
  8
VISIBLE
100
AcDbLine
 10
216.9100509337864
 20
467.9350594227502
 30
0.0
 11
216.9100509337864
 21
473.9350594227503
 31
0.0
  0
LINE
  5
1D1
330
1F
100
AcDbEntity
  8
VISIBLE
100
AcDbLine
 10
200.9100509337864
 20
467.9350594227502
 30
0.0
 11
200.9100509337864
 21
572.9350594227502
 31
0.0
  0
LINE
  5
1D2
330
1F
100
AcDbEntity
  8
VISIBLE
100
AcDbLine
 10
200.9100509337864
 20
572.9350594227502
 30
0.0
 11
216.9100509337864
 21
572.9350594227502
 31
0.0
  0
LINE
  5
1D3
330
1F
100
AcDbEntity
  8
VISIBLE
100
AcDbLine
 10
216.9100509337864
 20
572.9350594227502
 30
0.0
 11
216.9100509337864
 21
566.9350594227502
 31
0.0
  0
LINE
  5
1D4
330
1F
100
AcDbEntity
  8
VISIBLE
100
AcDbLine
 10
216.9100509337864
 20
566.9350594227502
 30
0.0
 11
223.3350509337864
 21
566.9350594227502
 31
0.0
  0
LINE
  5
1D5
330
1F
100
AcDbEntity
  8
VISIBLE
100
AcDbLine
 10
223.3350509337864
 20
561.2725594227502
 30
0.0
 11
223.3350509337864
 21
566.9350594227502
 31
0.0
  0
LINE
  5
1D6
330
1F
100
AcDbEntity
  8
VISIBLE
100
AcDbLine
 10
223.3350509337864
 20
561.2725594227502
 30
0.0
 11
222.0850509337864
 21
561.2725594227502
 31
0.0
  0
LINE
  5
1D7
330
1F
100
AcDbEntity
  8
VISIBLE
100
AcDbLine
 10
222.0850509337864
 20
558.7225594227502
 30
0.0
 11
222.0850509337864
 21
561.2725594227502
 31
0.0
  0
LINE
  5
1D8
330
1F
100
AcDbEntity
  8
VISIBLE
100
AcDbLine
 10
223.3350509337864
 20
558.7225594227502
 30
0.0
 11
222.0850509337864
 21
558.7225594227502
 31
0.0
  0
LINE
  5
1D9
330
1F
100
AcDbEntity
  8
VISIBLE
100
AcDbLine
 10
223.3350509337864
 20
557.7850594227502
 30
0.0
 11
223.3350509337864
 21
558.7225594227502
 31
0.0
  0
LINE
  5
1DA
330
1F
100
AcDbEntity
  8
VISIBLE
100
AcDbLine
 10
226.4850509337863
 20
557.7850594227502
 30
0.0
 11
223.3350509337864
 21
557.7850594227502
 31
0.0
  0
LINE
  5
1DB
330
1F
100
AcDbEntity
  8
VISIBLE
100
AcDbLine
 10
226.4850509337863
 20
557.7850594227502
 30
0.0
 11
226.4850509337863
 21
558.7225594227502
 31
0.0
  0
LINE
  5
1DC
330
1F
100
AcDbEntity
  8
VISIBLE
100
AcDbLine
 10
227.7350509337863
 20
558.7225594227502
 30
0.0
 11
226.4850509337863
 21
558.7225594227502
 31
0.0
  0
LINE
  5
1DD
330
1F
100
AcDbEntity
  8
VISIBLE
100
AcDbLine
 10
227.7350509337863
 20
558.7225594227502
 30
0.0
 11
227.7350509337863
 21
561.2725594227502
 31
0.0
  0
LINE
  5
1DE
330
1F
100
AcDbEntity
  8
VISIBLE
100
AcDbLine
 10
227.7350509337863
 20
561.2725594227502
 30
0.0
 11
226.4850509337863
 21
561.2725594227502
 31
0.0
  0
LINE
  5
1DF
330
1F
100
AcDbEntity
  8
VISIBLE
100
AcDbLine
 10
226.4850509337863
 20
561.2725594227502
 30
0.0
 11
226.4850509337863
 21
566.9350594227502
 31
0.0
  0
LINE
  5
1E0
330
1F
100
AcDbEntity
  8
VISIBLE
100
AcDbLine
 10
232.9100509337864
 20
572.9350594227502
 30
0.0
 11
232.9100509337864
 21
566.9350594227502
 31
0.0
  0
LINE
  5
1E1
330
1F
100
AcDbEntity
  8
VISIBLE
100
AcDbLine
 10
232.9100509337864
 20
572.9350594227502
 30
0.0
 11
248.9100509337864
 21
572.9350594227502
 31
0.0
  0
LINE
  5
1E2
330
1F
100
AcDbEntity
  8
VISIBLE
100
AcDbLine
 10
248.9100509337864
 20
566.9350594227502
 30
0.0
 11
255.3350509337864
 21
566.9350594227502
 31
0.0
  0
LINE
  5
1E3
330
1F
100
AcDbEntity
  8
VISIBLE
100
AcDbLine
 10
255.3350509337864
 20
561.2725594227502
 30
0.0
 11
255.3350509337864
 21
566.9350594227502
 31
0.0
  0
LINE
  5
1E4
330
1F
100
AcDbEntity
  8
VISIBLE
100
AcDbLine
 10
255.3350509337864
 20
561.2725594227502
 30
0.0
 11
254.0850509337864
 21
561.2725594227502
 31
0.0
  0
LINE
  5
1E5
330
1F
100
AcDbEntity
  8
VISIBLE
100
AcDbLine
 10
254.0850509337864
 20
558.7225594227502
 30
0.0
 11
254.0850509337864
 21
561.2725594227502
 31
0.0
  0
LINE
  5
1E6
330
1F
100
AcDbEntity
  8
VISIBLE
100
AcDbLine
 10
255.3350509337864
 20
558.7225594227502
 30
0.0
 11
254.0850509337864
 21
558.7225594227502
 31
0.0
  0
LINE
  5
1E7
330
1F
100
AcDbEntity
  8
VISIBLE
100
AcDbLine
 10
255.3350509337864
 20
557.7850594227502
 30
0.0
 11
255.3350509337864
 21
558.7225594227502
 31
0.0
  0
LINE
  5
1E8
330
1F
100
AcDbEntity
  8
VISIBLE
100
AcDbLine
 10
258.4850509337863
 20
557.7850594227502
 30
0.0
 11
255.3350509337864
 21
557.7850594227502
 31
0.0
  0
LINE
  5
1E9
330
1F
100
AcDbEntity
  8
VISIBLE
100
AcDbLine
 10
258.4850509337863
 20
557.7850594227502
 30
0.0
 11
258.4850509337863
 21
558.7225594227502
 31
0.0
  0
LINE
  5
1EA
330
1F
100
AcDbEntity
  8
VISIBLE
100
AcDbLine
 10
259.7350509337863
 20
558.7225594227502
 30
0.0
 11
258.4850509337863
 21
558.7225594227502
 31
0.0
  0
LINE
  5
1EB
330
1F
100
AcDbEntity
  8
VISIBLE
100
AcDbLine
 10
259.7350509337863
 20
558.7225594227502
 30
0.0
 11
259.7350509337863
 21
561.2725594227502
 31
0.0
  0
LINE
  5
1EC
330
1F
100
AcDbEntity
  8
VISIBLE
100
AcDbLine
 10
259.7350509337863
 20
561.2725594227502
 30
0.0
 11
258.4850509337863
 21
561.2725594227502
 31
0.0
  0
LINE
  5
1ED
330
1F
100
AcDbEntity
  8
VISIBLE
100
AcDbLine
 10
258.4850509337863
 20
561.2725594227502
 30
0.0
 11
258.4850509337863
 21
566.9350594227502
 31
0.0
  0
LINE
  5
1EE
330
1F
100
AcDbEntity
  8
VISIBLE
100
AcDbLine
 10
264.9100509337864
 20
572.9350594227502
 30
0.0
 11
264.9100509337864
 21
566.9350594227502
 31
0.0
  0
LINE
  5
1EF
330
1F
100
AcDbEntity
  8
VISIBLE
100
AcDbLine
 10
264.9100509337864
 20
572.9350594227502
 30
0.0
 11
280.9100509337864
 21
572.9350594227502
 31
0.0
  0
LINE
  5
1F0
330
1F
100
AcDbEntity
  8
VISIBLE
100
AcDbLine
 10
280.9100509337864
 20
551.9350594227502
 30
0.0
 11
280.9100509337864
 21
572.9350594227502
 31
0.0
  0
LINE
  5
1F1
330
1F
100
AcDbEntity
  8
VISIBLE
100
AcDbLine
 10
280.9100509337864
 20
551.9350594227502
 30
0.0
 11
274.9100509337864
 21
551.9350594227502
 31
0.0
  0
LINE
  5
1F2
330
1F
100
AcDbEntity
  8
VISIBLE
100
AcDbLine
 10
274.9100509337864
 20
551.9350594227502
 30
0.0
 11
274.9100509337864
 21
543.0100594227503
 31
0.0
  0
LINE
  5
1F3
330
1F
100
AcDbEntity
  8
VISIBLE
100
AcDbLine
 10
269.2475509337863
 20
543.0100594227503
 30
0.0
 11
274.9100509337864
 21
543.0100594227503
 31
0.0
  0
LINE
  5
1F4
330
1F
100
AcDbEntity
  8
VISIBLE
100
AcDbLine
 10
269.2475509337863
 20
543.0100594227503
 30
0.0
 11
269.2475509337863
 21
544.2600594227503
 31
0.0
  0
LINE
  5
1F5
330
1F
100
AcDbEntity
  8
VISIBLE
100
AcDbLine
 10
266.6975509337864
 20
544.2600594227503
 30
0.0
 11
269.2475509337863
 21
544.2600594227503
 31
0.0
  0
LINE
  5
1F6
330
1F
100
AcDbEntity
  8
VISIBLE
100
AcDbLine
 10
266.6975509337864
 20
543.0100594227503
 30
0.0
 11
266.6975509337864
 21
544.2600594227503
 31
0.0
  0
LINE
  5
1F7
330
1F
100
AcDbEntity
  8
VISIBLE
100
AcDbLine
 10
265.7600509337864
 20
543.0100594227503
 30
0.0
 11
266.6975509337864
 21
543.0100594227503
 31
0.0
  0
LINE
  5
1F8
330
1F
100
AcDbEntity
  8
VISIBLE
100
AcDbLine
 10
265.7600509337864
 20
539.8600594227503
 30
0.0
 11
265.7600509337864
 21
543.0100594227503
 31
0.0
  0
LINE
  5
1F9
330
1F
100
AcDbEntity
  8
VISIBLE
100
AcDbLine
 10
265.7600509337864
 20
539.8600594227503
 30
0.0
 11
266.6975509337864
 21
539.8600594227503
 31
0.0
  0
LINE
  5
1FA
330
1F
100
AcDbEntity
  8
VISIBLE
100
AcDbLine
 10
266.6975509337864
 20
538.6100594227503
 30
0.0
 11
266.6975509337864
 21
539.8600594227503
 31
0.0
  0
LINE
  5
1FB
330
1F
100
AcDbEntity
  8
VISIBLE
100
AcDbLine
 10
266.6975509337864
 20
538.6100594227503
 30
0.0
 11
269.2475509337863
 21
538.6100594227503
 31
0.0
  0
LINE
  5
1FC
330
1F
100
AcDbEntity
  8
VISIBLE
100
AcDbLine
 10
269.2475509337863
 20
538.6100594227503
 30
0.0
 11
269.2475509337863
 21
539.8600594227503
 31
0.0
  0
LINE
  5
1FD
330
1F
100
AcDbEntity
  8
VISIBLE
100
AcDbLine
 10
269.2475509337863
 20
539.8600594227503
 30
0.0
 11
274.9100509337864
 21
539.8600594227503
 31
0.0
  0
LINE
  5
1FE
330
1F
100
AcDbEntity
  8
VISIBLE
100
AcDbLine
 10
274.9100509337864
 20
539.8600594227503
 30
0.0
 11
274.9100509337864
 21
530.9350594227502
 31
0.0
  0
LINE
  5
1FF
330
1F
100
AcDbEntity
  8
VISIBLE
100
AcDbLine
 10
280.9100509337864
 20
530.9350594227502
 30
0.0
 11
274.9100509337864
 21
530.9350594227502
 31
0.0
  0
LINE
  5
200
330
1F
100
AcDbEntity
  8
VISIBLE
100
AcDbLine
 10
280.9100509337864
 20
509.9350594227502
 30
0.0
 11
280.9100509337864
 21
530.9350594227502
 31
0.0
  0
LINE
  5
201
330
1F
100
AcDbEntity
  8
VISIBLE
100
AcDbLine
 10
280.9100509337864
 20
509.9350594227502
 30
0.0
 11
274.9100509337864
 21
509.9350594227502
 31
0.0
  0
LINE
  5
202
330
1F
100
AcDbEntity
  8
VISIBLE
100
AcDbLine
 10
274.9100509337864
 20
509.9350594227502
 30
0.0
 11
274.9100509337864
 21
501.0100594227503
 31
0.0
  0
LINE
  5
203
330
1F
100
AcDbEntity
  8
VISIBLE
100
AcDbLine
 10
269.2475509337863
 20
501.0100594227503
 30
0.0
 11
274.9100509337864
 21
501.0100594227503
 31
0.0
  0
LINE
  5
204
330
1F
100
AcDbEntity
  8
VISIBLE
100
AcDbLine
 10
269.2475509337863
 20
501.0100594227503
 30
0.0
 11
269.2475509337863
 21
502.2600594227503
 31
0.0
  0
LINE
  5
205
330
1F
100
AcDbEntity
  8
VISIBLE
100
AcDbLine
 10
266.6975509337864
 20
502.2600594227503
 30
0.0
 11
269.2475509337863
 21
502.2600594227503
 31
0.0
  0
LINE
  5
206
330
1F
100
AcDbEntity
  8
VISIBLE
100
AcDbLine
 10
266.6975509337864
 20
501.0100594227503
 30
0.0
 11
266.6975509337864
 21
502.2600594227503
 31
0.0
  0
LINE
  5
207
330
1F
100
AcDbEntity
  8
VISIBLE
100
AcDbLine
 10
265.7600509337864
 20
501.0100594227503
 30
0.0
 11
266.6975509337864
 21
501.0100594227503
 31
0.0
  0
LINE
  5
208
330
1F
100
AcDbEntity
  8
VISIBLE
100
AcDbLine
 10
265.7600509337864
 20
497.8600594227502
 30
0.0
 11
265.7600509337864
 21
501.0100594227503
 31
0.0
  0
LINE
  5
209
330
1F
100
AcDbEntity
  8
VISIBLE
100
AcDbLine
 10
265.7600509337864
 20
497.8600594227502
 30
0.0
 11
266.6975509337864
 21
497.8600594227502
 31
0.0
  0
LINE
  5
20A
330
1F
100
AcDbEntity
  8
VISIBLE
100
AcDbLine
 10
266.6975509337864
 20
496.6100594227502
 30
0.0
 11
266.6975509337864
 21
497.8600594227502
 31
0.0
  0
LINE
  5
20B
330
1F
100
AcDbEntity
  8
VISIBLE
100
AcDbLine
 10
266.6975509337864
 20
496.6100594227502
 30
0.0
 11
269.2475509337863
 21
496.6100594227502
 31
0.0
  0
LINE
  5
20C
330
1F
100
AcDbEntity
  8
VISIBLE
100
AcDbLine
 10
269.2475509337863
 20
496.6100594227502
 30
0.0
 11
269.2475509337863
 21
497.8600594227502
 31
0.0
  0
LINE
  5
20D
330
1F
100
AcDbEntity
  8
VISIBLE
100
AcDbLine
 10
269.2475509337863
 20
497.8600594227502
 30
0.0
 11
274.9100509337864
 21
497.8600594227502
 31
0.0
  0
LINE
  5
20E
330
1F
100
AcDbEntity
  8
VISIBLE
100
AcDbLine
 10
274.9100509337864
 20
497.8600594227502
 30
0.0
 11
274.9100509337864
 21
488.9350594227502
 31
0.0
  0
LINE
  5
20F
330
1F
100
AcDbEntity
  8
VISIBLE
100
AcDbLine
 10
280.9100509337864
 20
488.9350594227502
 30
0.0
 11
274.9100509337864
 21
488.9350594227502
 31
0.0
  0
LINE
  5
210
330
1F
100
AcDbEntity
  8
VISIBLE
100
AcDbLine
 10
280.9100509337864
 20
467.9350594227502
 30
0.0
 11
280.9100509337864
 21
488.9350594227502
 31
0.0
  0
LINE
  5
211
330
1F
100
AcDbEntity
  8
VISIBLE
100
AcDbLine
 10
264.9100509337864
 20
467.9350594227502
 30
0.0
 11
280.9100509337864
 21
467.9350594227502
 31
0.0
  0
LINE
  5
212
330
1F
100
AcDbEntity
  8
VISIBLE
100
AcDbLine
 10
264.9100509337864
 20
467.9350594227502
 30
0.0
 11
264.9100509337864
 21
473.9350594227503
 31
0.0
  0
LINE
  5
213
330
1F
100
AcDbEntity
  8
VISIBLE
100
AcDbLine
 10
264.9100509337864
 20
473.9350594227503
 30
0.0
 11
258.4850509337863
 21
473.9350594227503
 31
0.0
  0
LINE
  5
214
330
1F
100
AcDbEntity
  8
VISIBLE
100
AcDbLine
 10
258.4850509337863
 20
479.5975594227502
 30
0.0
 11
258.4850509337863
 21
473.9350594227503
 31
0.0
  0
LINE
  5
215
330
1F
100
AcDbEntity
  8
VISIBLE
100
AcDbLine
 10
258.4850509337863
 20
479.5975594227502
 30
0.0
 11
259.7350509337863
 21
479.5975594227502
 31
0.0
  0
LINE
  5
216
330
1F
100
AcDbEntity
  8
VISIBLE
100
AcDbLine
 10
259.7350509337863
 20
482.1475594227502
 30
0.0
 11
259.7350509337863
 21
479.5975594227502
 31
0.0
  0
LINE
  5
217
330
1F
100
AcDbEntity
  8
VISIBLE
100
AcDbLine
 10
258.4850509337863
 20
482.1475594227502
 30
0.0
 11
259.7350509337863
 21
482.1475594227502
 31
0.0
  0
LINE
  5
218
330
1F
100
AcDbEntity
  8
VISIBLE
100
AcDbLine
 10
258.4850509337863
 20
483.0850594227502
 30
0.0
 11
258.4850509337863
 21
482.1475594227502
 31
0.0
  0
LINE
  5
219
330
1F
100
AcDbEntity
  8
VISIBLE
100
AcDbLine
 10
255.3350509337864
 20
483.0850594227502
 30
0.0
 11
258.4850509337863
 21
483.0850594227502
 31
0.0
  0
LINE
  5
21A
330
1F
100
AcDbEntity
  8
VISIBLE
100
AcDbLine
 10
255.3350509337864
 20
483.0850594227502
 30
0.0
 11
255.3350509337864
 21
482.1475594227502
 31
0.0
  0
LINE
  5
21B
330
1F
100
AcDbEntity
  8
VISIBLE
100
AcDbLine
 10
254.0850509337864
 20
482.1475594227502
 30
0.0
 11
255.3350509337864
 21
482.1475594227502
 31
0.0
  0
LINE
  5
21C
330
1F
100
AcDbEntity
  8
VISIBLE
100
AcDbLine
 10
254.0850509337864
 20
482.1475594227502
 30
0.0
 11
254.0850509337864
 21
479.5975594227502
 31
0.0
  0
LINE
  5
21D
330
1F
100
AcDbEntity
  8
VISIBLE
100
AcDbLine
 10
254.0850509337864
 20
479.5975594227502
 30
0.0
 11
255.3350509337864
 21
479.5975594227502
 31
0.0
  0
LINE
  5
21E
330
1F
100
AcDbEntity
  8
VISIBLE
100
AcDbLine
 10
255.3350509337864
 20
479.5975594227502
 30
0.0
 11
255.3350509337864
 21
473.9350594227503
 31
0.0
  0
LINE
  5
21F
330
1F
100
AcDbEntity
  8
VISIBLE
100
AcDbLine
 10
255.3350509337864
 20
473.9350594227503
 30
0.0
 11
248.9100509337864
 21
473.9350594227503
 31
0.0
  0
LINE
  5
220
330
1F
100
AcDbEntity
  8
VISIBLE
100
AcDbLine
 10
248.9100509337864
 20
467.9350594227502
 30
0.0
 11
248.9100509337864
 21
473.9350594227503
 31
0.0
  0
LINE
  5
221
330
1F
100
AcDbEntity
  8
VISIBLE
100
AcDbLine
 10
232.9100509337864
 20
467.9350594227502
 30
0.0
 11
248.9100509337864
 21
467.9350594227502
 31
0.0
  0
LINE
  5
222
330
1F
100
AcDbEntity
  8
VISIBLE
100
AcDbLine
 10
232.9100509337864
 20
467.9350594227502
 30
0.0
 11
232.9100509337864
 21
473.9350594227503
 31
0.0
  0
LINE
  5
223
330
1F
100
AcDbEntity
  8
VISIBLE
100
AcDbLine
 10
232.9100509337864
 20
473.9350594227503
 30
0.0
 11
226.4850509337863
 21
473.9350594227503
 31
0.0
  0
LINE
  5
224
330
1F
100
AcDbEntity
  8
VISIBLE
100
AcDbLine
 10
226.4850509337863
 20
479.5975594227502
 30
0.0
 11
226.4850509337863
 21
473.9350594227503
 31
0.0
  0
LINE
  5
225
330
1F
100
AcDbEntity
  8
VISIBLE
100
AcDbLine
 10
226.4850509337863
 20
479.5975594227502
 30
0.0
 11
227.7350509337864
 21
479.5975594227502
 31
0.0
  0
CIRCLE
  5
226
330
1F
100
AcDbEntity
  8
VISIBLE
100
AcDbCircle
 10
215.9100509337864
 20
517.9350594227502
 30
0.0
 40
3.25
  0
LINE
  5
227
330
1F
100
AcDbEntity
  8
VISIBLE
100
AcDbLine
 10
258.4850509337863
 20
566.9350594227502
 30
0.0
 11
264.9100509337864
 21
566.9350594227502
 31
0.0
  0
LINE
  5
228
330
1F
100
AcDbEntity
  8
VISIBLE
100
AcDbLine
 10
248.9100509337864
 20
572.9350594227502
 30
0.0
 11
248.9100509337864
 21
566.9350594227502
 31
0.0
  0
LINE
  5
229
330
1F
100
AcDbEntity
  8
VISIBLE
100
AcDbLine
 10
226.4850509337863
 20
566.9350594227502
 30
0.0
 11
232.9100509337864
 21
566.9350594227502
 31
0.0
  0
LINE
  5
22A
330
1F
100
AcDbEntity
  8
VISIBLE
100
AcDbLine
 10
200.9100509337864
 20
467.9350594227502
 30
0.0
 11
216.9100509337864
 21
467.9350594227502
 31
0.0
  0
LINE
  5
22B
330
1F
100
AcDbEntity
  8
VISIBLE
100
AcDbLine
 10
101.9100509337864
 20
688.2683927560836
 30
0.0
 11
101.9100509337864
 21
704.712837200528
 31
0.0
  0
LINE
  5
22C
330
1F
100
AcDbEntity
  8
VISIBLE
100
AcDbLine
 10
95.91005093378635
 20
704.712837200528
 30
0.0
 11
101.9100509337864
 21
704.712837200528
 31
0.0
  0
LINE
  5
22D
330
1F
100
AcDbEntity
  8
VISIBLE
100
AcDbLine
 10
95.91005093378635
 20
704.712837200528
 30
0.0
 11
95.91005093378635
 21
721.1572816449725
 31
0.0
  0
LINE
  5
22E
330
1F
100
AcDbEntity
  8
VISIBLE
100
AcDbLine
 10
95.91005093378635
 20
721.1572816449725
 30
0.0
 11
101.9100509337864
 21
721.1572816449725
 31
0.0
  0
LINE
  5
22F
330
1F
100
AcDbEntity
  8
VISIBLE
100
AcDbLine
 10
101.9100509337864
 20
721.1572816449725
 30
0.0
 11
101.9100509337864
 21
737.601726089417
 31
0.0
  0
LINE
  5
230
330
1F
100
AcDbEntity
  8
VISIBLE
100
AcDbLine
 10
95.91005093378635
 20
737.601726089417
 30
0.0
 11
101.9100509337864
 21
737.601726089417
 31
0.0
  0
LINE
  5
231
330
1F
100
AcDbEntity
  8
VISIBLE
100
AcDbLine
 10
95.91005093378635
 20
737.601726089417
 30
0.0
 11
95.91005093378635
 21
754.0461705338614
 31
0.0
  0
LINE
  5
232
330
1F
100
AcDbEntity
  8
VISIBLE
100
AcDbLine
 10
95.91005093378635
 20
754.0461705338614
 30
0.0
 11
101.9100509337864
 21
754.0461705338614
 31
0.0
  0
LINE
  5
233
330
1F
100
AcDbEntity
  8
VISIBLE
100
AcDbLine
 10
101.9100509337864
 20
754.0461705338614
 30
0.0
 11
101.9100509337864
 21
770.4906149783058
 31
0.0
  0
LINE
  5
234
330
1F
100
AcDbEntity
  8
VISIBLE
100
AcDbLine
 10
95.91005093378635
 20
770.4906149783058
 30
0.0
 11
101.9100509337864
 21
770.4906149783058
 31
0.0
  0
LINE
  5
235
330
1F
100
AcDbEntity
  8
VISIBLE
100
AcDbLine
 10
95.91005093378635
 20
770.4906149783058
 30
0.0
 11
95.91005093378635
 21
786.9350594227503
 31
0.0
  0
LINE
  5
236
330
1F
100
AcDbEntity
  8
VISIBLE
100
AcDbLine
 10
95.91005093378635
 20
786.9350594227503
 30
0.0
 11
114.7100509337864
 21
786.9350594227503
 31
0.0
  0
LINE
  5
237
330
1F
100
AcDbEntity
  8
VISIBLE
100
AcDbLine
 10
114.7100509337864
 20
792.9350594227503
 30
0.0
 11
114.7100509337864
 21
786.9350594227503
 31
0.0
  0
LINE
  5
238
330
1F
100
AcDbEntity
  8
VISIBLE
100
AcDbLine
 10
133.5100509337864
 20
792.9350594227503
 30
0.0
 11
114.7100509337864
 21
792.9350594227503
 31
0.0
  0
LINE
  5
239
330
1F
100
AcDbEntity
  8
VISIBLE
100
AcDbLine
 10
133.5100509337864
 20
792.9350594227503
 30
0.0
 11
133.5100509337864
 21
786.9350594227503
 31
0.0
  0
LINE
  5
23A
330
1F
100
AcDbEntity
  8
VISIBLE
100
AcDbLine
 10
133.5100509337864
 20
786.9350594227503
 30
0.0
 11
152.3100509337864
 21
786.9350594227503
 31
0.0
  0
LINE
  5
23B
330
1F
100
AcDbEntity
  8
VISIBLE
100
AcDbLine
 10
152.3100509337864
 20
792.9350594227503
 30
0.0
 11
152.3100509337864
 21
786.9350594227503
 31
0.0
  0
LINE
  5
23C
330
1F
100
AcDbEntity
  8
VISIBLE
100
AcDbLine
 10
171.1100509337864
 20
792.9350594227503
 30
0.0
 11
171.1100509337864
 21
786.9350594227503
 31
0.0
  0
LINE
  5
23D
330
1F
100
AcDbEntity
  8
VISIBLE
100
AcDbLine
 10
171.1100509337864
 20
786.9350594227503
 30
0.0
 11
189.9100509337864
 21
786.9350594227503
 31
0.0
  0
LINE
  5
23E
330
1F
100
AcDbEntity
  8
VISIBLE
100
AcDbLine
 10
189.9100509337864
 20
786.9350594227503
 30
0.0
 11
189.9100509337864
 21
776.9350594227503
 31
0.0
  0
LINE
  5
23F
330
1F
100
AcDbEntity
  8
VISIBLE
100
AcDbLine
 10
195.9100509337864
 20
776.9350594227503
 30
0.0
 11
189.9100509337864
 21
776.9350594227503
 31
0.0
  0
LINE
  5
240
330
1F
100
AcDbEntity
  8
VISIBLE
100
AcDbLine
 10
195.9100509337864
 20
760.9350594227503
 30
0.0
 11
195.9100509337864
 21
776.9350594227503
 31
0.0
  0
LINE
  5
241
330
1F
100
AcDbEntity
  8
VISIBLE
100
AcDbLine
 10
195.9100509337864
 20
760.9350594227503
 30
0.0
 11
189.9100509337864
 21
760.9350594227503
 31
0.0
  0
LINE
  5
242
330
1F
100
AcDbEntity
  8
VISIBLE
100
AcDbLine
 10
189.9100509337864
 20
760.9350594227503
 30
0.0
 11
189.9100509337864
 21
744.9350594227503
 31
0.0
  0
LINE
  5
243
330
1F
100
AcDbEntity
  8
VISIBLE
100
AcDbLine
 10
195.9100509337864
 20
744.9350594227503
 30
0.0
 11
189.9100509337864
 21
744.9350594227503
 31
0.0
  0
LINE
  5
244
330
1F
100
AcDbEntity
  8
VISIBLE
100
AcDbLine
 10
195.9100509337864
 20
728.9350594227503
 30
0.0
 11
195.9100509337864
 21
744.9350594227503
 31
0.0
  0
LINE
  5
245
330
1F
100
AcDbEntity
  8
VISIBLE
100
AcDbLine
 10
195.9100509337864
 20
728.9350594227503
 30
0.0
 11
189.9100509337864
 21
728.9350594227503
 31
0.0
  0
LINE
  5
246
330
1F
100
AcDbEntity
  8
VISIBLE
100
AcDbLine
 10
189.9100509337864
 20
728.9350594227503
 30
0.0
 11
189.9100509337864
 21
712.9350594227503
 31
0.0
  0
LINE
  5
247
330
1F
100
AcDbEntity
  8
VISIBLE
100
AcDbLine
 10
143.4100509337864
 20
638.9350594227503
 30
0.0
 11
143.4100509337864
 21
712.9350594227503
 31
0.0
  0
LINE
  5
248
330
1F
100
AcDbEntity
  8
VISIBLE
100
AcDbLine
 10
143.4100509337864
 20
638.9350594227503
 30
0.0
 11
133.9100509337864
 21
638.9350594227503
 31
0.0
  0
LINE
  5
249
330
1F
100
AcDbEntity
  8
VISIBLE
100
AcDbLine
 10
133.9100509337864
 20
632.9350594227503
 30
0.0
 11
133.9100509337864
 21
638.9350594227503
 31
0.0
  0
LINE
  5
24A
330
1F
100
AcDbEntity
  8
VISIBLE
100
AcDbLine
 10
133.9100509337864
 20
632.9350594227503
 30
0.0
 11
124.4100509337864
 21
632.9350594227503
 31
0.0
  0
LINE
  5
24B
330
1F
100
AcDbEntity
  8
VISIBLE
100
AcDbLine
 10
124.4100509337864
 20
632.9350594227503
 30
0.0
 11
124.4100509337864
 21
638.9350594227503
 31
0.0
  0
LINE
  5
24C
330
1F
100
AcDbEntity
  8
VISIBLE
100
AcDbLine
 10
124.4100509337864
 20
638.9350594227503
 30
0.0
 11
114.9100509337864
 21
638.9350594227503
 31
0.0
  0
LINE
  5
24D
330
1F
100
AcDbEntity
  8
VISIBLE
100
AcDbLine
 10
114.9100509337864
 20
632.9350594227503
 30
0.0
 11
114.9100509337864
 21
638.9350594227503
 31
0.0
  0
LINE
  5
24E
330
1F
100
AcDbEntity
  8
VISIBLE
100
AcDbLine
 10
114.9100509337864
 20
632.9350594227503
 30
0.0
 11
105.4100509337864
 21
632.9350594227503
 31
0.0
  0
LINE
  5
24F
330
1F
100
AcDbEntity
  8
VISIBLE
100
AcDbLine
 10
105.4100509337864
 20
638.9350594227503
 30
0.0
 11
95.91005093378635
 21
638.9350594227503
 31
0.0
  0
LINE
  5
250
330
1F
100
AcDbEntity
  8
VISIBLE
100
AcDbLine
 10
95.91005093378635
 20
655.3795038671948
 30
0.0
 11
101.9100509337864
 21
655.3795038671948
 31
0.0
  0
LINE
  5
251
330
1F
100
AcDbEntity
  8
VISIBLE
100
AcDbLine
 10
101.9100509337864
 20
655.3795038671948
 30
0.0
 11
101.9100509337864
 21
671.8239483116392
 31
0.0
  0
LINE
  5
252
330
1F
100
AcDbEntity
  8
VISIBLE
100
AcDbLine
 10
95.91005093378635
 20
671.8239483116392
 30
0.0
 11
101.9100509337864
 21
671.8239483116392
 31
0.0
  0
LINE
  5
253
330
1F
100
AcDbEntity
  8
VISIBLE
100
AcDbLine
 10
95.91005093378635
 20
688.2683927560836
 30
0.0
 11
101.9100509337864
 21
688.2683927560836
 31
0.0
  0
CIRCLE
  5
254
330
1F
100
AcDbEntity
  8
VISIBLE
100
AcDbCircle
 10
98.91005093378635
 20
680.0461705338614
 30
0.0
 40
1.575000000000007
  0
CIRCLE
  5
255
330
1F
100
AcDbEntity
  8
VISIBLE
100
AcDbCircle
 10
98.91005093378635
 20
712.9350594227503
 30
0.0
 40
1.575000000000007
  0
CIRCLE
  5
256
330
1F
100
AcDbEntity
  8
VISIBLE
100
AcDbCircle
 10
98.91005093378635
 20
745.8239483116392
 30
0.0
 40
1.575
  0
CIRCLE
  5
257
330
1F
100
AcDbEntity
  8
VISIBLE
100
AcDbCircle
 10
192.9100509337864
 20
736.9350594227503
 30
0.0
 40
1.575
  0
CIRCLE
  5
258
330
1F
100
AcDbEntity
  8
VISIBLE
100
AcDbCircle
 10
192.9100509337864
 20
768.9350594227503
 30
0.0
 40
1.575
  0
LINE
  5
259
330
1F
100
AcDbEntity
  8
VISIBLE
100
AcDbLine
 10
150.7212228813681
 20
762.2683927560836
 30
0.0
 11
144.7212228813681
 21
762.2683927560836
 31
0.0
  0
LINE
  5
25A
330
1F
100
AcDbEntity
  8
VISIBLE
100
AcDbLine
 10
144.7212228813681
 20
762.2683927560836
 30
0.0
 11
144.7212228813681
 21
737.601726089417
 31
0.0
  0
LINE
  5
25B
330
1F
100
AcDbEntity
  8
VISIBLE
100
AcDbLine
 10
150.7212228813681
 20
737.601726089417
 30
0.0
 11
144.7212228813681
 21
737.601726089417
 31
0.0
  0
LINE
  5
25C
330
1F
100
AcDbEntity
  8
VISIBLE
100
AcDbLine
 10
150.7212228813681
 20
762.2683927560836
 30
0.0
 11
150.7212228813681
 21
737.601726089417
 31
0.0
  0
LINE
  5
25D
330
1F
100
AcDbEntity
  8
VISIBLE
100
AcDbLine
 10
105.4100509337864
 20
632.9350594227503
 30
0.0
 11
105.4100509337864
 21
638.9350594227503
 31
0.0
  0
LINE
  5
25E
330
1F
100
AcDbEntity
  8
VISIBLE
100
AcDbLine
 10
171.1100509337864
 20
792.9350594227503
 30
0.0
 11
152.3100509337864
 21
792.9350594227503
 31
0.0
  0
LINE
  5
25F
330
1F
100
AcDbEntity
  8
VISIBLE
100
AcDbLine
 10
143.4100509337864
 20
712.9350594227503
 30
0.0
 11
189.9100509337864
 21
712.9350594227503
 31
0.0
  0
LINE
  5
260
330
1F
100
AcDbEntity
  8
VISIBLE
100
AcDbLine
 10
95.91005093378635
 20
671.8239483116392
 30
0.0
 11
95.91005093378635
 21
688.2683927560836
 31
0.0
  0
LINE
  5
261
330
1F
100
AcDbEntity
  8
VISIBLE
100
AcDbLine
 10
95.91005093378635
 20
638.9350594227503
 30
0.0
 11
95.91005093378635
 21
655.3795038671948
 31
0.0
  0
LINE
  5
264
330
1F
100
AcDbEntity
  8
VISIBLE
100
AcDbLine
 10
501.7856663837015
 20
722.2136757215619
 30
0.0
 11
504.3356663837014
 21
722.2136757215619
 31
0.0
  0
LINE
  5
265
330
1F
100
AcDbEntity
  8
VISIBLE
100
AcDbLine
 10
501.7856663837015
 20
720.9636757215618
 30
0.0
 11
501.7856663837015
 21
722.2136757215619
 31
0.0
  0
LINE
  5
266
330
1F
100
AcDbEntity
  8
VISIBLE
100
AcDbLine
 10
500.8481663837015
 20
720.9636757215618
 30
0.0
 11
501.7856663837015
 21
720.9636757215618
 31
0.0
  0
LINE
  5
267
330
1F
100
AcDbEntity
  8
VISIBLE
100
AcDbLine
 10
500.8481663837015
 20
717.8136757215618
 30
0.0
 11
500.8481663837015
 21
720.9636757215618
 31
0.0
  0
LINE
  5
268
330
1F
100
AcDbEntity
  8
VISIBLE
100
AcDbLine
 10
500.8481663837015
 20
717.8136757215618
 30
0.0
 11
501.7856663837015
 21
717.8136757215618
 31
0.0
  0
LINE
  5
269
330
1F
100
AcDbEntity
  8
VISIBLE
100
AcDbLine
 10
501.7856663837015
 20
716.5636757215618
 30
0.0
 11
501.7856663837015
 21
717.8136757215618
 31
0.0
  0
LINE
  5
26A
330
1F
100
AcDbEntity
  8
VISIBLE
100
AcDbLine
 10
501.7856663837015
 20
716.5636757215618
 30
0.0
 11
504.3356663837014
 21
716.5636757215618
 31
0.0
  0
LINE
  5
26B
330
1F
100
AcDbEntity
  8
VISIBLE
100
AcDbLine
 10
504.3356663837014
 20
716.5636757215618
 30
0.0
 11
504.3356663837014
 21
717.8136757215618
 31
0.0
  0
LINE
  5
26C
330
1F
100
AcDbEntity
  8
VISIBLE
100
AcDbLine
 10
504.3356663837014
 20
717.8136757215618
 30
0.0
 11
509.9981663837015
 21
717.8136757215618
 31
0.0
  0
LINE
  5
26D
330
1F
100
AcDbEntity
  8
VISIBLE
100
AcDbLine
 10
515.9981663837015
 20
711.3886757215619
 30
0.0
 11
509.9981663837015
 21
711.3886757215619
 31
0.0
  0
LINE
  5
26E
330
1F
100
AcDbEntity
  8
VISIBLE
100
AcDbLine
 10
515.9981663837015
 20
695.3886757215619
 30
0.0
 11
515.9981663837015
 21
711.3886757215619
 31
0.0
  0
LINE
  5
26F
330
1F
100
AcDbEntity
  8
VISIBLE
100
AcDbLine
 10
515.9981663837015
 20
695.3886757215619
 30
0.0
 11
463.4981663837015
 21
695.3886757215619
 31
0.0
  0
LINE
  5
270
330
1F
100
AcDbEntity
  8
VISIBLE
100
AcDbLine
 10
463.4981663837015
 20
695.3886757215619
 30
0.0
 11
463.4981663837015
 21
775.3886757215619
 31
0.0
  0
LINE
  5
271
330
1F
100
AcDbEntity
  8
VISIBLE
100
AcDbLine
 10
473.9981663837015
 20
775.3886757215619
 30
0.0
 11
463.4981663837015
 21
775.3886757215619
 31
0.0
  0
LINE
  5
272
330
1F
100
AcDbEntity
  8
VISIBLE
100
AcDbLine
 10
473.9981663837015
 20
775.3886757215619
 30
0.0
 11
473.9981663837015
 21
769.3886757215619
 31
0.0
  0
LINE
  5
273
330
1F
100
AcDbEntity
  8
VISIBLE
100
AcDbLine
 10
473.9981663837015
 20
769.3886757215619
 30
0.0
 11
484.4981663837015
 21
769.3886757215619
 31
0.0
  0
LINE
  5
274
330
1F
100
AcDbEntity
  8
VISIBLE
100
AcDbLine
 10
484.4981663837015
 20
775.3886757215619
 30
0.0
 11
484.4981663837015
 21
769.3886757215619
 31
0.0
  0
LINE
  5
275
330
1F
100
AcDbEntity
  8
VISIBLE
100
AcDbLine
 10
494.9981663837015
 20
775.3886757215619
 30
0.0
 11
484.4981663837015
 21
775.3886757215619
 31
0.0
  0
LINE
  5
276
330
1F
100
AcDbEntity
  8
VISIBLE
100
AcDbLine
 10
494.9981663837015
 20
775.3886757215619
 30
0.0
 11
494.9981663837015
 21
769.3886757215619
 31
0.0
  0
LINE
  5
277
330
1F
100
AcDbEntity
  8
VISIBLE
100
AcDbLine
 10
494.9981663837015
 20
769.3886757215619
 30
0.0
 11
505.4981663837015
 21
769.3886757215619
 31
0.0
  0
LINE
  5
278
330
1F
100
AcDbEntity
  8
VISIBLE
100
AcDbLine
 10
505.4981663837015
 20
775.3886757215619
 30
0.0
 11
505.4981663837015
 21
769.3886757215619
 31
0.0
  0
LINE
  5
279
330
1F
100
AcDbEntity
  8
VISIBLE
100
AcDbLine
 10
515.9981663837015
 20
775.3886757215619
 30
0.0
 11
505.4981663837015
 21
775.3886757215619
 31
0.0
  0
LINE
  5
27A
330
1F
100
AcDbEntity
  8
VISIBLE
100
AcDbLine
 10
515.9981663837015
 20
759.3886757215619
 30
0.0
 11
515.9981663837015
 21
775.3886757215619
 31
0.0
  0
LINE
  5
27B
330
1F
100
AcDbEntity
  8
VISIBLE
100
AcDbLine
 10
515.9981663837015
 20
759.3886757215619
 30
0.0
 11
509.9981663837015
 21
759.3886757215619
 31
0.0
  0
LINE
  5
27C
330
1F
100
AcDbEntity
  8
VISIBLE
100
AcDbLine
 10
501.7856663837015
 20
754.2136757215618
 30
0.0
 11
504.3356663837014
 21
754.2136757215618
 31
0.0
  0
LINE
  5
27D
330
1F
100
AcDbEntity
  8
VISIBLE
100
AcDbLine
 10
501.7856663837015
 20
752.9636757215619
 30
0.0
 11
501.7856663837015
 21
754.2136757215618
 31
0.0
  0
LINE
  5
27E
330
1F
100
AcDbEntity
  8
VISIBLE
100
AcDbLine
 10
500.8481663837015
 20
752.9636757215619
 30
0.0
 11
501.7856663837015
 21
752.9636757215619
 31
0.0
  0
LINE
  5
27F
330
1F
100
AcDbEntity
  8
VISIBLE
100
AcDbLine
 10
501.7856663837015
 20
748.5636757215618
 30
0.0
 11
504.3356663837014
 21
748.5636757215618
 31
0.0
  0
LINE
  5
280
330
1F
100
AcDbEntity
  8
VISIBLE
100
AcDbLine
 10
504.3356663837014
 20
748.5636757215618
 30
0.0
 11
504.3356663837014
 21
749.8136757215618
 31
0.0
  0
LINE
  5
281
330
1F
100
AcDbEntity
  8
VISIBLE
100
AcDbLine
 10
515.9981663837015
 20
743.3886757215619
 30
0.0
 11
509.9981663837015
 21
743.3886757215619
 31
0.0
  0
LINE
  5
282
330
1F
100
AcDbEntity
  8
VISIBLE
100
AcDbLine
 10
515.9981663837015
 20
727.3886757215619
 30
0.0
 11
515.9981663837015
 21
743.3886757215619
 31
0.0
  0
LINE
  5
283
330
1F
100
AcDbEntity
  8
VISIBLE
100
AcDbLine
 10
515.9981663837015
 20
727.3886757215619
 30
0.0
 11
509.9981663837015
 21
727.3886757215619
 31
0.0
  0
CIRCLE
  5
284
330
1F
100
AcDbEntity
  8
VISIBLE
100
AcDbCircle
 10
489.7481663837015
 20
772.3886757215619
 30
0.0
 40
1.575
  0
LINE
  5
285
330
1F
100
AcDbEntity
  8
VISIBLE
100
AcDbLine
 10
500.8481663837015
 20
749.8136757215618
 30
0.0
 11
500.8481663837015
 21
752.9636757215619
 31
0.0
  0
LINE
  5
286
330
1F
100
AcDbEntity
  8
VISIBLE
100
AcDbLine
 10
500.8481663837015
 20
749.8136757215618
 30
0.0
 11
501.7856663837015
 21
749.8136757215618
 31
0.0
  0
LINE
  5
287
330
1F
100
AcDbEntity
  8
VISIBLE
100
AcDbLine
 10
501.7856663837015
 20
748.5636757215618
 30
0.0
 11
501.7856663837015
 21
749.8136757215618
 31
0.0
  0
LINE
  5
288
330
1F
100
AcDbEntity
  8
VISIBLE
100
AcDbLine
 10
509.9981663837015
 20
759.3886757215619
 30
0.0
 11
509.9981663837015
 21
752.9636757215619
 31
0.0
  0
LINE
  5
289
330
1F
100
AcDbEntity
  8
VISIBLE
100
AcDbLine
 10
509.9981663837015
 20
727.3886757215619
 30
0.0
 11
509.9981663837015
 21
720.9636757215618
 31
0.0
  0
LINE
  5
28A
330
1F
100
AcDbEntity
  8
VISIBLE
100
AcDbLine
 10
504.3356663837014
 20
749.8136757215618
 30
0.0
 11
509.9981663837015
 21
749.8136757215618
 31
0.0
  0
LINE
  5
28B
330
1F
100
AcDbEntity
  8
VISIBLE
100
AcDbLine
 10
504.3356663837014
 20
752.9636757215619
 30
0.0
 11
509.9981663837015
 21
752.9636757215619
 31
0.0
  0
LINE
  5
28C
330
1F
100
AcDbEntity
  8
VISIBLE
100
AcDbLine
 10
509.9981663837015
 20
717.8136757215618
 30
0.0
 11
509.9981663837015
 21
711.3886757215619
 31
0.0
  0
LINE
  5
28D
330
1F
100
AcDbEntity
  8
VISIBLE
100
AcDbLine
 10
504.3356663837014
 20
720.9636757215618
 30
0.0
 11
509.9981663837015
 21
720.9636757215618
 31
0.0
  0
LINE
  5
28E
330
1F
100
AcDbEntity
  8
VISIBLE
100
AcDbLine
 10
504.3356663837014
 20
752.9636757215619
 30
0.0
 11
504.3356663837014
 21
754.2136757215618
 31
0.0
  0
LINE
  5
28F
330
1F
100
AcDbEntity
  8
VISIBLE
100
AcDbLine
 10
509.9981663837015
 20
749.8136757215618
 30
0.0
 11
509.9981663837015
 21
743.3886757215619
 31
0.0
  0
LINE
  5
290
330
1F
100
AcDbEntity
  8
VISIBLE
100
AcDbLine
 10
504.3356663837014
 20
720.9636757215618
 30
0.0
 11
504.3356663837014
 21
722.2136757215619
 31
0.0
  0
CIRCLE
  5
291
330
1F
100
AcDbEntity
  8
VISIBLE
100
AcDbCircle
 10
505.9981663837015
 20
577.8886757215619
 30
0.0
 40
1.909040813359492
  0
LINE
  5
292
330
1F
100
AcDbEntity
  8
VISIBLE
100
AcDbLine
 10
486.9231663837015
 20
591.1761757215619
 30
0.0
 11
486.9231663837015
 21
593.7261757215618
 31
0.0
  0
LINE
  5
293
330
1F
100
AcDbEntity
  8
VISIBLE
100
AcDbLine
 10
488.1731663837015
 20
591.1761757215619
 30
0.0
 11
486.9231663837015
 21
591.1761757215619
 31
0.0
  0
LINE
  5
294
330
1F
100
AcDbEntity
  8
VISIBLE
100
AcDbLine
 10
488.1731663837015
 20
590.2386757215619
 30
0.0
 11
488.1731663837015
 21
591.1761757215619
 31
0.0
  0
LINE
  5
295
330
1F
100
AcDbEntity
  8
VISIBLE
100
AcDbLine
 10
491.3231663837014
 20
590.2386757215619
 30
0.0
 11
488.1731663837015
 21
590.2386757215619
 31
0.0
  0
LINE
  5
296
330
1F
100
AcDbEntity
  8
VISIBLE
100
AcDbLine
 10
491.3231663837014
 20
590.2386757215619
 30
0.0
 11
491.3231663837014
 21
591.1761757215619
 31
0.0
  0
LINE
  5
297
330
1F
100
AcDbEntity
  8
VISIBLE
100
AcDbLine
 10
492.5731663837014
 20
591.1761757215619
 30
0.0
 11
491.3231663837014
 21
591.1761757215619
 31
0.0
  0
LINE
  5
298
330
1F
100
AcDbEntity
  8
VISIBLE
100
AcDbLine
 10
492.5731663837014
 20
591.1761757215619
 30
0.0
 11
492.5731663837014
 21
593.7261757215618
 31
0.0
  0
LINE
  5
299
330
1F
100
AcDbEntity
  8
VISIBLE
100
AcDbLine
 10
492.5731663837014
 20
593.7261757215618
 30
0.0
 11
491.3231663837014
 21
593.7261757215618
 31
0.0
  0
LINE
  5
29A
330
1F
100
AcDbEntity
  8
VISIBLE
100
AcDbLine
 10
491.3231663837014
 20
593.7261757215618
 30
0.0
 11
491.3231663837014
 21
599.3886757215619
 31
0.0
  0
LINE
  5
29B
330
1F
100
AcDbEntity
  8
VISIBLE
100
AcDbLine
 10
491.3231663837014
 20
599.3886757215619
 30
0.0
 11
494.9981663837015
 21
599.3886757215619
 31
0.0
  0
LINE
  5
29C
330
1F
100
AcDbEntity
  8
VISIBLE
100
AcDbLine
 10
494.9981663837015
 20
605.3886757215619
 30
0.0
 11
494.9981663837015
 21
599.3886757215619
 31
0.0
  0
LINE
  5
29D
330
1F
100
AcDbEntity
  8
VISIBLE
100
AcDbLine
 10
494.9981663837015
 20
605.3886757215619
 30
0.0
 11
505.4981663837015
 21
605.3886757215619
 31
0.0
  0
LINE
  5
29E
330
1F
100
AcDbEntity
  8
VISIBLE
100
AcDbLine
 10
505.4981663837015
 20
599.3886757215619
 30
0.0
 11
515.9981663837015
 21
599.3886757215619
 31
0.0
  0
LINE
  5
29F
330
1F
100
AcDbEntity
  8
VISIBLE
100
AcDbLine
 10
505.4981663837015
 20
500.3886757215619
 30
0.0
 11
505.4981663837015
 21
506.3886757215619
 31
0.0
  0
LINE
  5
2A0
330
1F
100
AcDbEntity
  8
VISIBLE
100
AcDbLine
 10
494.9981663837015
 20
500.3886757215619
 30
0.0
 11
505.4981663837015
 21
500.3886757215619
 31
0.0
  0
LINE
  5
2A1
330
1F
100
AcDbEntity
  8
VISIBLE
100
AcDbLine
 10
494.9981663837015
 20
500.3886757215619
 30
0.0
 11
494.9981663837015
 21
506.3886757215619
 31
0.0
  0
LINE
  5
2A2
330
1F
100
AcDbEntity
  8
VISIBLE
100
AcDbLine
 10
494.9981663837015
 20
506.3886757215619
 30
0.0
 11
491.3231663837014
 21
506.3886757215619
 31
0.0
  0
LINE
  5
2A3
330
1F
100
AcDbEntity
  8
VISIBLE
100
AcDbLine
 10
491.3231663837014
 20
512.0511757215619
 30
0.0
 11
491.3231663837014
 21
506.3886757215619
 31
0.0
  0
LINE
  5
2A4
330
1F
100
AcDbEntity
  8
VISIBLE
100
AcDbLine
 10
491.3231663837014
 20
512.0511757215619
 30
0.0
 11
492.5731663837014
 21
512.0511757215619
 31
0.0
  0
LINE
  5
2A5
330
1F
100
AcDbEntity
  8
VISIBLE
100
AcDbLine
 10
492.5731663837014
 20
514.6011757215618
 30
0.0
 11
492.5731663837014
 21
512.0511757215619
 31
0.0
  0
LINE
  5
2A6
330
1F
100
AcDbEntity
  8
VISIBLE
100
AcDbLine
 10
491.3231663837014
 20
514.6011757215618
 30
0.0
 11
492.5731663837014
 21
514.6011757215618
 31
0.0
  0
LINE
  5
2A7
330
1F
100
AcDbEntity
  8
VISIBLE
100
AcDbLine
 10
491.3231663837014
 20
515.5386757215618
 30
0.0
 11
491.3231663837014
 21
514.6011757215618
 31
0.0
  0
LINE
  5
2A8
330
1F
100
AcDbEntity
  8
VISIBLE
100
AcDbLine
 10
488.1731663837015
 20
515.5386757215618
 30
0.0
 11
491.3231663837014
 21
515.5386757215618
 31
0.0
  0
LINE
  5
2A9
330
1F
100
AcDbEntity
  8
VISIBLE
100
AcDbLine
 10
488.1731663837015
 20
515.5386757215618
 30
0.0
 11
488.1731663837015
 21
514.6011757215618
 31
0.0
  0
LINE
  5
2AA
330
1F
100
AcDbEntity
  8
VISIBLE
100
AcDbLine
 10
486.9231663837015
 20
514.6011757215618
 30
0.0
 11
488.1731663837015
 21
514.6011757215618
 31
0.0
  0
LINE
  5
2AB
330
1F
100
AcDbEntity
  8
VISIBLE
100
AcDbLine
 10
486.9231663837015
 20
514.6011757215618
 30
0.0
 11
486.9231663837015
 21
512.0511757215619
 31
0.0
  0
LINE
  5
2AC
330
1F
100
AcDbEntity
  8
VISIBLE
100
AcDbLine
 10
486.9231663837015
 20
512.0511757215619
 30
0.0
 11
488.1731663837015
 21
512.0511757215619
 31
0.0
  0
LINE
  5
2AD
330
1F
100
AcDbEntity
  8
VISIBLE
100
AcDbLine
 10
488.1731663837015
 20
512.0511757215619
 30
0.0
 11
488.1731663837015
 21
506.3886757215619
 31
0.0
  0
LINE
  5
2AE
330
1F
100
AcDbEntity
  8
VISIBLE
100
AcDbLine
 10
488.1731663837015
 20
506.3886757215619
 30
0.0
 11
484.4981663837015
 21
506.3886757215619
 31
0.0
  0
LINE
  5
2AF
330
1F
100
AcDbEntity
  8
VISIBLE
100
AcDbLine
 10
484.4981663837015
 20
500.3886757215619
 30
0.0
 11
484.4981663837015
 21
506.3886757215619
 31
0.0
  0
LINE
  5
2B0
330
1F
100
AcDbEntity
  8
VISIBLE
100
AcDbLine
 10
473.9981663837015
 20
500.3886757215619
 30
0.0
 11
484.4981663837015
 21
500.3886757215619
 31
0.0
  0
LINE
  5
2B1
330
1F
100
AcDbEntity
  8
VISIBLE
100
AcDbLine
 10
473.9981663837015
 20
500.3886757215619
 30
0.0
 11
473.9981663837015
 21
506.3886757215619
 31
0.0
  0
LINE
  5
2B2
330
1F
100
AcDbEntity
  8
VISIBLE
100
AcDbLine
 10
473.9981663837015
 20
506.3886757215619
 30
0.0
 11
463.4981663837015
 21
506.3886757215619
 31
0.0
  0
LINE
  5
2B3
330
1F
100
AcDbEntity
  8
VISIBLE
100
AcDbLine
 10
463.4981663837015
 20
524.9886757215619
 30
0.0
 11
463.4981663837015
 21
506.3886757215619
 31
0.0
  0
LINE
  5
2B4
330
1F
100
AcDbEntity
  8
VISIBLE
100
AcDbLine
 10
469.4981663837015
 20
524.9886757215619
 30
0.0
 11
469.4981663837015
 21
532.7136757215619
 31
0.0
  0
LINE
  5
2B5
330
1F
100
AcDbEntity
  8
VISIBLE
100
AcDbLine
 10
475.1606663837015
 20
532.7136757215619
 30
0.0
 11
469.4981663837015
 21
532.7136757215619
 31
0.0
  0
LINE
  5
2B6
330
1F
100
AcDbEntity
  8
VISIBLE
100
AcDbLine
 10
475.1606663837015
 20
532.7136757215619
 30
0.0
 11
475.1606663837015
 21
531.4636757215619
 31
0.0
  0
LINE
  5
2B7
330
1F
100
AcDbEntity
  8
VISIBLE
100
AcDbLine
 10
477.7106663837014
 20
531.4636757215619
 30
0.0
 11
475.1606663837015
 21
531.4636757215619
 31
0.0
  0
LINE
  5
2B8
330
1F
100
AcDbEntity
  8
VISIBLE
100
AcDbLine
 10
477.7106663837014
 20
532.7136757215619
 30
0.0
 11
477.7106663837014
 21
531.4636757215619
 31
0.0
  0
LINE
  5
2B9
330
1F
100
AcDbEntity
  8
VISIBLE
100
AcDbLine
 10
478.6481663837014
 20
532.7136757215619
 30
0.0
 11
477.7106663837014
 21
532.7136757215619
 31
0.0
  0
LINE
  5
2BA
330
1F
100
AcDbEntity
  8
VISIBLE
100
AcDbLine
 10
478.6481663837014
 20
535.8636757215619
 30
0.0
 11
478.6481663837014
 21
532.7136757215619
 31
0.0
  0
LINE
  5
2BB
330
1F
100
AcDbEntity
  8
VISIBLE
100
AcDbLine
 10
478.6481663837014
 20
535.8636757215619
 30
0.0
 11
477.7106663837014
 21
535.8636757215619
 31
0.0
  0
LINE
  5
2BC
330
1F
100
AcDbEntity
  8
VISIBLE
100
AcDbLine
 10
477.7106663837014
 20
537.1136757215619
 30
0.0
 11
477.7106663837014
 21
535.8636757215619
 31
0.0
  0
LINE
  5
2BD
330
1F
100
AcDbEntity
  8
VISIBLE
100
AcDbLine
 10
477.7106663837014
 20
537.1136757215619
 30
0.0
 11
475.1606663837015
 21
537.1136757215619
 31
0.0
  0
LINE
  5
2BE
330
1F
100
AcDbEntity
  8
VISIBLE
100
AcDbLine
 10
475.1606663837015
 20
537.1136757215619
 30
0.0
 11
475.1606663837015
 21
535.8636757215619
 31
0.0
  0
LINE
  5
2BF
330
1F
100
AcDbEntity
  8
VISIBLE
100
AcDbLine
 10
475.1606663837015
 20
535.8636757215619
 30
0.0
 11
469.4981663837015
 21
535.8636757215619
 31
0.0
  0
LINE
  5
2C0
330
1F
100
AcDbEntity
  8
VISIBLE
100
AcDbLine
 10
469.4981663837015
 20
535.8636757215619
 30
0.0
 11
469.4981663837015
 21
543.5886757215619
 31
0.0
  0
LINE
  5
2C1
330
1F
100
AcDbEntity
  8
VISIBLE
100
AcDbLine
 10
463.4981663837015
 20
543.5886757215619
 30
0.0
 11
469.4981663837015
 21
543.5886757215619
 31
0.0
  0
LINE
  5
2C2
330
1F
100
AcDbEntity
  8
VISIBLE
100
AcDbLine
 10
463.4981663837015
 20
562.1886757215618
 30
0.0
 11
463.4981663837015
 21
543.5886757215619
 31
0.0
  0
LINE
  5
2C3
330
1F
100
AcDbEntity
  8
VISIBLE
100
AcDbLine
 10
463.4981663837015
 20
562.1886757215618
 30
0.0
 11
469.4981663837015
 21
562.1886757215618
 31
0.0
  0
LINE
  5
2C4
330
1F
100
AcDbEntity
  8
VISIBLE
100
AcDbLine
 10
469.4981663837015
 20
562.1886757215618
 30
0.0
 11
469.4981663837015
 21
569.9136757215618
 31
0.0
  0
LINE
  5
2C5
330
1F
100
AcDbEntity
  8
VISIBLE
100
AcDbLine
 10
475.1606663837015
 20
569.9136757215618
 30
0.0
 11
469.4981663837015
 21
569.9136757215618
 31
0.0
  0
LINE
  5
2C6
330
1F
100
AcDbEntity
  8
VISIBLE
100
AcDbLine
 10
475.1606663837015
 20
569.9136757215618
 30
0.0
 11
475.1606663837015
 21
568.663675721562
 31
0.0
  0
LINE
  5
2C7
330
1F
100
AcDbEntity
  8
VISIBLE
100
AcDbLine
 10
477.7106663837014
 20
568.663675721562
 30
0.0
 11
475.1606663837015
 21
568.663675721562
 31
0.0
  0
LINE
  5
2C8
330
1F
100
AcDbEntity
  8
VISIBLE
100
AcDbLine
 10
477.7106663837014
 20
569.9136757215618
 30
0.0
 11
477.7106663837014
 21
568.663675721562
 31
0.0
  0
LINE
  5
2C9
330
1F
100
AcDbEntity
  8
VISIBLE
100
AcDbLine
 10
478.6481663837014
 20
569.9136757215618
 30
0.0
 11
477.7106663837014
 21
569.9136757215618
 31
0.0
  0
LINE
  5
2CA
330
1F
100
AcDbEntity
  8
VISIBLE
100
AcDbLine
 10
478.6481663837014
 20
573.0636757215618
 30
0.0
 11
478.6481663837014
 21
569.9136757215618
 31
0.0
  0
LINE
  5
2CB
330
1F
100
AcDbEntity
  8
VISIBLE
100
AcDbLine
 10
478.6481663837014
 20
573.0636757215618
 30
0.0
 11
477.7106663837014
 21
573.0636757215618
 31
0.0
  0
LINE
  5
2CC
330
1F
100
AcDbEntity
  8
VISIBLE
100
AcDbLine
 10
477.7106663837014
 20
574.3136757215618
 30
0.0
 11
477.7106663837014
 21
573.0636757215618
 31
0.0
  0
LINE
  5
2CD
330
1F
100
AcDbEntity
  8
VISIBLE
100
AcDbLine
 10
477.7106663837014
 20
574.3136757215618
 30
0.0
 11
475.1606663837015
 21
574.3136757215618
 31
0.0
  0
LINE
  5
2CE
330
1F
100
AcDbEntity
  8
VISIBLE
100
AcDbLine
 10
475.1606663837015
 20
574.3136757215618
 30
0.0
 11
475.1606663837015
 21
573.0636757215618
 31
0.0
  0
LINE
  5
2CF
330
1F
100
AcDbEntity
  8
VISIBLE
100
AcDbLine
 10
475.1606663837015
 20
573.0636757215618
 30
0.0
 11
469.4981663837015
 21
573.0636757215618
 31
0.0
  0
LINE
  5
2D0
330
1F
100
AcDbEntity
  8
VISIBLE
100
AcDbLine
 10
463.4981663837015
 20
599.3886757215619
 30
0.0
 11
463.4981663837015
 21
580.7886757215618
 31
0.0
  0
LINE
  5
2D1
330
1F
100
AcDbEntity
  8
VISIBLE
100
AcDbLine
 10
473.9981663837015
 20
605.3886757215619
 30
0.0
 11
473.9981663837015
 21
599.3886757215619
 31
0.0
  0
LINE
  5
2D2
330
1F
100
AcDbEntity
  8
VISIBLE
100
AcDbLine
 10
473.9981663837015
 20
605.3886757215619
 30
0.0
 11
484.4981663837015
 21
605.3886757215619
 31
0.0
  0
LINE
  5
2D3
330
1F
100
AcDbEntity
  8
VISIBLE
100
AcDbLine
 10
484.4981663837015
 20
599.3886757215619
 30
0.0
 11
488.1731663837015
 21
599.3886757215619
 31
0.0
  0
LINE
  5
2D4
330
1F
100
AcDbEntity
  8
VISIBLE
100
AcDbLine
 10
488.1731663837015
 20
593.7261757215618
 30
0.0
 11
488.1731663837015
 21
599.3886757215619
 31
0.0
  0
LINE
  5
2D5
330
1F
100
AcDbEntity
  8
VISIBLE
100
AcDbLine
 10
488.1731663837015
 20
593.7261757215618
 30
0.0
 11
486.9231663837015
 21
593.7261757215618
 31
0.0
  0
CIRCLE
  5
2D6
330
1F
100
AcDbEntity
  8
VISIBLE
100
AcDbCircle
 10
505.9981663837015
 20
552.8886757215619
 30
0.0
 40
1.849999999999997
  0
CIRCLE
  5
2D7
330
1F
100
AcDbEntity
  8
VISIBLE
100
AcDbCircle
 10
505.9981663837014
 20
527.8886757215619
 30
0.0
 40
1.909040813359488
  0
LINE
  5
2D8
330
1F
100
AcDbEntity
  8
VISIBLE
100
AcDbLine
 10
505.4981663837015
 20
605.3886757215619
 30
0.0
 11
505.4981663837015
 21
599.3886757215619
 31
0.0
  0
LINE
  5
2D9
330
1F
100
AcDbEntity
  8
VISIBLE
100
AcDbLine
 10
515.9981663837015
 20
599.3886757215619
 30
0.0
 11
515.9981663837015
 21
506.3886757215619
 31
0.0
  0
LINE
  5
2DA
330
1F
100
AcDbEntity
  8
VISIBLE
100
AcDbLine
 10
484.4981663837015
 20
605.3886757215619
 30
0.0
 11
484.4981663837015
 21
599.3886757215619
 31
0.0
  0
LINE
  5
2DB
330
1F
100
AcDbEntity
  8
VISIBLE
100
AcDbLine
 10
515.9981663837015
 20
506.3886757215619
 30
0.0
 11
505.4981663837015
 21
506.3886757215619
 31
0.0
  0
LINE
  5
2DC
330
1F
100
AcDbEntity
  8
VISIBLE
100
AcDbLine
 10
463.4981663837015
 20
524.9886757215619
 30
0.0
 11
469.4981663837015
 21
524.9886757215619
 31
0.0
  0
LINE
  5
2DD
330
1F
100
AcDbEntity
  8
VISIBLE
100
AcDbLine
 10
469.4981663837015
 20
573.0636757215618
 30
0.0
 11
469.4981663837015
 21
580.7886757215618
 31
0.0
  0
LINE
  5
2DE
330
1F
100
AcDbEntity
  8
VISIBLE
100
AcDbLine
 10
463.4981663837015
 20
580.7886757215618
 30
0.0
 11
469.4981663837015
 21
580.7886757215618
 31
0.0
  0
LINE
  5
2DF
330
1F
100
AcDbEntity
  8
VISIBLE
100
AcDbLine
 10
463.4981663837015
 20
599.3886757215619
 30
0.0
 11
473.9981663837015
 21
599.3886757215619
 31
0.0
  0
LINE
  5
2E0
330
1F
100
AcDbEntity
  8
VISIBLE
100
AcDbLine
 10
527.4981663837015
 20
390.3886757215619
 30
0.0
 11
527.4981663837015
 21
396.3886757215619
 31
0.0
  0
LINE
  5
2E1
330
1F
100
AcDbEntity
  8
VISIBLE
100
AcDbLine
 10
511.4981663837015
 20
390.3886757215619
 30
0.0
 11
511.4981663837015
 21
396.3886757215619
 31
0.0
  0
LINE
  5
2E2
330
1F
100
AcDbEntity
  8
VISIBLE
100
AcDbLine
 10
479.4981663837015
 20
495.3886757215619
 30
0.0
 11
495.4981663837015
 21
495.3886757215619
 31
0.0
  0
LINE
  5
2E3
330
1F
100
AcDbEntity
  8
VISIBLE
100
AcDbLine
 10
495.4981663837015
 20
489.3886757215619
 30
0.0
 11
511.4981663837015
 21
489.3886757215619
 31
0.0
  0
CIRCLE
  5
2E4
330
1F
100
AcDbEntity
  8
VISIBLE
100
AcDbCircle
 10
487.4981663837015
 20
393.3886757215619
 30
0.0
 40
1.575
  0
CIRCLE
  5
2E5
330
1F
100
AcDbEntity
  8
VISIBLE
100
AcDbCircle
 10
540.4981663837015
 20
461.4886757215619
 30
0.0
 40
1.574999999999993
  0
LINE
  5
2E6
330
1F
100
AcDbEntity
  8
VISIBLE
100
AcDbLine
 10
537.4981663837015
 20
396.3886757215619
 30
0.0
 11
527.4981663837015
 21
396.3886757215619
 31
0.0
  0
LINE
  5
2E7
330
1F
100
AcDbEntity
  8
VISIBLE
100
AcDbLine
 10
543.4981663837015
 20
433.5886757215619
 30
0.0
 11
543.4981663837015
 21
414.9886757215619
 31
0.0
  0
LINE
  5
2E8
330
1F
100
AcDbEntity
  8
VISIBLE
100
AcDbLine
 10
543.4981663837015
 20
470.7886757215618
 30
0.0
 11
543.4981663837015
 21
452.1886757215619
 31
0.0
  0
CIRCLE
  5
2E9
330
1F
100
AcDbEntity
  8
VISIBLE
100
AcDbCircle
 10
540.4981663837015
 20
424.2886757215618
 30
0.0
 40
1.575
  0
CIRCLE
  5
2EA
330
1F
100
AcDbEntity
  8
VISIBLE
100
AcDbCircle
 10
519.4981663837015
 20
393.3886757215619
 30
0.0
 40
1.575
  0
CIRCLE
  5
2EB
330
1F
100
AcDbEntity
  8
VISIBLE
100
AcDbCircle
 10
487.4981663837015
 20
492.3886757215619
 30
0.0
 40
1.575
  0
CIRCLE
  5
2EC
330
1F
100
AcDbEntity
  8
VISIBLE
100
AcDbCircle
 10
519.4981663837015
 20
492.3886757215619
 30
0.0
 40
1.575
  0
LINE
  5
2ED
330
1F
100
AcDbEntity
  8
VISIBLE
100
AcDbLine
 10
543.4981663837015
 20
414.9886757215619
 30
0.0
 11
537.4981663837015
 21
414.9886757215619
 31
0.0
  0
LINE
  5
2EE
330
1F
100
AcDbEntity
  8
VISIBLE
100
AcDbLine
 10
537.4981663837015
 20
414.9886757215619
 30
0.0
 11
537.4981663837015
 21
396.3886757215619
 31
0.0
  0
LINE
  5
2EF
330
1F
100
AcDbEntity
  8
VISIBLE
100
AcDbLine
 10
537.4981663837015
 20
489.3886757215619
 30
0.0
 11
537.4981663837015
 21
470.7886757215618
 31
0.0
  0
LINE
  5
2F0
330
1F
100
AcDbEntity
  8
VISIBLE
100
AcDbLine
 10
543.4981663837015
 20
470.7886757215618
 30
0.0
 11
537.4981663837015
 21
470.7886757215618
 31
0.0
  0
LINE
  5
2F1
330
1F
100
AcDbEntity
  8
VISIBLE
100
AcDbLine
 10
543.4981663837015
 20
452.1886757215619
 30
0.0
 11
537.4981663837015
 21
452.1886757215619
 31
0.0
  0
LINE
  5
2F2
330
1F
100
AcDbEntity
  8
VISIBLE
100
AcDbLine
 10
537.4981663837015
 20
452.1886757215619
 30
0.0
 11
537.4981663837015
 21
433.5886757215619
 31
0.0
  0
LINE
  5
2F3
330
1F
100
AcDbEntity
  8
VISIBLE
100
AcDbLine
 10
543.4981663837015
 20
433.5886757215619
 30
0.0
 11
537.4981663837015
 21
433.5886757215619
 31
0.0
  0
LINE
  5
2F4
330
1F
100
AcDbEntity
  8
VISIBLE
100
AcDbLine
 10
463.4981663837015
 20
489.3886757215619
 30
0.0
 11
479.4981663837015
 21
489.3886757215619
 31
0.0
  0
LINE
  5
2F5
330
1F
100
AcDbEntity
  8
VISIBLE
100
AcDbLine
 10
479.4981663837015
 20
495.3886757215619
 30
0.0
 11
479.4981663837015
 21
489.3886757215619
 31
0.0
  0
LINE
  5
2F6
330
1F
100
AcDbEntity
  8
VISIBLE
100
AcDbLine
 10
527.4981663837015
 20
495.3886757215619
 30
0.0
 11
527.4981663837015
 21
489.3886757215619
 31
0.0
  0
LINE
  5
2F7
330
1F
100
AcDbEntity
  8
VISIBLE
100
AcDbLine
 10
527.4981663837015
 20
489.3886757215619
 30
0.0
 11
537.4981663837015
 21
489.3886757215619
 31
0.0
  0
LINE
  5
2F8
330
1F
100
AcDbEntity
  8
VISIBLE
100
AcDbLine
 10
495.4981663837015
 20
495.3886757215619
 30
0.0
 11
495.4981663837015
 21
489.3886757215619
 31
0.0
  0
LINE
  5
2F9
330
1F
100
AcDbEntity
  8
VISIBLE
100
AcDbLine
 10
511.4981663837015
 20
495.3886757215619
 30
0.0
 11
511.4981663837015
 21
489.3886757215619
 31
0.0
  0
LINE
  5
2FA
330
1F
100
AcDbEntity
  8
VISIBLE
100
AcDbLine
 10
479.4981663837015
 20
396.3886757215619
 30
0.0
 11
463.4981663837015
 21
396.3886757215619
 31
0.0
  0
LINE
  5
2FB
330
1F
100
AcDbEntity
  8
VISIBLE
100
AcDbLine
 10
495.4981663837015
 20
390.3886757215619
 30
0.0
 11
495.4981663837015
 21
396.3886757215619
 31
0.0
  0
LINE
  5
2FC
330
1F
100
AcDbEntity
  8
VISIBLE
100
AcDbLine
 10
463.4981663837015
 20
489.3886757215619
 30
0.0
 11
463.4981663837015
 21
396.3886757215619
 31
0.0
  0
LINE
  5
2FD
330
1F
100
AcDbEntity
  8
VISIBLE
100
AcDbLine
 10
479.4981663837015
 20
390.3886757215619
 30
0.0
 11
495.4981663837015
 21
390.3886757215619
 31
0.0
  0
LINE
  5
2FE
330
1F
100
AcDbEntity
  8
VISIBLE
100
AcDbLine
 10
511.4981663837015
 20
390.3886757215619
 30
0.0
 11
527.4981663837015
 21
390.3886757215619
 31
0.0
  0
LINE
  5
2FF
330
1F
100
AcDbEntity
  8
VISIBLE
100
AcDbLine
 10
511.4981663837015
 20
495.3886757215619
 30
0.0
 11
527.4981663837015
 21
495.3886757215619
 31
0.0
  0
LINE
  5
300
330
1F
100
AcDbEntity
  8
VISIBLE
100
AcDbLine
 10
511.4981663837015
 20
396.3886757215619
 30
0.0
 11
495.4981663837015
 21
396.3886757215619
 31
0.0
  0
LINE
  5
301
330
1F
100
AcDbEntity
  8
VISIBLE
100
AcDbLine
 10
479.4981663837015
 20
390.3886757215619
 30
0.0
 11
479.4981663837015
 21
396.3886757215619
 31
0.0
  0
LINE
  5
302
330
1F
100
AcDbEntity
  8
VISIBLE
100
AcDbLine
 10
475.1606663837015
 20
663.5636757215618
 30
0.0
 11
475.1606663837015
 21
664.8136757215618
 31
0.0
  0
LINE
  5
303
330
1F
100
AcDbEntity
  8
VISIBLE
100
AcDbLine
 10
475.1606663837015
 20
663.5636757215618
 30
0.0
 11
477.7106663837014
 21
663.5636757215618
 31
0.0
  0
LINE
  5
304
330
1F
100
AcDbEntity
  8
VISIBLE
100
AcDbLine
 10
477.7106663837014
 20
663.5636757215618
 30
0.0
 11
477.7106663837014
 21
664.8136757215618
 31
0.0
  0
LINE
  5
305
330
1F
100
AcDbEntity
  8
VISIBLE
100
AcDbLine
 10
477.7106663837014
 20
664.8136757215618
 30
0.0
 11
478.6481663837015
 21
664.8136757215618
 31
0.0
  0
LINE
  5
306
330
1F
100
AcDbEntity
  8
VISIBLE
100
AcDbLine
 10
478.6481663837015
 20
664.8136757215618
 30
0.0
 11
478.6481663837015
 21
667.9636757215619
 31
0.0
  0
LINE
  5
307
330
1F
100
AcDbEntity
  8
VISIBLE
100
AcDbLine
 10
477.7106663837014
 20
667.9636757215619
 30
0.0
 11
478.6481663837015
 21
667.9636757215619
 31
0.0
  0
LINE
  5
308
330
1F
100
AcDbEntity
  8
VISIBLE
100
AcDbLine
 10
477.7106663837014
 20
667.9636757215619
 30
0.0
 11
477.7106663837014
 21
669.2136757215619
 31
0.0
  0
LINE
  5
309
330
1F
100
AcDbEntity
  8
VISIBLE
100
AcDbLine
 10
475.1606663837015
 20
669.2136757215619
 30
0.0
 11
477.7106663837014
 21
669.2136757215619
 31
0.0
  0
LINE
  5
30A
330
1F
100
AcDbEntity
  8
VISIBLE
100
AcDbLine
 10
475.1606663837015
 20
667.9636757215619
 30
0.0
 11
475.1606663837015
 21
669.2136757215619
 31
0.0
  0
LINE
  5
30B
330
1F
100
AcDbEntity
  8
VISIBLE
100
AcDbLine
 10
469.4981663837015
 20
667.9636757215619
 30
0.0
 11
475.1606663837015
 21
667.9636757215619
 31
0.0
  0
LINE
  5
30C
330
1F
100
AcDbEntity
  8
VISIBLE
100
AcDbLine
 10
469.4981663837015
 20
667.9636757215619
 30
0.0
 11
469.4981663837015
 21
674.3886757215619
 31
0.0
  0
LINE
  5
30D
330
1F
100
AcDbEntity
  8
VISIBLE
100
AcDbLine
 10
463.4981663837015
 20
674.3886757215619
 30
0.0
 11
469.4981663837015
 21
674.3886757215619
 31
0.0
  0
LINE
  5
30E
330
1F
100
AcDbEntity
  8
VISIBLE
100
AcDbLine
 10
473.9981663837015
 20
690.3886757215619
 30
0.0
 11
473.9981663837015
 21
684.3886757215619
 31
0.0
  0
LINE
  5
30F
330
1F
100
AcDbEntity
  8
VISIBLE
100
AcDbLine
 10
473.9981663837015
 20
684.3886757215619
 30
0.0
 11
484.4981663837015
 21
684.3886757215619
 31
0.0
  0
LINE
  5
310
330
1F
100
AcDbEntity
  8
VISIBLE
100
AcDbLine
 10
484.4981663837015
 20
690.3886757215619
 30
0.0
 11
484.4981663837015
 21
684.3886757215619
 31
0.0
  0
LINE
  5
311
330
1F
100
AcDbEntity
  8
VISIBLE
100
AcDbLine
 10
494.9981663837015
 20
690.3886757215619
 30
0.0
 11
494.9981663837015
 21
684.3886757215619
 31
0.0
  0
LINE
  5
312
330
1F
100
AcDbEntity
  8
VISIBLE
100
AcDbLine
 10
494.9981663837015
 20
684.3886757215619
 30
0.0
 11
505.4981663837015
 21
684.3886757215619
 31
0.0
  0
LINE
  5
313
330
1F
100
AcDbEntity
  8
VISIBLE
100
AcDbLine
 10
505.4981663837015
 20
690.3886757215619
 30
0.0
 11
505.4981663837015
 21
684.3886757215619
 31
0.0
  0
LINE
  5
314
330
1F
100
AcDbEntity
  8
VISIBLE
100
AcDbLine
 10
515.9981663837015
 20
610.3886757215619
 30
0.0
 11
515.9981663837015
 21
690.3886757215619
 31
0.0
  0
LINE
  5
315
330
1F
100
AcDbEntity
  8
VISIBLE
100
AcDbLine
 10
463.4981663837015
 20
610.3886757215619
 30
0.0
 11
515.9981663837015
 21
610.3886757215619
 31
0.0
  0
LINE
  5
316
330
1F
100
AcDbEntity
  8
VISIBLE
100
AcDbLine
 10
463.4981663837015
 20
610.3886757215619
 30
0.0
 11
463.4981663837015
 21
626.3886757215619
 31
0.0
  0
LINE
  5
317
330
1F
100
AcDbEntity
  8
VISIBLE
100
AcDbLine
 10
463.4981663837015
 20
626.3886757215619
 30
0.0
 11
469.4981663837015
 21
626.3886757215619
 31
0.0
  0
LINE
  5
318
330
1F
100
AcDbEntity
  8
VISIBLE
100
AcDbLine
 10
469.4981663837015
 20
632.8136757215618
 30
0.0
 11
475.1606663837015
 21
632.8136757215619
 31
0.0
  0
LINE
  5
319
330
1F
100
AcDbEntity
  8
VISIBLE
100
AcDbLine
 10
475.1606663837015
 20
631.5636757215618
 30
0.0
 11
475.1606663837015
 21
632.8136757215619
 31
0.0
  0
LINE
  5
31A
330
1F
100
AcDbEntity
  8
VISIBLE
100
AcDbLine
 10
475.1606663837015
 20
631.5636757215618
 30
0.0
 11
477.7106663837014
 21
631.5636757215618
 31
0.0
  0
LINE
  5
31B
330
1F
100
AcDbEntity
  8
VISIBLE
100
AcDbLine
 10
477.7106663837014
 20
631.5636757215618
 30
0.0
 11
477.7106663837014
 21
632.8136757215618
 31
0.0
  0
LINE
  5
31C
330
1F
100
AcDbEntity
  8
VISIBLE
100
AcDbLine
 10
477.7106663837014
 20
632.8136757215618
 30
0.0
 11
478.6481663837014
 21
632.8136757215618
 31
0.0
  0
LINE
  5
31D
330
1F
100
AcDbEntity
  8
VISIBLE
100
AcDbLine
 10
478.6481663837014
 20
632.8136757215618
 30
0.0
 11
478.6481663837014
 21
635.9636757215619
 31
0.0
  0
LINE
  5
31E
330
1F
100
AcDbEntity
  8
VISIBLE
100
AcDbLine
 10
475.1606663837015
 20
637.2136757215619
 30
0.0
 11
477.7106663837014
 21
637.2136757215619
 31
0.0
  0
LINE
  5
31F
330
1F
100
AcDbEntity
  8
VISIBLE
100
AcDbLine
 10
469.4981663837015
 20
635.9636757215619
 30
0.0
 11
475.1606663837015
 21
635.9636757215619
 31
0.0
  0
LINE
  5
320
330
1F
100
AcDbEntity
  8
VISIBLE
100
AcDbLine
 10
469.4981663837015
 20
635.9636757215619
 30
0.0
 11
469.4981663837015
 21
642.3886757215619
 31
0.0
  0
LINE
  5
321
330
1F
100
AcDbEntity
  8
VISIBLE
100
AcDbLine
 10
463.4981663837015
 20
642.3886757215619
 30
0.0
 11
469.4981663837015
 21
642.3886757215619
 31
0.0
  0
LINE
  5
322
330
1F
100
AcDbEntity
  8
VISIBLE
100
AcDbLine
 10
463.4981663837015
 20
658.3886757215619
 30
0.0
 11
469.4981663837015
 21
658.3886757215619
 31
0.0
  0
LINE
  5
323
330
1F
100
AcDbEntity
  8
VISIBLE
100
AcDbLine
 10
469.4981663837015
 20
658.3886757215619
 30
0.0
 11
469.4981663837015
 21
664.8136757215618
 31
0.0
  0
LINE
  5
324
330
1F
100
AcDbEntity
  8
VISIBLE
100
AcDbLine
 10
469.4981663837015
 20
664.8136757215618
 30
0.0
 11
475.1606663837015
 21
664.8136757215618
 31
0.0
  0
CIRCLE
  5
325
330
1F
100
AcDbEntity
  8
VISIBLE
100
AcDbCircle
 10
489.7481663837015
 20
687.3886757215619
 30
0.0
 40
1.575
  0
LINE
  5
326
330
1F
100
AcDbEntity
  8
VISIBLE
100
AcDbLine
 10
463.4981663837015
 20
690.3886757215619
 30
0.0
 11
473.9981663837015
 21
690.3886757215619
 31
0.0
  0
LINE
  5
327
330
1F
100
AcDbEntity
  8
VISIBLE
100
AcDbLine
 10
477.7106663837014
 20
635.9636757215619
 30
0.0
 11
477.7106663837014
 21
637.2136757215619
 31
0.0
  0
LINE
  5
328
330
1F
100
AcDbEntity
  8
VISIBLE
100
AcDbLine
 10
469.4981663837015
 20
626.3886757215619
 30
0.0
 11
469.4981663837015
 21
632.8136757215618
 31
0.0
  0
LINE
  5
329
330
1F
100
AcDbEntity
  8
VISIBLE
100
AcDbLine
 10
475.1606663837015
 20
635.9636757215619
 30
0.0
 11
475.1606663837015
 21
637.2136757215619
 31
0.0
  0
LINE
  5
32A
330
1F
100
AcDbEntity
  8
VISIBLE
100
AcDbLine
 10
484.4981663837015
 20
690.3886757215619
 30
0.0
 11
494.9981663837015
 21
690.3886757215619
 31
0.0
  0
LINE
  5
32B
330
1F
100
AcDbEntity
  8
VISIBLE
100
AcDbLine
 10
505.4981663837015
 20
690.3886757215619
 30
0.0
 11
515.9981663837015
 21
690.3886757215619
 31
0.0
  0
LINE
  5
32C
330
1F
100
AcDbEntity
  8
VISIBLE
100
AcDbLine
 10
477.7106663837014
 20
635.9636757215619
 30
0.0
 11
478.6481663837014
 21
635.9636757215619
 31
0.0
  0
LINE
  5
32D
330
1F
100
AcDbEntity
  8
VISIBLE
100
AcDbLine
 10
463.4981663837015
 20
642.3886757215619
 30
0.0
 11
463.4981663837015
 21
658.3886757215619
 31
0.0
  0
LINE
  5
32E
330
1F
100
AcDbEntity
  8
VISIBLE
100
AcDbLine
 10
463.4981663837015
 20
674.3886757215619
 30
0.0
 11
463.4981663837015
 21
690.3886757215619
 31
0.0
  0
ELLIPSE
  5
331
330
1F
100
AcDbEntity
  8
VISIBLE
100
AcDbEllipse
 10
328.0456240021531
 20
673.4448451204942
 30
-0.0000000000000001
 11
-1.918511223497356
 21
-1.918511223497353
 31
-2.349498628984308E-16
210
6.123233995736765E-17
220
6.123233995736767E-17
230
-0.9999999999999998
 40
0.9903512560830325
 41
3.931838538365182
 42
4.71238898038469
  0
ELLIPSE
  5
332
330
1F
100
AcDbEntity
  8
VISIBLE
100
AcDbEllipse
 10
328.0456240021531
 20
673.4448451204942
 30
-0.0000000000000002
 11
1.918511223497356
 21
-1.918511223497353
 31
1.337703283216642E-31
210
6.123233995736767E-17
220
6.123233995736767E-17
230
-0.9999999999999998
 40
0.9903512560830325
 41
4.71238898038469
 42
5.492939422404197
  0
LINE
  5
333
330
1F
100
AcDbEntity
  8
VISIBLE
100
AcDbLine
 10
329.9456240021531
 20
675.3448451204941
 30
0.0
 11
326.1456240021531
 21
675.3448451204941
 31
0.0
  0
ELLIPSE
  5
334
330
1F
100
AcDbEntity
  8
VISIBLE
100
AcDbEllipse
 10
328.0456240021531
 20
673.4448451204942
 30
0.0000000000000001
 11
1.918511223497357
 21
1.918511223497356
 31
2.349498628984311E-16
210
6.123233995736769E-17
220
6.123233995736767E-17
230
-0.9999999999999998
 40
0.9903512560830315
 41
3.931838538365183
 42
4.71238898038469
  0
ELLIPSE
  5
335
330
1F
100
AcDbEntity
  8
VISIBLE
100
AcDbEllipse
 10
328.0456240021531
 20
673.4448451204942
 30
0.0000000000000002
 11
-1.918511223497357
 21
1.918511223497356
 31
-6.688516416083217E-32
210
6.123233995736770E-17
220
6.123233995736771E-17
230
-0.9999999999999998
 40
0.9903512560830315
 41
4.71238898038469
 42
5.492939422404196
  0
LINE
  5
336
330
1F
100
AcDbEntity
  8
VISIBLE
100
AcDbLine
 10
329.9456240021531
 20
671.5448451204942
 30
0.0
 11
326.1456240021531
 21
671.5448451204942
 31
0.0
  0
ARC
  5
337
330
1F
100
AcDbEntity
  8
VISIBLE
100
AcDbCircle
 10
328.0456240021531
 20
673.4448451204942
 30
0.0
 40
8.0
100
AcDbArc
 50
29.30789060159224
 51
310.4919280070852
  0
LINE
  5
338
330
1F
100
AcDbEntity
  8
VISIBLE
100
AcDbLine
 10
335.0216389452755
 20
677.3608654873121
 30
0.0
 11
375.0216389452755
 21
677.3608654873121
 31
0.0
  0
LINE
  5
339
330
1F
100
AcDbEntity
  8
VISIBLE
100
AcDbLine
 10
375.0216389452755
 20
677.3608654873121
 30
0.0
 11
384.2141722627032
 21
685.0743168035506
 31
0.0
  0
LINE
  5
33A
330
1F
100
AcDbEntity
  8
VISIBLE
100
AcDbLine
 10
384.2141722627032
 20
685.0743168035506
 30
0.0
 11
384.2141722627032
 21
695.0743168035506
 31
0.0
  0
LINE
  5
33B
330
1F
100
AcDbEntity
  8
VISIBLE
100
AcDbLine
 10
384.2141722627032
 20
695.0743168035506
 30
0.0
 11
379.0838701128182
 21
709.1697061153392
 31
0.0
  0
ARC
  5
33C
330
1F
100
AcDbEntity
  8
VISIBLE
100
AcDbCircle
 10
383.7823332167477
 20
710.8798068319676
 30
0.0
 40
5.0
100
AcDbArc
 50
19.99999999999937
 51
200.0000000000008
  0
LINE
  5
33D
330
1F
100
AcDbEntity
  8
VISIBLE
100
AcDbLine
 10
388.4807963206773
 20
712.5899075485959
 30
0.0
 11
394.2141722627032
 21
696.8375866106352
 31
0.0
  0
LINE
  5
33E
330
1F
100
AcDbEntity
  8
VISIBLE
100
AcDbLine
 10
394.2141722627032
 20
696.8375866106352
 30
0.0
 11
394.2141722627032
 21
680.4112402220006
 31
0.0
  0
LINE
  5
33F
330
1F
100
AcDbEntity
  8
VISIBLE
100
AcDbLine
 10
394.2141722627032
 20
680.4112402220006
 30
0.0
 11
378.6613412879375
 21
667.3608654873121
 31
0.0
  0
LINE
  5
340
330
1F
100
AcDbEntity
  8
VISIBLE
100
AcDbLine
 10
378.6613412879375
 20
667.3608654873121
 30
0.0
 11
333.2403513119381
 21
667.3608654873121
 31
0.0
  0
MTEXT
  5
341
102
{ACAD_XDICTIONARY
360
342
102
}
330
1F
100
AcDbEntity
  8
ANNOTATION_TEXT
 62
     7
 60
     1
100
AcDbMText
 10
255.9100509337864
 20
276.6850594227502
 30
0.0
 40
3.5
 41
0.0
 71
     2
 72
     1
  1

  7
ONSHAPE-STANDARD-VIEW-LABE
1001
ACAD
1000
ACAD_MTEXT_DEFINED_HEIGHT_BEGIN
1070
    46
1040
3.5
1000
ACAD_MTEXT_DEFINED_HEIGHT_END
  0
MTEXT
  5
349
102
{ACAD_XDICTIONARY
360
34A
102
}
330
1F
100
AcDbEntity
  8
ANNOTATION_TEXT
 62
     7
 60
     1
100
AcDbMText
 10
503.4981663837015
 20
369.3886757215619
 30
0.0
 40
3.5
 41
0.0
 71
     2
 72
     1
  1

  7
ONSHAPE-STANDARD-VIEW-LABE
1001
ACAD
1000
ACAD_MTEXT_DEFINED_HEIGHT_BEGIN
1070
    46
1040
3.5
1000
ACAD_MTEXT_DEFINED_HEIGHT_END
  0
MTEXT
  5
350
102
{ACAD_XDICTIONARY
360
351
102
}
330
1F
100
AcDbEntity
  8
ANNOTATION_TEXT
 62
     7
 60
     1
100
AcDbMText
 10
357.1298981324281
 20
655.2723259762308
 30
0.0
 40
3.5
 41
0.0
 71
     2
 72
     1
  1

  7
ONSHAPE-STANDARD-VIEW-LABE
1001
ACAD
1000
ACAD_MTEXT_DEFINED_HEIGHT_BEGIN
1070
    46
1040
3.5
1000
ACAD_MTEXT_DEFINED_HEIGHT_END
  0
ENDSEC
  0
SECTION
  2
OBJECTS
  0
DICTIONARY
  5
C
330
0
100
AcDbDictionary
  3
ACAD_GROUP
350
D
  3
ACAD_LAYOUT
350
1A
  3
ACAD_MATERIAL
350
43
  3
ACAD_MLEADERSTYLE
350
6B
  3
ACAD_MLINESTYLE
350
17
  3
ACAD_PLOTSETTINGS
350
19
  3
ACAD_SCALELIST
350
47
  3
ACAD_VISUALSTYLE
350
2A
  3
ACDBHEADERROUNDTRIPXREC
350
3B9
  3
ACDBVARIABLEDICTIONARY
350
6E
  3
DWGPROPS
350
3E0
  3
ONSHAPE_DATA
350
357
  0
DICTIONARY
  5
3E1
330
8
100
AcDbDictionary
280
     1
  3
ACAD_XREC_ROUNDTRIP
360
3E2
  0
DICTIONARY
  5
342
330
341
100
AcDbDictionary
280
     1
  3
ONSHAPE_VIEW_ID
360
343
  0
DICTIONARY
  5
34A
330
349
100
AcDbDictionary
280
     1
  3
ONSHAPE_VIEW_ID
360
34B
  0
DICTIONARY
  5
351
330
350
100
AcDbDictionary
280
     1
  3
ONSHAPE_VIEW_ID
360
352
  0
DICTIONARY
  5
D
102
{ACAD_REACTORS
330
C
102
}
330
C
100
AcDbDictionary
  0
DICTIONARY
  5
1A
102
{ACAD_REACTORS
330
C
102
}
330
C
100
AcDbDictionary
  0
DICTIONARY
  5
43
102
{ACAD_REACTORS
330
C
102
}
330
C
100
AcDbDictionary
  3
BYBLOCK
350
45
  3
BYLAYER
350
44
  3
GLOBAL
350
46
  0
DICTIONARY
  5
6B
102
{ACAD_REACTORS
330
C
102
}
330
C
100
AcDbDictionary
  3
STANDARD
350
6C
  0
DICTIONARY
  5
17
102
{ACAD_REACTORS
330
C
102
}
330
C
100
AcDbDictionary
  3
STANDARD
350
18
  0
DICTIONARY
  5
19
102
{ACAD_REACTORS
330
C
102
}
330
C
100
AcDbDictionary
  0
DICTIONARY
  5
47
102
{ACAD_REACTORS
330
C
102
}
330
C
100
AcDbDictionary
  3
A0
350
48
  3
A1
350
49
  3
A2
350
4A
  3
A3
350
4B
  3
A4
350
4C
  3
A5
350
4D
  3
A6
350
4E
  3
A7
350
4F
  3
A8
350
50
  3
A9
350
51
  3
B0
350
52
  3
B1
350
53
  3
B2
350
54
  3
B3
350
55
  3
B4
350
56
  3
B5
350
57
  3
B6
350
58
  3
B7
350
59
  3
B8
350
5A
  3
B9
350
5B
  3
C0
350
5C
  3
C1
350
5D
  3
C2
350
5E
  3
C3
350
5F
  3
C4
350
60
  3
C5
350
61
  3
C6
350
62
  3
C7
350
63
  3
C8
350
64
  3
C9
350
65
  3
D0
350
66
  3
D1
350
67
  3
D2
350
68
  0
DICTIONARY
  5
2A
102
{ACAD_REACTORS
330
C
102
}
330
C
100
AcDbDictionary
  3
2DWIREFRAME
350
2F
  3
BASIC
350
32
  3
BRIGHTEN
350
36
  3
COLORCHANGE
350
3A
  3
CONCEPTUAL
350
34
  3
DIM
350
35
  3
EDGECOLOROFF
350
3D
  3
FACEPATTERN
350
39
  3
FLAT
350
2B
  3
FLATWITHEDGES
350
2C
  3
GOURAUD
350
2D
  3
GOURAUDWITHEDGES
350
2E
  3
HIDDEN
350
31
  3
JITTEROFF
350
3B
  3
LINEPATTERN
350
38
  3
OVERHANGOFF
350
3C
  3
REALISTIC
350
33
  3
SHADED
350
42
  3
SHADED_WITH_EDGES
350
41
  3
SHADES_OF_GRAY
350
3E
  3
SKETCHY
350
3F
  3
THICKEN
350
37
  3
WIREFRAME
350
30
  3
X-RAY
350
40
  0
DICTIONARY
  5
3B9
102
{ACAD_REACTORS
330
C
102
}
330
C
100
AcDbDictionary
  3
CEPSNID
350
3C3
  3
CEPSNTYPE
350
3C2
  3
DIMSTYLEDATA
350
3D9
  3
FINGERPRINTGUID
350
3C4
  3
HYPERLINKBASE
350
3BC
  3
INSUNITS
350
3C1
  3
LAYOUTDICT
350
3BE
  3
LWETCUNION
350
3C0
  3
PLOTSETDICT
350
3BF
  3
PSVPSCALE
350
3C6
  3
PUCSBASE
350
3C9
  3
PUCSORGBACK
350
3CF
  3
PUCSORGBOTTOM
350
3CB
  3
PUCSORGFRONT
350
3CE
  3
PUCSORGLEFT
350
3CC
  3
PUCSORGRIGHT
350
3CD
  3
PUCSORGTOP
350
3CA
  3
PUCSORTHOREF
350
3C7
  3
PUCSORTHOVIEW
350
3C8
  3
STYLESHEET
350
3BD
  3
TSTACKALIGN
350
3BA
  3
TSTACKSIZE
350
3BB
  3
UCSBASE
350
3D2
  3
UCSORGBACK
350
3D8
  3
UCSORGBOTTOM
350
3D4
  3
UCSORGFRONT
350
3D7
  3
UCSORGLEFT
350
3D5
  3
UCSORGRIGHT
350
3D6
  3
UCSORGTOP
350
3D3
  3
UCSORTHOREF
350
3D0
  3
UCSORTHOVIEW
350
3D1
  3
VERSIONGUID
350
3C5
  0
DICTIONARY
  5
6E
102
{ACAD_REACTORS
330
C
102
}
330
C
100
AcDbDictionary
  3
CANNOSCALE
350
3E3
  3
CMLEADERSTYLE
350
3DB
  3
CTABLESTYLE
350
3DA
  3
DIMASSOC
350
3DE
  3
HIDETEXT
350
3DF
  3
MSLTSCALE
350
3E4
  3
OLEFRAME
350
6F
  0
XRECORD
  5
3E0
102
{ACAD_REACTORS
330
C
102
}
330
C
100
AcDbXrecord
  1
DWGPROPS COOKIE
  2

  3

  4

  6

  7

  8
nobody
  9

300
=
301
=
302
=
303
=
304
=
305
=
306
=
307
=
308
=
309
=
 40
0.0
 41
2461067.67619294
 42
2461067.676193472
  1

 90
        0
  0
DICTIONARY
  5
357
102
{ACAD_REACTORS
330
C
102
}
330
C
100
AcDbDictionary
280
     1
  3
DIM_UNITS
360
358
  3
ONSHAPE_ANG_TOL_PRECISION
360
35B
  3
ONSHAPE_BREAK_DIMENSION_DEFAULT
360
361
  3
ONSHAPE_DIMENSION_TEXT_HOR
360
360
  3
ONSHAPE_FITCLASS_TOL_PRECISION
360
35C
  3
ONSHAPE_JOGDIMENSION_LOCK_
360
35E
  3
ONSHAPE_SHOWDIMENSIONSLINE
360
35F
  3
ONSHAPE_UNDERLINEOVERRIDEN
360
35D
  3
ONSHAPE_VSHARP_EXTENSION
360
35A
  3
ONSHAPE_WELD_STANDARD
360
359
  0
XRECORD
  5
3E2
102
{ACAD_REACTORS
330
3E1
102
}
330
3E1
100
AcDbXrecord
102
VTR_0.000_0.000_1.000_1.000_VISUALSTYLE
340
2F
102
VTR_0.000_0.000_1.000_1.000_GRIDDISPLAY
 70
     3
102
VTR_0.000_0.000_1.000_1.000_GRIDMAJOR
 70
     5
102
VTR_0.000_0.000_1.000_1.000_DEFAULTLIGHTING
280
     1
102
VTR_0.000_0.000_1.000_1.000_DEFAULTLIGHTINGTYPE
 70
     1
102
VTR_0.000_0.000_1.000_1.000_BRIGHTNESS
141
0.0
102
VTR_0.000_0.000_1.000_1.000_CONTRAST
142
0.0
  0
XRECORD
  5
343
102
{ACAD_REACTORS
330
342
102
}
330
342
100
AcDbXrecord
330
0
  0
XRECORD
  5
34B
102
{ACAD_REACTORS
330
34A
102
}
330
34A
100
AcDbXrecord
330
0
  0
XRECORD
  5
352
102
{ACAD_REACTORS
330
351
102
}
330
351
100
AcDbXrecord
330
0
  0
MATERIAL
  5
45
102
{ACAD_REACTORS
330
43
102
}
102
{ACAD_XDICTIONARY
360
3E7
102
}
330
43
100
AcDbMaterial
  1
BYBLOCK
  0
MATERIAL
  5
44
102
{ACAD_REACTORS
330
43
102
}
102
{ACAD_XDICTIONARY
360
3E5
102
}
330
43
100
AcDbMaterial
  1
BYLAYER
  0
MATERIAL
  5
46
102
{ACAD_REACTORS
330
43
102
}
102
{ACAD_XDICTIONARY
360
3E9
102
}
330
43
100
AcDbMaterial
  1
GLOBAL
  0
ACAD_PROXY_OBJECT
  5
6C
102
{ACAD_REACTORS
330
6B
102
}
330
6B
100
AcDbProxyObject
 90
      499
 91
      505
 93
      610
310
40901902A4063FBFFFFFE056BD1B81E855B9FC0AD7A3703D0AD73F4214DD185B99185C9900AD7A3703D0AC73F90140501A02B5E8DC0F42B1CFC02B5E8DC0F42B1CFE5764000000000000300FC0
340
14
340
0
340
11
340
0
 94
        0
1001
ACAD_MLEADERVER
1070
     2
  0
MLINESTYLE
  5
18
102
{ACAD_REACTORS
330
17
102
}
330
17
100
AcDbMlineStyle
  2
Standard
 70
     0
  3

 62
   256
 51
90.0
 52
90.0
 71
     2
 49
0.5
 62
   256
  6
BYLAYER
 49
-0.5
 62
   256
  6
BYLAYER
  0
ACAD_PROXY_OBJECT
  5
48
102
{ACAD_REACTORS
330
47
102
}
330
47
100
AcDbProxyObject
 90
      499
 91
      503
 93
       41
310
903313A31580
  0
ACAD_PROXY_OBJECT
  5
49
102
{ACAD_REACTORS
330
47
102
}
330
47
100
AcDbProxyObject
 90
      499
 91
      503
 93
      105
310
903313A324000000000000004000
  0
ACAD_PROXY_OBJECT
  5
4A
102
{ACAD_REACTORS
330
47
102
}
330
47
100
AcDbProxyObject
 90
      499
 91
      503
 93
      105
310
903313A344000000000000104000
  0
ACAD_PROXY_OBJECT
  5
4B
102
{ACAD_REACTORS
330
47
102
}
330
47
100
AcDbProxyObject
 90
      499
 91
      503
 93
      105
310
903313A354000000000000144000
  0
ACAD_PROXY_OBJECT
  5
4C
102
{ACAD_REACTORS
330
47
102
}
330
47
100
AcDbProxyObject
 90
      499
 91
      503
 93
      105
310
903313A384000000000000204000
  0
ACAD_PROXY_OBJECT
  5
4D
102
{ACAD_REACTORS
330
47
102
}
330
47
100
AcDbProxyObject
 90
      499
 91
      503
 93
      113
310
904313A31304000000000000244000
  0
ACAD_PROXY_OBJECT
  5
4E
102
{ACAD_REACTORS
330
47
102
}
330
47
100
AcDbProxyObject
 90
      499
 91
      503
 93
      113
310
904313A31364000000000000304000
  0
ACAD_PROXY_OBJECT
  5
4F
102
{ACAD_REACTORS
330
47
102
}
330
47
100
AcDbProxyObject
 90
      499
 91
      503
 93
      113
310
904313A32304000000000000344000
  0
ACAD_PROXY_OBJECT
  5
50
102
{ACAD_REACTORS
330
47
102
}
330
47
100
AcDbProxyObject
 90
      499
 91
      503
 93
      113
310
904313A333040000000000003E4000
  0
ACAD_PROXY_OBJECT
  5
51
102
{ACAD_REACTORS
330
47
102
}
330
47
100
AcDbProxyObject
 90
      499
 91
      503
 93
      113
310
904313A34304000000000000444000
  0
ACAD_PROXY_OBJECT
  5
52
102
{ACAD_REACTORS
330
47
102
}
330
47
100
AcDbProxyObject
 90
      499
 91
      503
 93
      113
310
904313A35304000000000000494000
  0
ACAD_PROXY_OBJECT
  5
53
102
{ACAD_REACTORS
330
47
102
}
330
47
100
AcDbProxyObject
 90
      499
 91
      503
 93
      121
310
905313A3130304000000000000594000
  0
ACAD_PROXY_OBJECT
  5
54
102
{ACAD_REACTORS
330
47
102
}
330
47
100
AcDbProxyObject
 90
      499
 91
      503
 93
      105
310
903323A310000000000000010100
  0
ACAD_PROXY_OBJECT
  5
55
102
{ACAD_REACTORS
330
47
102
}
330
47
100
AcDbProxyObject
 90
      499
 91
      503
 93
      105
310
903343A310000000000000410100
  0
ACAD_PROXY_OBJECT
  5
56
102
{ACAD_REACTORS
330
47
102
}
330
47
100
AcDbProxyObject
 90
      499
 91
      503
 93
      105
310
903383A310000000000000810100
  0
ACAD_PROXY_OBJECT
  5
57
102
{ACAD_REACTORS
330
47
102
}
330
47
100
AcDbProxyObject
 90
      499
 91
      503
 93
      113
310
90431303A310000000000000910100
  0
ACAD_PROXY_OBJECT
  5
58
102
{ACAD_REACTORS
330
47
102
}
330
47
100
AcDbProxyObject
 90
      499
 91
      503
 93
      121
310
9053130303A310000000000001650100
  0
ACAD_PROXY_OBJECT
  5
59
102
{ACAD_REACTORS
330
47
102
}
330
47
100
AcDbProxyObject
 90
      499
 91
      503
 93
      257
310
90E312F31323822203D2031272D3022000000000000200FC000000000000284000
  0
ACAD_PROXY_OBJECT
  5
5A
102
{ACAD_REACTORS
330
47
102
}
330
47
100
AcDbProxyObject
 90
      499
 91
      503
 93
      249
310
90D312F363422203D2031272D3022000000000000240FC000000000000284000
  0
ACAD_PROXY_OBJECT
  5
5B
102
{ACAD_REACTORS
330
47
102
}
330
47
100
AcDbProxyObject
 90
      499
 91
      503
 93
      249
310
90D312F333222203D2031272D3022000000000000280FC000000000000284000
  0
ACAD_PROXY_OBJECT
  5
5C
102
{ACAD_REACTORS
330
47
102
}
330
47
100
AcDbProxyObject
 90
      499
 91
      503
 93
      249
310
90D312F313622203D2031272D30220000000000002C0FC000000000000284000
  0
ACAD_PROXY_OBJECT
  5
5D
102
{ACAD_REACTORS
330
47
102
}
330
47
100
AcDbProxyObject
 90
      499
 91
      503
 93
      249
310
90D332F333222203D2031272D30220000000000002E0FC000000000000284000
  0
ACAD_PROXY_OBJECT
  5
5E
102
{ACAD_REACTORS
330
47
102
}
330
47
100
AcDbProxyObject
 90
      499
 91
      503
 93
      241
310
90C312F3822203D2031272D3022000000000000300FC000000000000284000
  0
ACAD_PROXY_OBJECT
  5
5F
102
{ACAD_REACTORS
330
47
102
}
330
47
100
AcDbProxyObject
 90
      499
 91
      503
 93
      249
310
90D332F313622203D2031272D3022000000000000320FC000000000000284000
  0
ACAD_PROXY_OBJECT
  5
60
102
{ACAD_REACTORS
330
47
102
}
330
47
100
AcDbProxyObject
 90
      499
 91
      503
 93
      241
310
90C312F3422203D2031272D3022000000000000340FC000000000000284000
  0
ACAD_PROXY_OBJECT
  5
61
102
{ACAD_REACTORS
330
47
102
}
330
47
100
AcDbProxyObject
 90
      499
 91
      503
 93
      241
310
90C332F3822203D2031272D3022000000000000360FC000000000000284000
  0
ACAD_PROXY_OBJECT
  5
62
102
{ACAD_REACTORS
330
47
102
}
330
47
100
AcDbProxyObject
 90
      499
 91
      503
 93
      241
310
90C312F3222203D2031272D3022000000000000380FC000000000000284000
  0
ACAD_PROXY_OBJECT
  5
63
102
{ACAD_REACTORS
330
47
102
}
330
47
100
AcDbProxyObject
 90
      499
 91
      503
 93
      241
310
90C332F3422203D2031272D30220000000000003A0FC000000000000284000
  0
ACAD_PROXY_OBJECT
  5
64
102
{ACAD_REACTORS
330
47
102
}
330
47
100
AcDbProxyObject
 90
      499
 91
      503
 93
      161
310
90A3122203D2031272D30224000000000000284000
  0
ACAD_PROXY_OBJECT
  5
65
102
{ACAD_REACTORS
330
47
102
}
330
47
100
AcDbProxyObject
 90
      499
 91
      503
 93
      257
310
90E312D312F3222203D2031272D30220000000000003E0FC000000000000284000
  0
ACAD_PROXY_OBJECT
  5
66
102
{ACAD_REACTORS
330
47
102
}
330
47
100
AcDbProxyObject
 90
      499
 91
      503
 93
      225
310
90A3322203D2031272D302200000000000002100000000000000284000
  0
ACAD_PROXY_OBJECT
  5
67
102
{ACAD_REACTORS
330
47
102
}
330
47
100
AcDbProxyObject
 90
      499
 91
      503
 93
      225
310
90A3622203D2031272D302200000000000006100000000000000284000
  0
ACAD_PROXY_OBJECT
  5
68
102
{ACAD_REACTORS
330
47
102
}
330
47
100
AcDbProxyObject
 90
      499
 91
      503
 93
      249
310
90D31272D3022203D2031272D30220000000000000A100000000000000284000
  0
ACAD_PROXY_OBJECT
  5
2F
102
{ACAD_REACTORS
330
2A
102
}
330
2A
100
AcDbProxyObject
 90
      499
 91
      501
 93
      436
310
42CC9915DA5C99599C985B595049028333333333333E33F0000000000000F90107901411070040501600405405064090741402480A0340
1001
ACAD
1000
AcDbSavedByObjectVersion
1070
     0
  0
ACAD_PROXY_OBJECT
  5
32
102
{ACAD_REACTORS
330
2A
102
}
330
2A
100
AcDbProxyObject
 90
      499
 91
      501
 93
      388
310
4150985CDA58D07406404333333333333E33F0000000000000F90107A41107004050150841D405064090741402480A0350
1001
ACAD
1000
AcDbSavedByObjectVersion
1070
     0
  0
ACAD_PROXY_OBJECT
  5
36
102
{ACAD_REACTORS
330
2A
102
}
330
2A
100
AcDbProxyObject
 90
      499
 91
      501
 93
      428
310
42109C9A59DA1D195B90C409028333333333333E33F0000000000000F9010790141107004050150841D405064090741402480A029950
1001
ACAD
1000
AcDbSavedByObjectVersion
1070
     0
  0
ACAD_PROXY_OBJECT
  5
3A
102
{ACAD_REACTORS
330
2A
102
}
330
2A
100
AcDbProxyObject
 90
      499
 91
      501
 93
      452
310
42D0DBDB1BDC90DA185B99D95104090240C333333333333E33F0000000000000F90108901411070040501508421405064090741402480A0350
1001
ACAD
1000
AcDbSavedByObjectVersion
1070
     0
  0
ACAD_PROXY_OBJECT
  5
34
102
{ACAD_REACTORS
330
2A
102
}
330
2A
100
AcDbProxyObject
 90
      499
 91
      501
 93
      500
310
4290DBDB98D95C1D1D585B10940D028333333333333E33F0000000000000F90107902409070040501000000000018199010841D405064090740C02480A0340
1001
ACAD
1000
AcDbSavedByObjectVersion
1070
     0
  0
ACAD_PROXY_OBJECT
  5
35
102
{ACAD_REACTORS
330
2A
102
}
330
2A
100
AcDbProxyObject
 90
      499
 91
      501
 93
      412
310
40D11A5B50B409028333333333333E33F0000000000000F9010790141107004050150841D405064090741402480A02677FFFFFD0
1001
ACAD
1000
AcDbSavedByObjectVersion
1070
     0
  0
ACAD_PROXY_OBJECT
  5
3D
102
{ACAD_REACTORS
330
2A
102
}
330
2A
100
AcDbProxyObject
 90
      499
 91
      501
 93
      452
310
43115919D950DBDB1BDC93D999916409028333333333333E33F0000000000000F9010790141107004050150841D405064090741402480A0350
1001
ACAD
1000
AcDbSavedByObjectVersion
1070
     0
  0
ACAD_PROXY_OBJECT
  5
39
102
{ACAD_REACTORS
330
2A
102
}
330
2A
100
AcDbProxyObject
 90
      499
 91
      501
 93
      444
310
42D19858D95C185D1D195C9B90F409028333333333333E33F0000000000000F9010790141107004050150841D405064090741402480A0350
1001
ACAD
1000
AcDbSavedByObjectVersion
1070
     0
  0
ACAD_PROXY_OBJECT
  5
2B
102
{ACAD_REACTORS
330
2A
102
}
330
2A
100
AcDbProxyObject
 90
      499
 91
      501
 93
      380
310
41119B185D240901404333333333333E33F0000000000000F9010740A907004050150841D405064090741402480A1B50
1001
ACAD
1000
AcDbSavedByObjectVersion
1070
     0
  0
ACAD_PROXY_OBJECT
  5
2C
102
{ACAD_REACTORS
330
2A
102
}
330
2A
100
AcDbProxyObject
 90
      499
 91
      501
 93
      468
310
43519B185D15DA5D1A115919D95CD0140901404333333333333E33F0000000000000F90107409019070040501600405405064090741402480A1B50
1001
ACAD
1000
AcDbSavedByObjectVersion
1070
     0
  0
ACAD_PROXY_OBJECT
  5
2D
102
{ACAD_REACTORS
330
2A
102
}
330
2A
100
AcDbProxyObject
 90
      499
 91
      501
 93
      404
310
41D1DBDD5C985D5910240902404333333333333E33F0000000000000F9010740A9070040501641D405064090741402480A1B50
1001
ACAD
1000
AcDbSavedByObjectVersion
1070
     0
  0
ACAD_PROXY_OBJECT
  5
2E
102
{ACAD_REACTORS
330
2A
102
}
330
2A
100
AcDbProxyObject
 90
      499
 91
      501
 93
      492
310
4411DBDD5C985D5915DA5D1A115919D95CD0340902404333333333333E33F0000000000000F90107409019070040501600405405064090741402480A1B50
1001
ACAD
1000
AcDbSavedByObjectVersion
1070
     0
  0
ACAD_PROXY_OBJECT
  5
31
102
{ACAD_REACTORS
330
2A
102
}
330
2A
100
AcDbProxyObject
 90
      499
 91
      501
 93
      476
310
41921A5919195B90640502408333333333333E33F0000000000000F901079024090700405020000000000001110200405405064090740C02480A0340
1001
ACAD
1000
AcDbSavedByObjectVersion
1070
     0
  0
ACAD_PROXY_OBJECT
  5
3B
102
{ACAD_REACTORS
330
2A
102
}
330
2A
100
AcDbProxyObject
 90
      499
 91
      501
 93
      428
310
42529A5D1D195C93D999914409028333333333333E33F0000000000000F9010790141107004050150A41D405064090741402480A0350
1001
ACAD
1000
AcDbSavedByObjectVersion
1070
     0
  0
ACAD_PROXY_OBJECT
  5
38
102
{ACAD_REACTORS
330
2A
102
}
330
2A
100
AcDbProxyObject
 90
      499
 91
      501
 93
      444
310
42D31A5B995C185D1D195C9B90E409028333333333333E33F0000000000000F9010790141107004050750841D405064090741402483A0350
1001
ACAD
1000
AcDbSavedByObjectVersion
1070
     0
  0
ACAD_PROXY_OBJECT
  5
3C
102
{ACAD_REACTORS
330
2A
102
}
330
2A
100
AcDbProxyObject
 90
      499
 91
      501
 93
      444
310
42D3DD995C9A185B99D3D999915409028333333333333E33F0000000000000F9010790141107004050150941D405064090741402480A0350
1001
ACAD
1000
AcDbSavedByObjectVersion
1070
     0
  0
ACAD_PROXY_OBJECT
  5
33
102
{ACAD_REACTORS
330
2A
102
}
330
2A
100
AcDbProxyObject
 90
      499
 91
      501
 93
      428
310
425499585B1A5CDD1A58D08409038333333333333E33F0000000000000F9010740A907004050150800405405064090740C02480A1B40
1001
ACAD
1000
AcDbSavedByObjectVersion
1070
     0
  0
ACAD_PROXY_OBJECT
  5
42
102
{ACAD_REACTORS
330
2A
102
}
330
2A
100
AcDbProxyObject
 90
      499
 91
      501
 93
      420
310
4194DA1859195911B40902404333333333333E33F0000000000000F9010740A41107004050150800405405064090840C02480A0B40
1001
ACAD
1000
AcDbSavedByObjectVersion
1070
     0
  0
ACAD_PROXY_OBJECT
  5
41
102
{ACAD_REACTORS
330
2A
102
}
330
2A
100
AcDbProxyObject
 90
      499
 91
      501
 93
      516
310
4454DA18591959081DDA5D1A08195919D95CD1A40902404333333333333E33F0000000000000F901074090142907004050250800405405064090740C02480A0B40
1001
ACAD
1000
AcDbSavedByObjectVersion
1070
     0
  0
ACAD_PROXY_OBJECT
  5
3E
102
{ACAD_REACTORS
330
2A
102
}
330
2A
100
AcDbProxyObject
 90
      499
 91
      501
 93
      532
310
4394DA1859195CC81BD98811DC985E5174090240C333333333333E33F0000000000000F901079024090741D01000000000000111010841D405064090740C02480A0340
1001
ACAD
1000
AcDbSavedByObjectVersion
1070
     0
  0
ACAD_PROXY_OBJECT
  5
3F
102
{ACAD_REACTORS
330
2A
102
}
330
2A
100
AcDbProxyObject
 90
      499
 91
      501
 93
      476
310
41D4DAD95D18DA1E51840502408333333333333E33F0000000000000F901079024090741D01000000000000111010B41D405064090741802480A0340
1001
ACAD
1000
AcDbSavedByObjectVersion
1070
     0
  0
ACAD_PROXY_OBJECT
  5
37
102
{ACAD_REACTORS
330
2A
102
}
330
2A
100
AcDbProxyObject
 90
      499
 91
      501
 93
      412
310
41D51A1A58DAD95B90D409028333333333333E33F0000000000000F9010790141107004050150C41D405064090741402480A0350
1001
ACAD
1000
AcDbSavedByObjectVersion
1070
     0
  0
ACAD_PROXY_OBJECT
  5
30
102
{ACAD_REACTORS
330
2A
102
}
330
2A
100
AcDbProxyObject
 90
      499
 91
      501
 93
      420
310
4255DA5C99599C985B595059028333333333333E33F0000000000000F90107901411070040501600405405064090740C02480A0340
1001
ACAD
1000
AcDbSavedByObjectVersion
1070
     0
  0
ACAD_PROXY_OBJECT
  5
40
102
{ACAD_REACTORS
330
2A
102
}
330
2A
100
AcDbProxyObject
 90
      499
 91
      501
 93
      404
310
41560B54985E51940902404000000000000E03F0000000000000F9010740501907004050150841D405064090740C02480A1B40
1001
ACAD
1000
AcDbSavedByObjectVersion
1070
     0
  0
XRECORD
  5
3C3
102
{ACAD_REACTORS
330
3B9
102
}
330
3B9
100
AcDbXrecord
340
0
  0
XRECORD
  5
3C2
102
{ACAD_REACTORS
330
3B9
102
}
330
3B9
100
AcDbXrecord
 90
        0
  0
XRECORD
  5
3D9
102
{ACAD_REACTORS
330
3B9
102
}
330
3B9
100
AcDbXrecord
1000
DSTYLE
1002
{
1070
   179
 70
     1
1070
   171
 70
     3
1070
   143
 40
0.03937
1070
   274
 70
     3
1070
   285
 70
     8
1070
    41
 40
2.5
1070
   141
 40
2.5
1070
   176
 70
     7
1070
   177
 70
     7
1070
   178
 70
     7
1070
   271
 70
     2
1070
    43
 40
3.75
1070
   278
 70
    44
1070
    44
 40
1.25
1070
    42
 40
0.625
1070
   147
 40
0.625
1070
   371
 70
    13
1070
   372
 70
    13
1070
    77
 70
     1
1070
   272
 70
     2
1070
    73
 70
     0
1070
   172
 70
     1
1070
    74
 70
     0
1070
   283
 70
     0
1070
   340
340
72
1070
   140
 40
3.5
1070
   284
 70
     8
1070
   288
 70
     1
1070
    78
 70
     8
1002
}
  0
XRECORD
  5
3C4
102
{ACAD_REACTORS
330
3B9
102
}
330
3B9
100
AcDbXrecord
  1
{306333f2-3678-7773-3864-35e336783074}
  0
XRECORD
  5
3BC
102
{ACAD_REACTORS
330
3B9
102
}
330
3B9
100
AcDbXrecord
  1

  0
XRECORD
  5
3C1
102
{ACAD_REACTORS
330
3B9
102
}
330
3B9
100
AcDbXrecord
 90
        0
  0
XRECORD
  5
3BE
102
{ACAD_REACTORS
330
3B9
102
}
330
3B9
100
AcDbXrecord
340
1A
  0
XRECORD
  5
3C0
102
{ACAD_REACTORS
330
3B9
102
}
330
3B9
100
AcDbXrecord
 90
    10269
  0
XRECORD
  5
3BF
102
{ACAD_REACTORS
330
3B9
102
}
330
3B9
100
AcDbXrecord
340
19
  0
XRECORD
  5
3C6
102
{ACAD_REACTORS
330
3B9
102
}
330
3B9
100
AcDbXrecord
 40
0.0
  0
XRECORD
  5
3C9
102
{ACAD_REACTORS
330
3B9
102
}
330
3B9
100
AcDbXrecord
340
0
  0
XRECORD
  5
3CF
102
{ACAD_REACTORS
330
3B9
102
}
330
3B9
100
AcDbXrecord
 10
0.0
 20
0.0
 30
0.0
  0
XRECORD
  5
3CB
102
{ACAD_REACTORS
330
3B9
102
}
330
3B9
100
AcDbXrecord
 10
0.0
 20
0.0
 30
0.0
  0
XRECORD
  5
3CE
102
{ACAD_REACTORS
330
3B9
102
}
330
3B9
100
AcDbXrecord
 10
0.0
 20
0.0
 30
0.0
  0
XRECORD
  5
3CC
102
{ACAD_REACTORS
330
3B9
102
}
330
3B9
100
AcDbXrecord
 10
0.0
 20
0.0
 30
0.0
  0
XRECORD
  5
3CD
102
{ACAD_REACTORS
330
3B9
102
}
330
3B9
100
AcDbXrecord
 10
0.0
 20
0.0
 30
0.0
  0
XRECORD
  5
3CA
102
{ACAD_REACTORS
330
3B9
102
}
330
3B9
100
AcDbXrecord
 10
0.0
 20
0.0
 30
0.0
  0
XRECORD
  5
3C7
102
{ACAD_REACTORS
330
3B9
102
}
330
3B9
100
AcDbXrecord
340
0
  0
XRECORD
  5
3C8
102
{ACAD_REACTORS
330
3B9
102
}
330
3B9
100
AcDbXrecord
 70
     0
  0
XRECORD
  5
3BD
102
{ACAD_REACTORS
330
3B9
102
}
330
3B9
100
AcDbXrecord
  1

  0
XRECORD
  5
3BA
102
{ACAD_REACTORS
330
3B9
102
}
330
3B9
100
AcDbXrecord
 90
        1
  0
XRECORD
  5
3BB
102
{ACAD_REACTORS
330
3B9
102
}
330
3B9
100
AcDbXrecord
 90
       70
  0
XRECORD
  5
3D2
102
{ACAD_REACTORS
330
3B9
102
}
330
3B9
100
AcDbXrecord
340
0
  0
XRECORD
  5
3D8
102
{ACAD_REACTORS
330
3B9
102
}
330
3B9
100
AcDbXrecord
 10
0.0
 20
0.0
 30
0.0
  0
XRECORD
  5
3D4
102
{ACAD_REACTORS
330
3B9
102
}
330
3B9
100
AcDbXrecord
 10
0.0
 20
0.0
 30
0.0
  0
XRECORD
  5
3D7
102
{ACAD_REACTORS
330
3B9
102
}
330
3B9
100
AcDbXrecord
 10
0.0
 20
0.0
 30
0.0
  0
XRECORD
  5
3D5
102
{ACAD_REACTORS
330
3B9
102
}
330
3B9
100
AcDbXrecord
 10
0.0
 20
0.0
 30
0.0
  0
XRECORD
  5
3D6
102
{ACAD_REACTORS
330
3B9
102
}
330
3B9
100
AcDbXrecord
 10
0.0
 20
0.0
 30
0.0
  0
XRECORD
  5
3D3
102
{ACAD_REACTORS
330
3B9
102
}
330
3B9
100
AcDbXrecord
 10
0.0
 20
0.0
 30
0.0
  0
XRECORD
  5
3D0
102
{ACAD_REACTORS
330
3B9
102
}
330
3B9
100
AcDbXrecord
340
0
  0
XRECORD
  5
3D1
102
{ACAD_REACTORS
330
3B9
102
}
330
3B9
100
AcDbXrecord
 70
     0
  0
XRECORD
  5
3C5
102
{ACAD_REACTORS
330
3B9
102
}
330
3B9
100
AcDbXrecord
  1
{FAEB1C32-E019-11D5-929B-00C0DF256EC4}
  0
DICTIONARYVAR
  5
3E3
102
{ACAD_REACTORS
330
6E
102
}
330
6E
100
DictionaryVariables
280
     0
  1
1:1
  0
DICTIONARYVAR
  5
3DB
102
{ACAD_REACTORS
330
6E
102
}
330
6E
100
DictionaryVariables
280
     0
  1
Standard
  0
DICTIONARYVAR
  5
3DA
102
{ACAD_REACTORS
330
6E
102
}
330
6E
100
DictionaryVariables
280
     0
  1
Onshape-Standard
  0
DICTIONARYVAR
  5
3DE
102
{ACAD_REACTORS
330
6E
102
}
330
6E
100
DictionaryVariables
280
     0
  1
2
  0
DICTIONARYVAR
  5
3DF
102
{ACAD_REACTORS
330
6E
102
}
330
6E
100
DictionaryVariables
280
     0
  1
1
  0
DICTIONARYVAR
  5
3E4
102
{ACAD_REACTORS
330
6E
102
}
330
6E
100
DictionaryVariables
280
     0
  1
1
  0
DICTIONARYVAR
  5
6F
102
{ACAD_REACTORS
330
6E
102
}
330
6E
100
DictionaryVariables
280
     0
  1
0
  0
XRECORD
  5
358
102
{ACAD_REACTORS
330
357
102
}
330
357
100
AcDbXrecord
 70
     0
  0
XRECORD
  5
35B
102
{ACAD_REACTORS
330
357
102
}
330
357
100
AcDbXrecord
 90
        0
  0
ACAD_PROXY_OBJECT
  5
361
102
{ACAD_REACTORS
330
357
102
}
330
357
100
AcDbProxyObject
 90
      499
 91
      508
 93
       34
310
40C8804040
  0
XRECORD
  5
360
102
{ACAD_REACTORS
330
357
102
}
330
357
100
AcDbXrecord
 90
        5
  0
XRECORD
  5
35C
102
{ACAD_REACTORS
330
357
102
}
330
357
100
AcDbXrecord
 90
        3
  0
XRECORD
  5
35E
102
{ACAD_REACTORS
330
357
102
}
330
357
100
AcDbXrecord
 90
        0
  0
ACAD_PROXY_OBJECT
  5
35F
102
{ACAD_REACTORS
330
357
102
}
330
357
100
AcDbProxyObject
 90
      499
 91
      508
 93
       34
310
40C8804040
  0
ACAD_PROXY_OBJECT
  5
35D
102
{ACAD_REACTORS
330
357
102
}
330
357
100
AcDbProxyObject
 90
      499
 91
      508
 93
       34
310
40C8804040
  0
XRECORD
  5
35A
102
{ACAD_REACTORS
330
357
102
}
330
357
100
AcDbXrecord
 90
        0
  0
XRECORD
  5
359
102
{ACAD_REACTORS
330
357
102
}
330
357
100
AcDbXrecord
 90
        1
  0
DICTIONARY
  5
3E7
330
45
100
AcDbDictionary
280
     1
  3
ACAD_XREC_ROUNDTRIP
360
3E8
  0
DICTIONARY
  5
3E5
330
44
100
AcDbDictionary
280
     1
  3
ACAD_XREC_ROUNDTRIP
360
3E6
  0
DICTIONARY
  5
3E9
330
46
100
AcDbDictionary
280
     1
  3
ACAD_XREC_ROUNDTRIP
360
3EA
  0
XRECORD
  5
3E8
102
{ACAD_REACTORS
330
3E7
102
}
330
3E7
100
AcDbXrecord
102
MATERIAL
148
0.0
149
0.0
149
0.0
 93
        0
 94
      127
282
     0
 72
     1
 77
     1
171
     1
175
     1
179
     1
273
     0
  0
XRECORD
  5
3E6
102
{ACAD_REACTORS
330
3E5
102
}
330
3E5
100
AcDbXrecord
102
MATERIAL
148
0.0
149
0.0
149
0.0
 93
        0
 94
      127
282
     0
 72
     1
 77
     1
171
     1
175
     1
179
     1
273
     0
  0
XRECORD
  5
3EA
102
{ACAD_REACTORS
330
3E9
102
}
330
3E9
100
AcDbXrecord
102
MATERIAL
148
0.0
149
0.0
149
0.0
 93
        0
 94
      127
282
     0
 72
     1
 77
     1
171
     1
175
     1
179
     1
273
     0
  0
ENDSEC
  0
EOF
